/* XPM */
static char * nomail_xpm[] = {
"28 16 4 1",
" 	c None",
".	c #999999",
"+	c #FFFFFF",
"@	c #CCCCCC",
"............................",
".++++++++++++++++++++++++++.",
".+@@@@@@@@@@@@@@@@@@@@@@@.@.",
".+......@@@@@@@@@@@@@@@@@.+.",
".+@++++++@@@@@@@@@@@@@@@@.+.",
".+......@@@@@@@@@@@@@@....+.",
".+@++++++@@@@@@@@@@@@@@++++.",
".+@@@@@@@..........@@@@@@@@.",
".+@@@@@@@@++++++++++@@@@@@@.",
".+@@@@@@@........@@@@@@@@@@.",
".+@@@@@@@@++++++++@@@@@@@@@.",
".+@@@@@@@...........@@@@@@@.",
".+@@@@@@@@+++++++++++@@@@@@.",
".+@@@@@@@@@@@@@@@@@@@@@@@@@.",
".+@@@@@@@@@@@@@@@@@@@@@@@@@.",
"............................"};
