/* XPM */
static char * mail_xpm[] = {
"28 16 7 1",
" 	c None",
".	c #000000",
"+	c #FFFFFF",
"@	c #CCCCCC",
"#	c #00FFFF",
"$	c #0000FF",
"%	c #999999",
"............................",
".++++++++++++++++++++++++++.",
".+++++++++++++@@+++@@+###$+.",
".+%....%+++++@++@@@++@###$+.",
".++++++++++++@++@++@@+###$+.",
".+%....%++++++@@+@@++@$$$$+.",
".++++++++++++++++++++++++++.",
".++++++++..........++++++++.",
".++++++++++++++++++++++++++.",
".++++++++........++++++++++.",
".++++++++++++++++++++++++++.",
".++++++++...........+++++++.",
".++++++++++++++++++++++++++.",
".++++++++++++++++++++++++++.",
".++++++++++++++++++++++++++.",
"............................"};
