/* XPM */
static char * newmail_offline_xpm[] = {
"16 16 10 1",
" 	c None",
".	c #787878",
"+	c #FFFFFF",
"@	c #FF7878",
"#	c #CDCDCD",
"$	c #000000",
"%	c #DFDFDF",
"&	c #6666CC",
"*	c #BCBCBC",
"=	c #A7A7A7",
"       ..       ",
"      .++.      ",
"     .++@+.     ",
"    .++@@@+.    ",
"   .++++@+++.   ",
"  .+++#+++#++.  ",
" .+++#+++#+++.. ",
"....$$++#+$$....",
".+%$&$$$++$&$*=.",
"$$$&&$#+++$&&$$$",
"&&&&&$$$+%$&&&&&",
"$$$&&$%%%%$&&$$$",
".+%$&$$$**$&$*=.",
".+%#$$****$$**=.",
" .%#**********. ",
"  ............  "};
