/* XPM */
static char * nomail_offline_xpm[] = {
"16 16 10 1",
" 	c None",
".	c #787878",
"+	c #CDCDCD",
"@	c #ECECEC",
"#	c #BCBCBC",
"$	c #DFDFDF",
"%	c #000000",
"&	c #FFFFFF",
"*	c #6666CC",
"=	c #A7A7A7",
"                ",
"                ",
"                ",
"    ........    ",
"   .++@@@@#$.   ",
"  .+#########.  ",
" .+++$$$$$$###. ",
"....%%$$$$%%....",
".&$%*%%%$$%*%#=.",
"%%%**%$$$$%**%%%",
"*****%%%$$%*****",
"%%%**%$$$$%**%%%",
".&$%*%%%##%*%#=.",
".&$+%%####%%##=.",
" .$+##########. ",
"  ............  "};
