/* XPM */
static char * active_xpm[] = {
"12 9 55 1",
" 	c None",
".	c #02270B",
"+	c #044013",
"@	c #064B16",
"#	c #064E17",
"$	c #064F18",
"%	c #065619",
"&	c #07601C",
"*	c #02280C",
"=	c #054414",
"-	c #08681F",
";	c #097422",
">	c #097523",
",	c #097623",
"'	c #097121",
")	c #086F21",
"!	c #054013",
"~	c #08671F",
"{	c #097724",
"]	c #097924",
"^	c #097A24",
"/	c #0A7B25",
"(	c #0A8327",
"_	c #0B8828",
":	c #097322",
"<	c #0F7D29",
"[	c #0E7D28",
"}	c #0C8027",
"|	c #0B912B",
"1	c #0B932C",
"2	c #065419",
"3	c #0D7C27",
"4	c #0C7E27",
"5	c #0B8A2A",
"6	c #0C9D2E",
"7	c #0C9D2F",
"8	c #075F1C",
"9	c #097021",
"0	c #097B25",
"a	c #0A7D25",
"b	c #0A7E25",
"c	c #0C892A",
"d	c #0D9D2F",
"e	c #0DA732",
"f	c #096E20",
"g	c #0A8227",
"h	c #0B8E2A",
"i	c #0B902B",
"j	c #0C932C",
"k	c #0D9E2F",
"l	c #0DA832",
"m	c #0DA531",
"n	c #0B942C",
"o	c #0C962D",
"p	c #0C9E2F",
"            ",
"  .+@##$%&  ",
" *=-;>>,,') ",
" !~{]^^^^/(_",
" @:^^^^<[}|1",
" 2;^^^^34567",
" 890aab}cde ",
"  fghiijklm ",
"   _|1nop   "};
