/* XPM */
static char * address_book_xpm[] = {
"24 24 275 2",
"  	c None",
". 	c #BCBCBC",
"+ 	c #A1A1A1",
"@ 	c #8A8A8A",
"# 	c #777777",
"$ 	c #666666",
"% 	c #575757",
"& 	c #383838",
"* 	c #393939",
"= 	c #2B2B2B",
"- 	c #2E2E2E",
"; 	c #7C7C7C",
"> 	c #737373",
", 	c #BDBDBD",
"' 	c #CBCBCB",
") 	c #CCCCCC",
"! 	c #D5D5D5",
"~ 	c #DCDCDC",
"{ 	c #E3E3E3",
"] 	c #EDEDED",
"^ 	c #EBEBEB",
"/ 	c #F2F2F2",
"( 	c #F9F9F9",
"_ 	c #313131",
": 	c #3E3E3E",
"< 	c #F3F3F3",
"[ 	c #F6F6F6",
"} 	c #F7F7F7",
"| 	c #FBFBFB",
"1 	c #FFFFFF",
"2 	c #D8D8D8",
"3 	c #AFAFAF",
"4 	c #B5B5B5",
"5 	c #E0E0E0",
"6 	c #1C1C1C",
"7 	c #D2D2D2",
"8 	c #EFEFEF",
"9 	c #FEFEFE",
"0 	c #F4F4F4",
"a 	c #E1E1E1",
"b 	c #D7D7D7",
"c 	c #D9D9D9",
"d 	c #D1D1D1",
"e 	c #1D1D1D",
"f 	c #363636",
"g 	c #2C2C2C",
"h 	c #191919",
"i 	c #121212",
"j 	c #151515",
"k 	c #141414",
"l 	c #282828",
"m 	c #1A1A1A",
"n 	c #DEDEDE",
"o 	c #D6D6D6",
"p 	c #E8E8E8",
"q 	c #CACACA",
"r 	c #1E1E1E",
"s 	c #2D2D2D",
"t 	c #BBBBBB",
"u 	c #D0D0D0",
"v 	c #CFCFCF",
"w 	c #B6B6B6",
"x 	c #262626",
"y 	c #C2C2C2",
"z 	c #C7C7C7",
"A 	c #A8A8A8",
"B 	c #E4E4E4",
"C 	c #BEBEBE",
"D 	c #252525",
"E 	c #131313",
"F 	c #979797",
"G 	c #919191",
"H 	c #929292",
"I 	c #939393",
"J 	c #ADADAD",
"K 	c #858585",
"L 	c #FCFCFC",
"M 	c #3A3A3A",
"N 	c #9B9B9B",
"O 	c #969696",
"P 	c #989898",
"Q 	c #868686",
"R 	c #4F4F4F",
"S 	c #070707",
"T 	c #303030",
"U 	c #AAAAAA",
"V 	c #9A9A9A",
"W 	c #9C9C9C",
"X 	c #B0B0B0",
"Y 	c #747474",
"Z 	c #4C4C4C",
"` 	c #4E4E4E",
" .	c #414141",
"..	c #222222",
"+.	c #2F2F2F",
"@.	c #AEAEAE",
"#.	c #959595",
"$.	c #9D9D9D",
"%.	c #A2A2A2",
"&.	c #B9B9B9",
"*.	c #2F3132",
"=.	c #A8B2B7",
"-.	c #9FA9AE",
";.	c #555859",
">.	c #4B4B4B",
",.	c #373737",
"'.	c #424242",
").	c #272727",
"!.	c #292929",
"~.	c #323232",
"{.	c #4A4A4A",
"].	c #5D5D5D",
"^.	c #515353",
"/.	c #A9B4B9",
"(.	c #BFC5C7",
"_.	c #494C4D",
":.	c #1B1C1C",
"<.	c #404040",
"[.	c #3D3D3D",
"}.	c #6D6D6D",
"|.	c #232323",
"1.	c #161616",
"2.	c #000000",
"3.	c #383C3E",
"4.	c #CAD0D4",
"5.	c #565758",
"6.	c #1B0F12",
"7.	c #30141A",
"8.	c #333333",
"9.	c #3F3F3F",
"0.	c #A9A9A9",
"a.	c #E6E6E6",
"b.	c #C6C6C6",
"c.	c #ACACAC",
"d.	c #7A7A7A",
"e.	c #323435",
"f.	c #C6CACD",
"g.	c #373A3B",
"h.	c #311E22",
"i.	c #4D262E",
"j.	c #080808",
"k.	c #DBDBDB",
"l.	c #DADADA",
"m.	c #A0A0A0",
"n.	c #7D7D7D",
"o.	c #3C3C3C",
"p.	c #A6A7A7",
"q.	c #282929",
"r.	c #372125",
"s.	c #502B33",
"t.	c #342025",
"u.	c #808080",
"v.	c #343434",
"w.	c #202020",
"x.	c #0C0C0C",
"y.	c #7E7E7E",
"z.	c #392227",
"A.	c #4E2A32",
"B.	c #301219",
"C.	c #343031",
"D.	c #545454",
"E.	c #D4D4D4",
"F.	c #F1F1F1",
"G.	c #ABABAB",
"H.	c #848484",
"I.	c #583C42",
"J.	c #45252C",
"K.	c #38161D",
"L.	c #1E0C10",
"M.	c #888888",
"N.	c #707070",
"O.	c #525252",
"P.	c #5C5C5C",
"Q.	c #8E8B8B",
"R.	c #D0CDCD",
"S.	c #DDDDDD",
"T.	c #727272",
"U.	c #595959",
"V.	c #C9C9C9",
"W.	c #CECECE",
"X.	c #474747",
"Y.	c #6A5156",
"Z.	c #47222B",
"`.	c #33141B",
" +	c #270F14",
".+	c #272525",
"++	c #170A0E",
"@+	c #100508",
"#+	c #241E20",
"$+	c #544C4E",
"%+	c #462E31",
"&+	c #92787C",
"*+	c #9E898D",
"=+	c #9D9091",
"-+	c #9A9293",
";+	c #6F5056",
">+	c #33141A",
",+	c #38161E",
"'+	c #36161C",
")+	c #231115",
"!+	c #5A5A5A",
"~+	c #342C2E",
"{+	c #2F1019",
"]+	c #3D1C24",
"^+	c #65343C",
"/+	c #5A1620",
"(+	c #2E0A0F",
"_+	c #400F16",
":+	c #7B232F",
"<+	c #7D2B36",
"[+	c #7F343E",
"}+	c #7F3A43",
"|+	c #311A1E",
"1+	c #684E53",
"2+	c #421A23",
"3+	c #31141A",
"4+	c #2A1016",
"5+	c #2F1217",
"6+	c #1E1718",
"7+	c #403538",
"8+	c #A0868D",
"9+	c #A7737D",
"0+	c #99515D",
"a+	c #893844",
"b+	c #7A1E2B",
"c+	c #791C29",
"d+	c #340E14",
"e+	c #7C5E65",
"f+	c #34151B",
"g+	c #32141A",
"h+	c #250E13",
"i+	c #220C10",
"j+	c #1F1F1F",
"k+	c #373535",
"l+	c #85797C",
"m+	c #897378",
"n+	c #B58D96",
"o+	c #BF8F9A",
"p+	c #B17983",
"q+	c #8B3B47",
"r+	c #3E161D",
"s+	c #66444C",
"t+	c #35151C",
"u+	c #2D1217",
"v+	c #210C11",
"w+	c #120609",
"x+	c #1F1617",
"y+	c #515151",
"z+	c #484848",
"A+	c #2F2E2E",
"B+	c #292626",
"C+	c #8B7278",
"D+	c #AA8D95",
"E+	c #995E68",
"F+	c #832E3B",
"G+	c #531F28",
"H+	c #673C45",
"I+	c #3F1921",
"J+	c #240E12",
"K+	c #1A1012",
"L+	c #514B4C",
"M+	c #3B3B3B",
"N+	c #302E2F",
"O+	c #221B1D",
"P+	c #201214",
"Q+	c #6B1824",
"R+	c #66232E",
"S+	c #472229",
"T+	c #1B0A0E",
"U+	c #282223",
"V+	c #6B6868",
"W+	c #676767",
"X+	c #262424",
"Y+	c #21191B",
"Z+	c #231D1E",
"            . + @ # $ % & * = - - - ;           ",
"          > , ' ) ! ~ { ] ] ^ / ( ^ _           ",
"          : < [ } | 1 1 1 2 3 4 ] 5 6           ",
"          6 ^ 7 7 / 8 9 0 a b c 8 d e           ",
"; f g h h i j k i l m ) 0 n o ' p q r           ",
"s t u v v v v v v ! w x y z A A B C D           ",
"  E + F G G H H H I J K D ] | L L C D           ",
"    M A N O F F F P P J Q R } 1 1 3 S x x x h * ",
"      T U V N N N W W W X Q l 1 1 Y Z ` `  .r ..",
"        +.@.G I #.$.$.+ %.&.; *.=.-.;.>.,.'.D   ",
"          h ).!.= ~.~.{.R ].^./.(._.:.<.[.l     ",
"        !.}.* |.1.2.2.2.2.2.3.4.5.6.7.8.).      ",
"      9.0.a.b.t c.H #.d.9.h e.f.g.h.i.j.        ",
"    ,.y 1 1 1 k.l.t m.m.+ n.o.p.q.r.s.t.u.      ",
"  v.' 1 1 1 1 1 1 1 k.. @ w.x.y.R z.A.B.C.      ",
"  +.D.U E.F.( L 1 1 1 o }.u.G.D.H.I.J.K.L.M.    ",
"      N.O.P.Q.R.S.0 a.T.U.y V.W.X.Y.Z.`. +.+    ",
"          ; ++@+@+#+$+%+&+*+=+-+: ;+>+,+'+)+!+  ",
"          ~+{+]+^+/+(+_+:+<+[+}+|+1+2+3+4+5+6+  ",
"          7+8+9+0+a+b+c+c+c+c+c+d+e+K.f+g+h+i+j+",
"          1.k+l+m+n+o+p+q+c+c+c+r+s+t+u+v+w+x+  ",
"            ; y+z+A+B+C+D+E+F+c+G+H+I+J+K+L+    ",
"                    ; M+N+O+P+Q+R+S+T+U+V+      ",
"                            W+X+Y+Z+;           "};
