/* XPM */
static char * checkbox_off_xpm[] = {
"15 15 6 1",
" 	c None",
".	c #9D9D9D",
"+	c #E0E0E0",
"@	c #DADADA",
"#	c #F4F4F4",
"$	c #FFFFFF",
"               ",
"  ...........  ",
" .++++++++++@. ",
" .+#########$. ",
" .+#########$. ",
" .+#########$. ",
" .+#########$. ",
" .+#########$. ",
" .+#########$. ",
" .+#########$. ",
" .+#########$. ",
" .+#########$. ",
" .@$$$$$$$$$$. ",
"  ...........  ",
"               "};
