/* XPM */
static const char *claws_mail_icon_64_xpm[] = {
/* columns rows colors chars-per-pixel */
"64 64 242 2 ",
"   c #010101",
".  c #090B09",
"X  c #16191A",
"o  c #11170B",
"O  c #182115",
"+  c #232917",
"@  c #2A341C",
"#  c #2F3713",
"$  c #091B2D",
"%  c #172429",
"&  c #172B36",
"*  c #0B2337",
"=  c #232324",
"-  c #292B29",
";  c #2A3926",
":  c #373736",
">  c #2E342D",
",  c #201C1F",
"<  c #443F35",
"1  c #39461B",
"2  c #35480C",
"3  c #3A4827",
"4  c #384D3A",
"5  c #475A1D",
"6  c #5B771A",
"7  c #4D6616",
"8  c #444A27",
"9  c #495926",
"0  c #494E32",
"q  c #6C5A37",
"w  c #4E6122",
"e  c #556A27",
"r  c #5C7525",
"t  c #576935",
"y  c #556937",
"u  c #627C28",
"i  c #647934",
"p  c #79673E",
"a  c #627F1B",
"s  c #032547",
"d  c #1B3749",
"f  c #012D57",
"g  c #0B3258",
"h  c #173958",
"j  c #162F44",
"k  c #303C43",
"l  c #013465",
"z  c #013568",
"x  c #0C3C6A",
"c  c #0E3F70",
"v  c #374B54",
"b  c #344D4E",
"n  c #184875",
"m  c #19496E",
"M  c #345765",
"N  c #285072",
"B  c #3B6577",
"V  c #484847",
"C  c #575755",
"Z  c #4D564D",
"A  c #645D48",
"S  c #556B47",
"D  c #776848",
"F  c #6D6F4E",
"G  c #475E65",
"H  c #536E74",
"J  c #6A6968",
"K  c #6A757D",
"L  c #757574",
"P  c #7A7B7B",
"I  c #696D70",
"U  c #D74C3B",
"Y  c #867758",
"T  c #8F794B",
"R  c #837C6E",
"E  c #D8675B",
"W  c #DA3524",
"Q  c #66881A",
"!  c #6C9314",
"~  c #719B14",
"^  c #658324",
"/  c #6A8827",
"(  c #759629",
")  c #6E8638",
"_  c #748E38",
"`  c #7A9737",
"'  c #6F9120",
"]  c #79A122",
"[  c #7B9442",
"{  c #728745",
"}  c #809F3B",
"|  c #85A738",
" . c #92B63E",
".. c #85B519",
"X. c #829C46",
"o. c #9C8657",
"O. c #97804D",
"+. c #8CAA45",
"@. c #97B947",
"#. c #908772",
"$. c #AB966A",
"%. c #B2965D",
"&. c #C5AC78",
"*. c #C6AC75",
"=. c #CD8377",
"-. c #9CC246",
";. c #A2C64F",
":. c #1A5684",
">. c #315B83",
",. c #396788",
"<. c #2A6A93",
"1. c #3176A0",
"2. c #487487",
"3. c #4A7594",
"4. c #577A9B",
"5. c #4F738A",
"6. c #727C84",
"7. c #6C7B85",
"8. c #447EA4",
"9. c #3C84AC",
"0. c #558398",
"q. c #558590",
"w. c #658B9B",
"e. c #788791",
"r. c #578CA4",
"t. c #5A94A9",
"y. c #599AB6",
"u. c #4A8EAE",
"i. c #6888A4",
"p. c #7692AC",
"a. c #6B99AE",
"s. c #5EA1BC",
"d. c #6FA4BA",
"f. c #519FC4",
"g. c #5BA9CA",
"h. c #5DB0D3",
"j. c #66ABC9",
"k. c #6BB1CE",
"l. c #79B4CD",
"z. c #66B4D5",
"x. c #72B6D2",
"c. c #7CBBD6",
"v. c #77BBD7",
"b. c #74ACC4",
"n. c #78C1DF",
"m. c #77C1E0",
"M. c #838383",
"N. c #8D8D8C",
"B. c #898888",
"V. c #93918D",
"C. c #949393",
"Z. c #9C9C9B",
"A. c #9A9796",
"S. c #898F94",
"D. c #A19D9C",
"F. c #A1A09E",
"G. c #B6A78A",
"H. c #839BB4",
"J. c #889DB0",
"K. c #8E9CA4",
"L. c #9BA6AC",
"P. c #8BA3BA",
"I. c #97A9BA",
"U. c #8DA1A9",
"Y. c #A4A3A3",
"T. c #AAAAA9",
"R. c #ABA8A7",
"E. c #B5B4B4",
"W. c #BDBBBA",
"Q. c #BCB7B5",
"!. c #AAB1B5",
"~. c #D59A90",
"^. c #CDB683",
"/. c #D4BC88",
"(. c #C6B493",
"). c #C3BDBC",
"_. c #CABFBA",
"`. c #E4AA9E",
"'. c #DCCAA5",
"]. c #C6C1BF",
"[. c #DFCDA8",
"{. c #98ACC1",
"}. c #82BED7",
"|. c #94B6CB",
" X c #A1B3C6",
".X c #ABBCCC",
"XX c #A7B8C8",
"oX c #B1BFCE",
"OX c #8AC3DB",
"+X c #85C1DA",
"@X c #97C7DC",
"#X c #B5C1CB",
"$X c #B5C4D2",
"%X c #BBC9D6",
"&X c #ADC8D7",
"*X c #9ECEE2",
"=X c #AAD3E4",
"-X c #BBDCEA",
";X c #B5D7E6",
":X c #A3CEE1",
">X c #C4C2C2",
",X c #CAC5C3",
"<X c #CCC8C7",
"1X c #CDCBCA",
"2X c #D2CDCB",
"3X c #D4D0CF",
"4X c #C1CED9",
"5X c #C1CCD7",
"6X c #CAD4DE",
"7X c #C7D1DC",
"8X c #D5D3D2",
"9X c #D9D5D4",
"0X c #DBD8D7",
"qX c #DDDBDA",
"wX c #E1DEDC",
"eX c #F2DED4",
"rX c #E3E0DF",
"tX c #EFE6D2",
"yX c #F2E6D7",
"uX c #ECE2CB",
"iX c #C9DAE4",
"pX c #D4DCE4",
"aX c #D8DFE6",
"sX c #C8E2ED",
"dX c #DAE3E9",
"fX c #DDECF3",
"gX c #E5E3E2",
"hX c #E8E6E4",
"jX c #EAE9E7",
"kX c #EDECEA",
"lX c #E4EBEF",
"zX c #F0EFED",
"xX c #F3EDE1",
"cX c #F3F1EE",
"vX c #FBF6EB",
"bX c #E5EDF2",
"nX c #EAF3F7",
"mX c #F4F4F2",
"MX c #F9F9F7",
"NX c #FEFEFC",
"BX c #F3F7F8",
"VX c None",
/* pixels */
"VXVXVXVXVXVXVXVXVXVXVXVXVXVXVXVXVXVXVXVXVXVXVXVXVXVXVXVXVXVXVXVXVXVXVXVXVXVXVXVXVXVXVXVXVXVXVXVXVXVXVXVXVXVXVXVXVXVXVXVXVXVXVXVX",
"VXVXVXVXVXVXVXVXVXVXVXVXVXVXVXVXVXVXVXVXVXVXVXVXVXVXVXVXVXVXVXVXVXVXVXVXVXVXVXVXVXVXVXVXVXVXVXVXVXVXVXVXVXVXVXVXVXVXVXVXVXVXVXVX",
"VXVXVXVXVXVXVXVXVXVXVXVXVXVXVXVXVXVXVXVXVXVXVXVXVXVXVXVXVXVXVXVXVXVXVXVXVXVXVXVXVXVXVXVXVXVXVXVXVXVXVXVXVXVXVXVXVXVXVXVXVXVXVXVX",
"VXVXVXVXVXVXVXVXVXVXVXVXVXVXVXVXVXVXVXVXVXVXVXVXVXVXVXVXVXM M B M VXVXVXVXVXVXVXVXVXVXVXVXVXVXVXVXVXVXVXVXVXVXVXVXVXVXVXVXVXVXVX",
"VXVXVXVXVXVXVXVXVXVXVXVXVXVXVXVXVXVXVXVXVXVXVXVX,.r.b.OX:X;X-X-X;X=X@X}.y.2.VXVXVXVXVXVXVXVXVXVXVXVXVXVXVXVXVXVXVXVXVXVXVXVXVXVX",
"VXVXVXVXVXVXVXVXVXVXVXVXVXVXVXVXVXVXVXVXVXh y.OX-XsXbXbXnXBXnXBXBXBXnXnXbXsX*Xb.2.VXVXVXVXVXVXVXVXVXVXVXVXVXVXVXVXVXVXVXVXVXVXVX",
"VXVXVXVXVXVXVXVXVXVXVXVXVXVXVXVXVXVXVXg ,.@XiXdXdXdXdXhXbXbXbXfXbXnXnXnXbXnXnXfX;Xl.2.VXVXVXVXVXVXVXVXVXVXVXVXVXVXVXVXVXVXVXVXVX",
"VXVXVXVXVXVXVXVXVXVXVXVXVXVXVXVXVXVX3.|.pXaXpXpXdXpXaXpXdXpXpXdXaXaXdXaXaXaXdXfXbXfX;Xb.M VXVXVXVXVXVXVXVXVXVXVXVXVXVXVXVXVXVXVX",
"VXVXVXVXVXVXVXVXVXVXVXVXVXVXVXVXm p.XX7XiXiX6X6X6X6X6XpX0X6X6XpXiXiXpXpXpXpX6XpXpXaXfXiX@X0.VXVXVXVXVXVXVXVXVXVXVXVXVXVXVXVXVXVX",
"VXVXVXVXVXVXVXVXVXVXVXVXVXVXVXg 4.oX%X4X4X%X4X4X4X4X4X6X4X5XoX4XB.%X7X4X7X7X7X7X4X7X7XiX4X|.0.VXVXVXVXVXVXVXVXVXVXVXVXVXVXVXVXVX",
"VXVXVXVXVXVXVXVXVXVXVXVXVXVXg i..X$X$XoXoX$X$X$XoX%XoXoXL.S.6.oX= S.4X5X%XI.B.XX5X5X5X5X4X%XJ.4.& VXVXVXVXVXVXVXVXVXVXVXVXVXVXVX",
"VXVXVXVXVXVXVXVXVXVXVXVXVXg p..X.X.X.X.X.X.X.X.XoXoXoXXXH - 6.I.= X C.L.I , 6.K I.%X$X%X%X$X$X&Xt.VXVXVXVXVXVXVXVXVXVXVXVXVXVXVX",
"VXVXVXVXVXVXVXVXVXVXVXVXg 4. X X X X X X X X XXX XXX{. Xe.X B.e.%   X C   o X H $X7X%XiX.X$X-XsX;X4.VXVXVXVXVXVXVXVXVXVXVXVXVXVX",
"VXVXVXVXVXVXVXVXVXVXVXs 4.P.{.{.{.{.{.{.{.{.{.{.{.{.J.6.k % I 7.X           o K.iXsXsX$XXX$XsXsXiX*X,.VXVXVXVXVXVXVXVXVXVXVXVXVX",
"VXVXVXVXVXVXVXVXVXVXVXN H.J.P.P.P.P.P.P.P.P.{.{.I.J.k .   X % - . # # o     - e.K.U.sX&X XXXiX-X-X-X}.j VXVXVXVXVXVXVXVXVXVXVXVX",
"VXVXVXVXVXVXVXVXVXVXg i.H.H.H.H.H.H.H.H.H.H.H.4.4.5.>.d         Q ..! Q 7 o   . > e.:X;X X&X-X-X-XiX;X0.VXVXVXVXVXVXVXVXVXVXVXVX",
"VXVXVXVXVXVXVXVXVX$ >.p.p.p.H.p.p.p.p.i.4.,.m n m n m N d .   2 ] ~ ! ! ! 7 o . 7.&X&X;X;X-X-X-X-X;X;XOXG VXVXVXVXVXVXVXVXVXVXVX",
"VXVXVXVXVXVXVXVXVXg 4.i.p.i.i.i.4.4.>.h h b 4 S S { S t y 0 7 _ ( ' ^ Q Q 7 2 o X G v @X*X;X;X;X;X;X;X=Xd.VXVXVXVXVXVXVXVXVXVXVX",
"VXVXVXVXVXVXVXVXVX>.4.4.4.4.4.4.>.k 4 [ [ | ` ` ` _ i ^ r / ( ` ' Q Q Q Q 5 5 @ w.v & }.OXOX@X=X=X=X=X=XOXM VXVXVXVXVXVXVXVXVXVX",
"VXVXVXVXVXVXVXVXs ,.4.4.4.4.>.x % F  .| ] ( ` ' w w 9 9 i ^ Q / Q e Q ! ( r i ^ S d.+XOXOXOX+X+X*X=X:X:X@Xr.VXVXVXVXVXVXVXVXVXVX",
"VXVXVXVXVXVXVXVXx 2.3.4.>.c f Z (.- e ! Q Q e 9 3 9 ) +.^ Q ^ ^ w 5 6 ! | _ / ( } y i.OXOXOX+X}.c.}.@X:X@Xl.VXVXVXVXVXVXVXVXVXVX",
"VXVXVXVXVXVXVXVXc 2.>.n z l k yX/.D 3 e w 8 + % O i @.[ ) ^ ^ 9 1 1 6 ' | _ ^ u / ` F d.OXOXOX}.}.c.}.}.@X}.M VXVXVXVXVXVXVXVXVX",
"VXVXVXVXVXVXVX* n >.c l z l #.uX^.< @ 3 1 ; * & ) @.` r r w 9 8 # 5 6 ( +.i w 6 e [ ;.S d.OX+X}.}.n.c.v.l.}.q.VXVXVXVXVXVXVXVXVX",
"VXVXVXVXVXVXVXs n x l z z f (.[.A $ X + + * ; | [ _ ( u w 9 #   % 1 7 _ [ r + 9 e 6  .@.S b.+X}.c.c.c.v.x.x.t.VXVXVXVXVXVXVXVXVX",
"VXVXVXVXVXVXVXf z l l z l l R /.* s s s $ 3 _ ` / 6 t 1 1 @ X = G 7 e ` +._ & : 3 7 6 ( ;.y a.}.}.c.c.v.x.x.d.VXVXVXVXVXVXVXVXVX",
"VXVXVXVXVXVXVXf z z l l l l : /.& s s & t ` ^ 6 ^ e @ j d d m 5.4 5 e Q ;.@.H w.4 3 7 ' ( | t d.c.c.v.x.x.x.j.VXVXVXVXVXVXVXVXVX",
"VXVXVXVXVXVXVXn z l l z l l s A Y $ ; ` _ ' / u w 0 & h h m M r.0 w 6 Q +.[ H t.q.- 2 e u /  .S a.c.v.x.x.k.k.VXVXVXVXVXVXVXVXVX",
"VXVXVXVXVXVXVXN :.l z z l f s s 0 i  .` u r r w @ % h h h h ,.l.b 6 r ^ | +.H w.0.H : 5 u ^ } _ y l.v.x.x.x.k.VXVXVXVXVXVXVXVXVX",
"VXVXVXVXVXVXVXz f.<.z z z l s 3 _ } u r w w e @ s h h h h 3.n.n.3 5 Q ' -.y w.a.t.0.G 9 w ^ ~ ` { t.l.x.x.k.k.VXVXVXVXVXVXVXVXVX",
"VXVXVXVXVXVXVXf :.h.f.z l l & e 8 ; w 5 8 9 5 3 g g h 9.j.m.n.G w e ^ ! _ [ H U.L H G 5 w 6 / _ ) 5.v.x.k.k.j.VXVXVXVXVXVXVXVXVX",
"VXVXVXVXVXVXVXf <.h.h.1.l z s < q 0 , 8 8 # 8 % m ,.k.m.m.m.t.9 9 6 ! ' +.t V.E.W.K v 2 3 9 ^ / [ 0.x.x.k.k.j.VXVXVXVXVXVXVXVXVX",
"VXVXVXVXVXVXVXh f.h.z.h.z z l R vX*.p o 1 # 1 * B g.m.v.z.l.G 1 9 r t i { r E.E.NXZ.M 3 2 3 _ +.[ { x.k.k.k.y.VXVXVXVXVXVXVXVXVX",
"VXVXVXVXVXVXVXh f.z.z.z.:.z :.O.cX&.*.X ; ; O f m y.P.I.!.].S 9 r r u } +.A D.MXNX0X5.% 3 w o + 0 r.x.k.k.k.0.VXVXVXVXVXVXVXVXVX",
"VXVXVXVXVXVXVXVXf.h.h.h.9.z N D yX&.&.% % & v K E.#X>X1X3X3XC : X X @ . i C rXNXNXMXH H > 8 G.uXo.r.k.k.k.j.B VXVXVXVXVXVXVXVXVX",
"VXVXVXVXVXVXVXVX<.h.g.g.h.:.m V [.'.^.C M.N.V.E.1X3X9XqXqXaXP - > %.[.q = Z.mXNXNXNXK 0.B o.yX'.o.r.j.j.j.s.VXVXVXVXVXVXVXVXVXVX",
"VXVXVXVXVXVXVXVXN f.g.g.g.j.w.H T tX&.Y M.C.Z.9XqX0XwXN.qXkXE.A %./.yXp L W.mXNXMXvXe.2.Z /.xX&.A y.s.j.g.t.VXVXVXVXVXVXVXVXVXVX",
"VXVXVXVXVXVXVXVX& y.d.!.W.<XW.N.C $.[./.Y J B.A.#.A <XD R.mXL T *.uX$.C E.Z.D B.).8XB.Z &.uX/.o.M s.s.s.s.B VXVXVXVXVXVXVXVXVXVX",
"VXVXVXVXVXVXVXVXVX,. XpX#X3X1XL.F.I Y ^./././.*.T T.rXO.D R T *.[.G.V T.E.mX#.o.$.$.&./.'.*.T b 2.y.y.y.u.VXVXVXVXVXVXVXVXVXVXVX",
"VXVXVXVXVXVXVXVXVXd a.MXkXQ.E.T.R.T.D.N.#.#.#.V.9XNXmXD *.*.^./.$.V D.E.9XmXzXF.Y T o.o.F 0 M B B r.u.r.B VXVXVXVXVXVXVXVXVXVXVX",
"VXVXVXVXVXVXVXVXVXVXH xXNXNXqXN.P Y.E.,XNXNXNXNXNXNXNXT.Y o.o.F C A.E.,XcXkXzXxXhX9X1XM.6.6.K P S.L.L.L.Z.Y.R.L.VXVXVXVXVXVXVXVX",
"VXVXVXVXVXVXVXVXVXVX% 8XNXNXNXNXT.I P C.>XdXgXqX1X<XlXW.nXgXE.J Z.T.Q.jXcX<XE.<X9X0X<XM.Z.Q.E.W.BXNXNXxXeXyXeXMXJ VXVXVXVXVXVXVX",
"VXVXVXVXVXVXVXVXVXVXVXL.NXNXNXNXMX8XC.L L N.E.E.W.mXgXQ.1X>XJ Z.R.E.wXzXzXrXE.F.F.D.D.A.L E.W.kXNXNXNXE U W U cXJ VXVXVXVXVXVXVX",
"VXVXVXVXVXVXVXVXVXVXVXI NXNXNXNXNXNXmX8XY.N.P Z.kXNXcXQ.E.I C.F.E.qXkXkXhXrXwX).R.D.A.A.I 0XMXNXNXNXNX`._.`.E vXJ VXVXVXVXVXVXVX",
"VXVXVXVXVXVXVXVXVXVXVXVXkXNXNXNXNXNXNXNXNXnX9X1XF.Y.dXdXP N.F.W.0XgXrXgXrXwXwX0X9X2X<X<XB.MXNXNXNXNXNXE <X<XE cXC VXVXVXVXVXVXVX",
"VXVXVXVXVXVXVXVXVXVXVXVX3XNXNXNXNXNXNXNXNXNXNXjXqX0XT.S.E.8XrXgXwXqXqX0X0X9X0X9X3X2X2X<XA.0XNXNXNXNXkXE U =.U vXC VXVXVXVXVXVXVX",
"VXVXVXVXVXVXVXVXVXVXVXVXT.NXNXNXNXNXNXNXNXNXMXmXcXgXqXqXwXrXrXqXqXqX9X3X3X3X1X3X2X2X,X].).D.NXNXNXNXMX(.=.~.`.MXC VXVXVXVXVXVXVX",
"VXVXVXVXVXVXVXVXVXVXVXVXI NXNXNXNXNXNXNXNXMXmXcXkXkXjXwXwXrXqXqX0X9X3X3X1X1X<X].].].]._.).M.NXNXNXNXNXBXMXmXBXmXC VXVXVXVXVXVXVX",
"VXVXVXVXVXVXVXVXVXVXVXVXVXjXNXNXNXNXNXNXNXmXzXkXjXjXgXrXwXqX0X9X8X3X3X<X<X].].].).).).Q.Q.L MXNXMXMXMXmXmXmXcXmXC VXVXVXVXVXVXVX",
"VXVXVXVXVXVXVXVXVXVXVXVXVX1XNXNXNXNXNXNXmXkXkXhXgXgXwXqXqX0X9X3X2X2X<X,X].).W.).Q.).Q.D.L J cXMXmXmXmXzXzXkXkXkXV VXVXVXVXVXVXVX",
"VXVXVXVXVXVXVXVXVXVXVXVXVXF.NXNXNXNXMXMXkXjXhXgXwXwXqXqX8X3X2X2X<X,X,X].).).).Y.R L L N.E.).gXcXcXzXzXkXjXjXhXgXV VXVXVXVXVXVXVX",
"VXVXVXVXVXVXVXVXVXVXVXVXVXJ NXNXMXMXMXjXhXgXgXqXqXqX9X8X3X3X<X,X,X,X).R.M.I C J B.A.Y.).).gXzXzXkXjXhXhXgXrXeXwXV VXVXVXVXVXVXVX",
"VXVXVXVXVXVXVXVXVXVXVXVXVXVXgXNXMXmXkXhXgXwXqXqX9X8X8X2X2X<X,XE.B.P M.A.).2X>XQ.W.2X0X9XkXkXjXhXhXgXgXrXwXwXwXwX< VXVXVXVXVXVXVX",
"VXVXVXVXVXVXVXVXVXVXVXVXVXVXW.BXzXzXgXwXwXqXqX0X8X3X2XQ.V.B.B.N.D.A.A.R.).9XwX9X1X1X,XqXhXhXgXgXrXrXwXwX9X9X9X9Xk VXVXVXVXVXVXVX",
"VXVXVXVXVXVXVXVXVXVXVXVXVXVXC.cXzXgXwXwXqX9X9X).A.V.B.L.].2X9XqXhXkXzXzXzXkXkXjXjXhXhXgXwXwXwXwXwXwXwX9X9X3X3X3X< VXVXVXVXVXVXVX",
"VXVXVXVXVXVXVXVXVXVXVXVXVXVXC zXhXwXqX>XD.P V X L 1X9XwXjXkXmXmXzXzXzXkXkXkXhXhXrXrXwXwXwXwX9XwX3X9X3X3X2X2X2X<X: VXVXVXVXVXVXVX",
"VXVXVXVXVXVXVXVXVXVXVXVXVXVXVXW.Y.M.Z = VXVXVXVXC.mXmXmXmXcXzXkXkXkXjXhXgXgXgXrXwXwXwXqXwX9X3X3X3X2X2X2X2X<X,X,X> VXVXVXVXVXVXVX",
"VXVXVXVXVXVXVXVXVXVXVXVXVXVXVXVXVXVXVXVXVXVXVXVXA.mXzXzXzXkXkXjXhXhXrXrXrXwXwXwX0X0X9X9X8X3X3X2X2X<X<X,X,X,X_.).- VXVXVXVXVXVXVX",
"VXVXVXVXVXVXVXVXVXVXVXVXVXVXVXVXVXVXVXVXVXVXVXVXC.zXkXjXhXhXhXgXrXrXwXwXwX0X9X3X9X3X3X2X2X2X<X<X,X,X,X).).).).).- VXVXVXVXVXVXVX",
"VXVXVXVXVXVXVXVXVXVXVXVXVXVXVXVXVXVXVXVXVXVXVXVXN.jXgXgXgXrXrXwXwXwX0X3X9X9X3X3X2X2X2X2X,X_.,X]._.]._.).).Q.Q.Q., VXVXVXVXVXVXVX",
"VXVXVXVXVXVXVXVXVXVXVXVXVXVXVXVXVXVXVXVXVXVXVXVXVXC C C C V Z V V V V V V V : < < : : : : : : - - - - - = = = , VXVXVXVXVXVXVXVX",
"VXVXVXVXVXVXVXVXVXVXVXVXVXVXVXVXVXVXVXVXVXVXVXVXVXVXVXVXVXVXVXVXVXVXVXVXVXVXVXVXVXVXVXVXVXVXVXVXVXVXVXVXVXVXVXVXVXVXVXVXVXVXVXVX",
"VXVXVXVXVXVXVXVXVXVXVXVXVXVXVXVXVXVXVXVXVXVXVXVXVXVXVXVXVXVXVXVXVXVXVXVXVXVXVXVXVXVXVXVXVXVXVXVXVXVXVXVXVXVXVXVXVXVXVXVXVXVXVXVX",
"VXVXVXVXVXVXVXVXVXVXVXVXVXVXVXVXVXVXVXVXVXVXVXVXVXVXVXVXVXVXVXVXVXVXVXVXVXVXVXVXVXVXVXVXVXVXVXVXVXVXVXVXVXVXVXVXVXVXVXVXVXVXVXVX",
"VXVXVXVXVXVXVXVXVXVXVXVXVXVXVXVXVXVXVXVXVXVXVXVXVXVXVXVXVXVXVXVXVXVXVXVXVXVXVXVXVXVXVXVXVXVXVXVXVXVXVXVXVXVXVXVXVXVXVXVXVXVXVXVX"
};
