/* XPM */
static char *close_xpm[] = {
/* columns rows colors chars-per-pixel */
"16 16 65 1",
"  c #42403E",
". c #2A0D07",
"X c #2F1813",
"o c #D8705B",
"O c #DD8D7D",
"+ c #3A3534",
"@ c #4C160D",
"# c #C13B22",
"$ c #BE3B22",
"% c #BD3B22",
"& c #BA3A22",
"* c #AF3720",
"= c #B63922",
"- c #B23821",
"; c #982F1D",
": c #B93B24",
"> c #BD3D25",
", c #922E1D",
"< c #96311E",
"1 c #BE3F28",
"2 c #B63D26",
"3 c #C24129",
"4 c #B83E27",
"5 c #A23824",
"6 c #411710",
"7 c #C84E37",
"8 c #C34C36",
"9 c #C54D37",
"0 c #CE523A",
"q c #AD4632",
"w c #3B1711",
"e c #1B0B08",
"r c #3C1812",
"t c #CD5B45",
"y c #2A130F",
"u c #D16551",
"i c #B45B4A",
"p c #3E201B",
"a c #C66E5D",
"s c #CD7767",
"d c #341E1A",
"f c #392420",
"g c #4E342F",
"h c #822617",
"j c #4D1C14",
"k c #5A231A",
"l c #382826",
"z c #2B2929",
"x c gray100",
"c c #F8F8F8",
"v c #F4F4F4",
"b c #E4E4E4",
"n c #D2D2D2",
"m c gray80",
"M c #BCBCBC",
"N c #B9B9B9",
"B c #B2B2B2",
"V c #AAAAAA",
"C c #9A9A9A",
"Z c #929292",
"A c #8D8D8D",
"S c gray51",
"D c gray47",
"F c #1D1D1D",
"G c None",
/* pixels */
"GGGGGGGGGGGGGGGG",
"GZppSGGGGGGVzznG",
"GgOtjSGGGGMXaqzG",
"Ggut9jCGGBdo3;lG",
"G 8#$8kCceo:,@mG",
"GVX8$$-wFa4h.MGG",
"GGAy8%&=i0;.mGGG",
"GGGVr8&&7=.DGGGG",
"GGGGD@u>&&=yBGGG",
"GGGCes12=%%*XMGG",
"GGAps1,zw8$$=dBG",
"GDks&<ycC68$#5zG",
"Gfs><ybGGZj9#*fG",
"G+,<emGGGGDj75lG",
"GnpXBGGGGGGSdXZG",
"GGGGGGGGGGGGGGGG"
};
