/* XPM */
static char * close_xpm[] = {
"16 16 55 1",
" 	c None",
".	c #929292",
"+	c #262626",
"@	c #828282",
"#	c #AAAAAA",
"$	c #292929",
"%	c #D2D2D2",
"&	c #393939",
"*	c #9D9D9D",
"=	c #727272",
"-	c #BCBCBC",
";	c #1D1D1D",
">	c #7F7F7F",
",	c #5A5A5A",
"'	c #7B7B7B",
")	c #656565",
"!	c #9A9A9A",
"~	c #B2B2B2",
"{	c #222222",
"]	c #858585",
"^	c #5B5B5B",
"/	c #444444",
"(	c #2B2B2B",
"_	c #404040",
":	c #646464",
"<	c #565656",
"[	c #555555",
"}	c #2E2E2E",
"|	c #F8F8F8",
"1	c #0E0E0E",
"2	c #545454",
"3	c #424242",
"4	c #212121",
"5	c #CCCCCC",
"6	c #505050",
"7	c #1E1E1E",
"8	c #383838",
"9	c #131313",
"0	c #8D8D8D",
"a	c #181818",
"b	c #535353",
"c	c #525252",
"d	c #6D6D6D",
"e	c #6B6B6B",
"f	c #1F1F1F",
"g	c #666666",
"h	c #787878",
"i	c #888888",
"j	c #585858",
"k	c #4F4F4F",
"l	c #454545",
"m	c #4D4D4D",
"n	c #282828",
"o	c #E4E4E4",
"p	c #363636",
"                ",
" .++@      #$$% ",
" &*=+@    -;>,$ ",
" &'=)+!  ~{]^/( ",
" _:<[:}!|1]2345 ",
" #;:[[67;><89-  ",
"  0a:[bcde/95   ",
"   #f:bbgc9h    ",
"    h4'<bbca~   ",
"   !1ij[c[[k;-  ",
"  0+ij3$7:[[c{~ ",
" h}ibla|!f:[<m$ ",
" ni<lao  .+)<kn ",
" p3l15    h+gm( ",
" %+;~      @{;. ",
"                "};
