/* XPM */
static char * delete_dup_xpm[] = {
"24 24 167 2",
"  	c None",
". 	c #CAAC82",
"+ 	c #A46B15",
"@ 	c #985801",
"# 	c #C6A473",
"$ 	c #CAAC83",
"% 	c #A86B0C",
"& 	c #CD9C4D",
"* 	c #E6B363",
"= 	c #995D08",
"- 	c #9E620A",
"; 	c #D6A252",
"> 	c #945C03",
", 	c #C88D2E",
"' 	c #9D732E",
") 	c #C5A577",
"! 	c #B5791A",
"~ 	c #DE9A33",
"{ 	c #CF891C",
"] 	c #885D15",
"^ 	c #E2CD35",
"/ 	c #E6DA81",
"( 	c #A27416",
"_ 	c #C47C08",
": 	c #CC7D00",
"< 	c #906015",
"[ 	c #B39A78",
"} 	c #000000",
"| 	c #DBC100",
"1 	c #E8D527",
"2 	c #DAC100",
"3 	c #D6AC00",
"4 	c #A87409",
"5 	c #987644",
"6 	c #535353",
"7 	c #FFFFFF",
"8 	c #FEFEFE",
"9 	c #ACACAC",
"0 	c #C3ADAC",
"a 	c #9E7A98",
"b 	c #BB9D8A",
"c 	c #DFCB79",
"d 	c #E6D126",
"e 	c #CCB101",
"f 	c #D7C66D",
"g 	c #EEEEEE",
"h 	c #4F4F4F",
"i 	c #F5F5F5",
"j 	c #F4F4F4",
"k 	c #F3F3F3",
"l 	c #F2F2F2",
"m 	c #F1F1F1",
"n 	c #E5D14C",
"o 	c #DCC509",
"p 	c #CBB15D",
"q 	c #A38289",
"r 	c #7B5082",
"s 	c #8D6568",
"t 	c #C5A827",
"u 	c #C2A400",
"v 	c #D8C77D",
"w 	c #E4E4E4",
"x 	c #434343",
"y 	c #FDFDFD",
"z 	c #E2CD29",
"A 	c #FFF27F",
"B 	c #FFF17B",
"C 	c #FAE85B",
"D 	c #DAC14B",
"E 	c #855D59",
"F 	c #60316C",
"G 	c #B99F67",
"H 	c #FBFBFB",
"I 	c #F0F0F0",
"J 	c #E2CD27",
"K 	c #ECDB35",
"L 	c #FBEB6A",
"M 	c #FDF078",
"N 	c #FBEA5F",
"O 	c #EFD832",
"P 	c #F2DC23",
"Q 	c #EDD406",
"R 	c #B1910A",
"S 	c #C8C8C8",
"T 	c #D3D3D3",
"U 	c #525252",
"V 	c #F8F8F8",
"W 	c #E2CF31",
"X 	c #EBD830",
"Y 	c #F8E85F",
"Z 	c #F1DC46",
"` 	c #FBEB61",
" .	c #F5E240",
"..	c #E6CB12",
"+.	c #EDD507",
"@.	c #E9CD00",
"#.	c #BD9C05",
"$.	c #BABABA",
"%.	c #494949",
"&.	c #3E3E3E",
"*.	c #E3D03C",
"=.	c #E9D528",
"-.	c #F5E553",
";.	c #E0C70A",
">.	c #FBEA61",
",.	c #F6E443",
"'.	c #E6CB13",
").	c #E5C700",
"!.	c #E1C500",
"~.	c #B89605",
"{.	c #414141",
"].	c #A0A0A0",
"^.	c #C6C6C6",
"/.	c #6A6A6A",
"(.	c #DDC400",
"_.	c #EFDA34",
":.	c #D7BE00",
"<.	c #EBD533",
"[.	c #F7E445",
"}.	c #D4BA00",
"|.	c #DFC000",
"1.	c #E3C400",
"2.	c #D0B200",
"3.	c #E8CD00",
"4.	c #B39104",
"5.	c #838383",
"6.	c #C5C5C5",
"7.	c #636363",
"8.	c #7C7C7C",
"9.	c #D9BE00",
"0.	c #D2B800",
"a.	c #F1DE3C",
"b.	c #CFB405",
"c.	c #C5A500",
"d.	c #DDBC00",
"e.	c #BC9B00",
"f.	c #E2C500",
"g.	c #B69811",
"h.	c #AEAEAE",
"i.	c #D4D4D4",
"j.	c #DCCC5F",
"k.	c #C8AC01",
"l.	c #C3A500",
"m.	c #C3A202",
"n.	c #DAB900",
"o.	c #DCBF00",
"p.	c #AF8E00",
"q.	c #CFB202",
"r.	c #C7B150",
"s.	c #BBBBBB",
"t.	c #737373",
"u.	c #CBB343",
"v.	c #B89A0D",
"w.	c #C9C9C9",
"x.	c #BCBCBC",
"y.	c #6B6B6B",
"z.	c #686868",
"A.	c #D6D6D6",
"B.	c #D2D2D2",
"C.	c #666666",
"D.	c #C0C0C0",
"E.	c #CDCDCD",
"F.	c #787878",
"G.	c #C7C7C7",
"H.	c #AFAFAF",
"I.	c #B1B1B1",
"J.	c #B6B6B6",
"                                                ",
"                                  . + @ #       ",
"                                $ % & * =       ",
"                                - ; > , '       ",
"                              ) ! ~ { ]         ",
"                          ^ / ( _ : < [         ",
"  } } } } } } } } } } } } | 1 2 3 4 5           ",
"} 6 7 7 7 7 8 8 8 8 8 9 0 a b c d e f           ",
"} g h 7 i j k l l m 9 n o p q r s t u v         ",
"} 7 w x y k l l m 9 z 1 A B C D E F G } } }     ",
"} 7 i w h H m I 9 J K L M N O P Q R } S T U }   ",
"} 7 H i w x V 9 W X Y Z `  ...+.@.#.} $.%.9 }   ",
"} 7 i i i w &.*.=.-.;.>.,.'.).!.@.~.} {.].^.}   ",
"} 7 H i i w /.(._.:.<.[.}.|.1.2.3.4.} 5.6.^.}   ",
"} 7 i i w 7.7 8.9.0.a.b.c.d.).e.f.g.} h.i.^.}   ",
"} 7 H w 7.7 i w 8.j.k.l.m.n.o.p.q.r.} s.i.^.}   ",
"} 7 w t.7 i i i i 9 8.8.u.v.p.p.p./.} w.i.^.}   ",
"} 7 8.7 w w w w w w w w 9 8.8.8.9 S } w.i.^.}   ",
"} t.x.x.x.x.x.x.x.x.x.x.x.x.x.x.x.7.} s.i.^.}   ",
"  } } } } } } } } } } } } } } } } } y.z.A.^.}   ",
"        } B.C.B.s.s.s.s.s.s.s.s.s.s.D.E.F.G.}   ",
"        } y.H.H.H.H.H.H.H.H.H.H.H.H.I.J.$.7.}   ",
"          } } } } } } } } } } } } } } } } }     ",
"                                                "};
