/* XPM */
static char * dir_open_xpm[] = {
"16 16 33 1",
" 	c None",
".	c #000000",
"+	c #A7B2DF",
"@	c #7F86C7",
"#	c #8390CD",
"$	c #666BB1",
"%	c #9297DE",
"&	c #7177BF",
"*	c #8992CF",
"=	c #6E75BC",
"-	c #6267AD",
";	c #515381",
">	c #424469",
",	c #222334",
"'	c #666BB3",
")	c #D6DCF8",
"!	c #DDE2FA",
"~	c #C7D0EF",
"{	c #393A5B",
"]	c #484972",
"^	c #E2E6FC",
"/	c #BEC8E7",
"(	c #929CCB",
"_	c #BAC5E1",
":	c #3E4066",
"<	c #D0D4FA",
"[	c #5F6693",
"}	c #8892CE",
"|	c #37385B",
"1	c #D2D9F6",
"2	c #515478",
"3	c #A5ADE7",
"4	c #6E78B1",
"                ",
"                ",
"    ....        ",
"   .+@+@.       ",
"  .#$#$#$...... ",
"  .%&*&*&*=-&-;.",
" ...........>,'.",
".)!~!~!~!~!~.{].",
".^/(_(_(_(_(.{:.",
" .<_(_(_(_(_[.:.",
" .!}_(_(_(_(_.|.",
"  .1(_(_(_(_(2..",
"  .3(4(4(4(4(4..",
"   ............ ",
"                ",
"                "};
