/* XPM */
static char * DIRECTORY_OPEN_XPM[] = {
"16 16 34 1",
" 	c None",
".	c #000000",
"+	c #8F98C4",
"@	c #7277AB",
"#	c #757EB0",
"$	c #606497",
"%	c #7F83C2",
"&	c #686CA3",
"*	c #797FB2",
"=	c #666BA1",
"-	c #5D6194",
";	c #505173",
">	c #434562",
",	c #232436",
"'	c #606499",
")	c #BAC0E7",
"!	c #C1C7EC",
"~	c #ABB3D8",
"{	c #3B3C58",
"]	c #484969",
"^	c #C7CCF0",
"/	c #A2ACCD",
"(	c #7F87AE",
"_	c #9FA9C6",
":	c #3F4160",
"<	c #B3B7EC",
"[	c #5B6080",
"}	c #252544",
"|	c #787FB1",
"1	c #393A58",
"2	c #B5BDE4",
"3	c #50526D",
"4	c #8E94CD",
"5	c #666D97",
"                ",
"                ",
"    ....        ",
"   .+@+@.       ",
"  .#$#$#$...... ",
"  .%&*&*&*=-&-;.",
" ...........>,'.",
".)!~!~!~!~!~.{].",
".^/(_(_(_(_(.{:.",
" .<_(_(_(_(_[.:.",
" }!|_(_(_(_(_.1.",
"  }2(_(_(_(_(3..",
"  .4(5(5(5(5(5..",
"   ............ ",
"                ",
"                "};
