/* XPM */
static char * dir_subs_open_mark_xpm[] = {
"16 16 54 1",
" 	c None",
".	c #FFFFFF",
"+	c #000000",
"@	c #72E856",
"#	c #65E64C",
"$	c #65E74B",
"%	c #77EF5B",
"&	c #5DE547",
"*	c #92F87A",
"=	c #7CF460",
"-	c #64ED4D",
";	c #6DF157",
">	c #2BA422",
",	c #34BF29",
"'	c #45DB35",
")	c #E1FDD3",
"!	c #DFFDCF",
"~	c #DAFDC7",
"{	c #D9FDC5",
"]	c #A1F181",
"^	c #258D1D",
"/	c #30B026",
"(	c #C2F8AA",
"_	c #C1F9AB",
":	c #C5FBAD",
"<	c #C2FBA9",
"[	c #C1FAA8",
"}	c #B9F99F",
"|	c #89EB67",
"1	c #23801C",
"2	c #289620",
"3	c #B6F99B",
"4	c #B4F999",
"5	c #AFF793",
"6	c #92EF71",
"7	c #4DCA34",
"8	c #25891D",
"9	c #B1F995",
"0	c #B0F894",
"a	c #A2F581",
"b	c #8FEB6B",
"c	c #20811B",
"d	c #A6F789",
"e	c #A4F787",
"f	c #A3F785",
"g	c #9FF680",
"h	c #7CEA5E",
"i	c #41C030",
"j	c #94F476",
"k	c #93F575",
"l	c #8FF470",
"m	c #88F167",
"n	c #86EF65",
"o	c #67E749",
"             .. ",
"            .+. ",
"    ++++   .++. ",
"   +@..#+ .+++. ",
"  +$%.+.&.+++.+ ",
"  +*=.++.+++.-;+",
" ++++.+++++.>,'+",
"+)!~{{.+++.]+^/+",
"+(_:<[<.+.}|+12+",
" +(33444.4567+8+",
" +(99000005ab+c+",
"  +3deeeeefghi++",
"  +jkllllllmno++",
"   ++++++++++++ ",
"                ",
"                "};
