/* XPM */
static char * dir_noselect_open_mark_xpm[] = {
"16 16 52 1",
" 	c None",
".	c #FFFFFF",
"+	c #000000",
"@	c #7F7F7F",
"#	c #B4CAE8",
"$	c #B0C6E6",
"%	c #AFC5E7",
"&	c #B6CDEC",
"*	c #AEC3E6",
"=	c #C4D8F2",
"-	c #BAD0EE",
";	c #B1C6E9",
">	c #B6CAEC",
",	c #8CA2D4",
"'	c #99ADD9",
")	c #A6B9E0",
"!	c #EBF4FB",
"~	c #EAF3FA",
"{	c #E6F2FA",
"]	c #E5F1F9",
"^	c #C7DCEF",
"/	c #829AD0",
"(	c #92A7D6",
"_	c #D9E8F5",
":	c #DAE8F6",
"<	c #DBEAF7",
"[	c #D9E9F7",
"}	c #D8E8F6",
"|	c #D5E6F5",
"1	c #BCD3EA",
"2	c #7E97CE",
"3	c #879DD1",
"4	c #D3E5F5",
"5	c #D2E4F4",
"6	c #CFE2F3",
"7	c #C1D7ED",
"8	c #A3B9D9",
"9	c #8199CF",
"0	c #D0E3F4",
"a	c #C7DDF1",
"b	c #BDD5EB",
"c	c #7D94CF",
"d	c #CCDFF2",
"e	c #CADEF2",
"f	c #C7DCF1",
"g	c #B8CEEA",
"h	c #9EB3D8",
"i	c #C2D8F0",
"j	c #C1D7EF",
"k	c #BDD4ED",
"l	c #BCD3EC",
"m	c #AFC7E7",
"             .. ",
"            .+. ",
"    @@@@   .++. ",
"   @#..$@ .+++. ",
"  @%&.+.*.+++.@ ",
"  @=-.++.+++.;>@",
" @@@@.+++++.,')@",
"@!~{]].+++.^@/(@",
"@_:<[}[.+.|1@23@",
" @_44555.5678@9@",
" @_00000006ab@c@",
"  @4deeeeeefgh@@",
"  @iijjjjjjklm@@",
"   @@@@@@@@@@@@ ",
"                ",
"                "};
