/* XPM */
static char * folder_xpm[] = {
"16 16 61 1",
" 	c None",
".	c #42423F",
"+	c #74746A",
"@	c #949484",
"#	c #4C4C44",
"$	c #AAAA98",
"%	c #E3E3CC",
"&	c #818175",
"*	c #88887E",
"=	c #BABAAA",
"-	c #DFDFCC",
";	c #B9B9AA",
">	c #88887A",
",	c #727166",
"'	c #5F5D55",
")	c #67655C",
"!	c #4F4D46",
"~	c #5F5F55",
"{	c #DDDDC7",
"]	c #D1D1BD",
"^	c #ADAD9F",
"/	c #88877E",
"(	c #73726B",
"_	c #6E6C64",
":	c #838175",
"<	c #9B988A",
"[	c #5D5B52",
"}	c #9C9C8F",
"|	c #FCFCF9",
"1	c #7F7F7A",
"2	c #626057",
"3	c #717165",
"4	c #D8D8D2",
"5	c #82817C",
"6	c #3F3F38",
"7	c #C1C1B6",
"8	c #807F7A",
"9	c #57554D",
"0	c #9D9D92",
"a	c #797873",
"b	c #999688",
"c	c #979486",
"d	c #868376",
"e	c #363530",
"f	c #68685D",
"g	c #605F5B",
"h	c #8E8B7E",
"i	c #939083",
"j	c #8C897C",
"k	c #6D6A60",
"l	c #42413B",
"m	c #0A0908",
"n	c #000000",
"o	c #585850",
"p	c #7C796E",
"q	c #7B796D",
"r	c #403F39",
"s	c #171614",
"t	c #272623",
"u	c #45433D",
"v	c #161513",
"                ",
"                ",
"                ",
"        .+@     ",
" #$%&*=-;>,')!  ",
" ~{]^/(_:<<<<[  ",
"  }|1<<<<<<<<2  ",
"  345<<<<<<<<[  ",
"  678<<<<<<<<9  ",
"   0ab<<<<<cde  ",
"   fgh<<ijklmnn ",
"    opq)rsnnnn  ",
"   ntuvnnnn     ",
"     nnn        ",
"                ",
"                "};
