/* XPM */
static char * ignorethread_xpm[] = {
"13 10 6 1",
" 	c None",
".	c #FF0000",
"+	c #191919",
"@	c #B2B2B2",
"#	c #FFFFFF",
"$	c #999999",
"          .  ",
"    +++++..  ",
"  ++@@@@..+  ",
" +#@@$+..@#+ ",
"+##@$+..$@##+",
"+##@$..+$@##+",
" +#@..+$@@#+ ",
"  +..@@@@++  ",
"  ..+++++    ",
"  .          "};
