/* XPM */
static char * inactive_xpm[] = {
"12 9 59 1",
" 	c None",
".	c #FE0000",
"+	c #F20000",
"@	c #E30000",
"#	c #E00000",
"$	c #DD0000",
"%	c #CA0000",
"&	c #AA0000",
"*	c #F30000",
"=	c #D50000",
"-	c #C60000",
";	c #C30000",
">	c #BF0000",
",	c #AE0000",
"'	c #930000",
")	c #F10000",
"!	c #C20000",
"~	c #BE0000",
"{	c #BF0505",
"]	c #BE0202",
"^	c #BE0404",
"/	c #B50000",
"(	c #830000",
"_	c #790000",
":	c #E10000",
"<	c #BF0202",
"[	c #BE0101",
"}	c #BD0202",
"|	c #B30000",
"1	c #760000",
"2	c #6D0000",
"3	c #CC0000",
"4	c #C00000",
"5	c #BD0000",
"6	c #BF0404",
"7	c #BA0303",
"8	c #9F0000",
"9	c #5B0000",
"0	c #5E0000",
"a	c #AD0000",
"b	c #AF0000",
"c	c #B60000",
"d	c #B70000",
"e	c #B40000",
"f	c #A00000",
"g	c #690000",
"h	c #3C0000",
"i	c #940000",
"j	c #850000",
"k	c #7B0000",
"l	c #7A0000",
"m	c #750000",
"n	c #3B0000",
"o	c #4C0000",
"p	c #770000",
"q	c #700000",
"r	c #6B0000",
"s	c #680000",
"t	c #5C0000",
"            ",
"  .+@##$%&  ",
" .*=-;;;>,' ",
" )=!>~{]^/(_",
" :-~~~<[}|12",
" 34~5~6]7890",
" abcdddefgh ",
"  ijkllm9no ",
"   pqrrst   "};
