/* XPM */
static char * insert_file_xpm[] = {
"24 24 75 1",
" 	c None",
".	c #000000",
"+	c #B8CADB",
"@	c #C5D4E3",
"#	c #687B8D",
"$	c #D8D8D8",
"%	c #CFDBE6",
"&	c #9DB8D2",
"*	c #728699",
"=	c #BCCEDF",
"-	c #FFFFFF",
";	c #D2DEEA",
">	c #C0D1E2",
",	c #CFDBE7",
"'	c #798EA3",
")	c #D0DDE9",
"!	c #B7CBDE",
"~	c #B6CADD",
"{	c #B7CADD",
"]	c #BACCDF",
"^	c #9FB9D3",
"/	c #B5C9DC",
"(	c #9BB6D0",
"_	c #7F7964",
":	c #4C493C",
"<	c #171612",
"[	c #13120F",
"}	c #AFC5DA",
"|	c #A0BAD3",
"1	c #7E94A9",
"2	c #474438",
"3	c #B3B3B3",
"4	c #B2C7DB",
"5	c #9CB7D1",
"6	c #A4BDD5",
"7	c #BABABA",
"8	c #37352B",
"9	c #151410",
"0	c #A7A7A7",
"a	c #8F8F8F",
"b	c #11100D",
"c	c #9AB5CF",
"d	c #434035",
"e	c #6D6D6D",
"f	c #5B88B2",
"g	c #9EB8D1",
"h	c #556474",
"i	c #2A303A",
"j	c #312F26",
"k	c #5080AD",
"l	c #3F6588",
"m	c #2A435B",
"n	c #121212",
"o	c #97B3CE",
"p	c #131313",
"q	c #050403",
"r	c #080D11",
"s	c #5F8BB4",
"t	c #95B2CE",
"u	c #12110E",
"v	c #636363",
"w	c #767676",
"x	c #4C79A3",
"y	c #C6C6C6",
"z	c #030303",
"A	c #989898",
"B	c #251F0C",
"C	c #D6D6D6",
"D	c #222222",
"E	c #969696",
"F	c #3D3D3D",
"G	c #0B0B0B",
"H	c #060606",
"I	c #252525",
"J	c #929292",
"                        ",
"          ............  ",
"         .+@#$$$$$$%&*. ",
"         .=&#------;&*. ",
"         .>&#$$$$$$,&*. ",
"         .>&'------)&*. ",
"      ....>&&!~~{{]^&*. ",
"      ./(.>&&&&&&&&&&*. ",
" _:<[[.}|.>&&111111&&*. ",
" 23---.45.>61$$7$-$1&*. ",
" 8----.~5.>&1$7$-1$1&*. ",
" 9-0aa.~(.>&1$7-$1$1&*. ",
" b-....~c.=&17$-$$$1**. ",
" d-e.fg6|5.h........i.  ",
" j---.k555llm.-n        ",
" d-0aa.ko|lm.a-p        ",
" q-----rstm.---.        ",
" u-ev-wa.x.ya--z        ",
" j-------.-----n        ",
" d-0aa-aaay-Aa-p        ",
" B-------------p        ",
" .C-----------CD        ",
" EFpnpGHDDDDDDIJ        ",
"                        "};
