/* XPM */
static char * jpilot_xpm[] = {
"32 32 174 2",
"  	c None",
". 	c #767676",
"+ 	c #000000",
"@ 	c #868686",
"# 	c #EFEFEF",
"$ 	c #F1F1F1",
"% 	c #F2F2F2",
"& 	c #F3F3F3",
"* 	c #EEEEEE",
"= 	c #ECECEC",
"- 	c #E9E9E9",
"; 	c #E6E6E6",
"> 	c #E3E3E3",
", 	c #E0E0E0",
"' 	c #DEDEDE",
") 	c #DBDBDB",
"! 	c #D8D8D8",
"~ 	c #D2D2D2",
"{ 	c #B2B2B2",
"] 	c #E8E8E8",
"^ 	c #EAEAEA",
"/ 	c #EBEBEB",
"( 	c #E4E4E4",
"_ 	c #E2E2E2",
": 	c #DFDFDF",
"< 	c #DCDCDC",
"[ 	c #D9D9D9",
"} 	c #D6D6D6",
"| 	c #D3D3D3",
"1 	c #CFCFCF",
"2 	c #CACACA",
"3 	c #8C8C8C",
"4 	c #747474",
"5 	c #C7C7C7",
"6 	c #848484",
"7 	c #519551",
"8 	c #4F954F",
"9 	c #509650",
"0 	c #548A52",
"a 	c #2A2A2A",
"b 	c #C5C5C5",
"c 	c #85BD86",
"d 	c #81BB82",
"e 	c #7EBA7E",
"f 	c #7DB97D",
"g 	c #78B678",
"h 	c #5CA45C",
"i 	c #1D1D1D",
"j 	c #C1C1C1",
"k 	c #F0F0F0",
"l 	c #E7E7E7",
"m 	c #82BC82",
"n 	c #75B575",
"o 	c #72B472",
"p 	c #71B371",
"q 	c #5DA55D",
"r 	c #BFBFBF",
"s 	c #E5E5E5",
"t 	c #6FB16F",
"u 	c #6CB06C",
"v 	c #6AB06A",
"w 	c #69AF69",
"x 	c #68AE68",
"y 	c #BBBBBB",
"z 	c #EDEDED",
"A 	c #7CB87C",
"B 	c #7AB87A",
"C 	c #7FB87E",
"D 	c #79B779",
"E 	c #68AE6A",
"F 	c #6DAF6B",
"G 	c #5EA85E",
"H 	c #5BA75B",
"I 	c #57A557",
"J 	c #53A353",
"K 	c #5FA95F",
"L 	c #B8B8B8",
"M 	c #63AB63",
"N 	c #5FA55F",
"O 	c #599957",
"P 	c #54A054",
"Q 	c #439B43",
"R 	c #449C44",
"S 	c #459D45",
"T 	c #429C42",
"U 	c #B3B3B3",
"V 	c #838383",
"W 	c #51A353",
"X 	c #4B9F4B",
"Y 	c #4DA14D",
"Z 	c #4AA04C",
"` 	c #4EA250",
" .	c #489E48",
"..	c #439D43",
"+.	c #65AD65",
"@.	c #B0B0B0",
"#.	c #529652",
"$.	c #77B577",
"%.	c #51A351",
"&.	c #50A04E",
"*.	c #479D47",
"=.	c #459B45",
"-.	c #ADADAD",
";.	c #D5D5D5",
">.	c #4BA14D",
",.	c #52A452",
"'.	c #6BAF6B",
").	c #A9A9A9",
"!.	c #D1D1D1",
"~.	c #539652",
"{.	c #499F49",
"].	c #6EB06E",
"^.	c #A6A6A6",
"/.	c #828282",
"(.	c #DDDDDD",
"_.	c #CDCDCD",
":.	c #539753",
"<.	c #70B270",
"[.	c #A3A3A3",
"}.	c #D7D7D7",
"|.	c #C8C8C8",
"1.	c #549854",
"2.	c #4FA34F",
"3.	c #74B474",
"4.	c #A0A0A0",
"5.	c #9D9D9D",
"6.	c #CECECE",
"7.	c #C0C0C0",
"8.	c #56A656",
"9.	c #80BB7F",
"0.	c #999999",
"a.	c #BCBCBC",
"b.	c #609E60",
"c.	c #83BC82",
"d.	c #979797",
"e.	c #C6C6C6",
"f.	c #B7B7B7",
"g.	c #515151",
"h.	c #8D8D8D",
"i.	c #969696",
"j.	c #C3C3C3",
"k.	c #B9B9B9",
"l.	c #BDBDBD",
"m.	c #AEAEAE",
"n.	c #ACACAC",
"o.	c #AAAAAA",
"p.	c #A8A8A8",
"q.	c #A7A7A7",
"r.	c #A4A4A4",
"s.	c #BEBEBE",
"t.	c #AFAFAF",
"u.	c #A1A1A1",
"v.	c #9F9F9F",
"w.	c #9E9E9E",
"x.	c #4B739F",
"y.	c #8A8A8A",
"z.	c #898989",
"A.	c #888888",
"B.	c #878787",
"C.	c #727272",
"D.	c #7A7A7A",
"E.	c #474747",
"F.	c #4E4E4E",
"G.	c #4D4D4D",
"H.	c #4B4B4B",
"I.	c #4A4A4A",
"J.	c #494949",
"K.	c #464646",
"L.	c #606060",
"M.	c #7B7B7B",
"N.	c #7E7E7E",
"O.	c #777777",
"P.	c #757575",
"Q.	c #949494",
"                                                                ",
"                                                                ",
"            . + + + + + + + + + + + + + + + + + + @             ",
"            + # $ % & & & # * = - ; > , ' ) ! ~ { +             ",
"            + $ ] ^ / = = ] ; ( _ : < [ } | 1 2 3 +             ",
"            + % - . + + + + + + + + + + + + 4 5 6 +             ",
"            + % ^ + 7 8 9 9 9 9 9 8 8 8 8 0 a b 6 +             ",
"            + $ - + 8 c c d d e e e f f g h i j 6 +             ",
"            + k l + 8 m m m m m m n n o p q i r 6 +             ",
"            + # s + 8 d d d d p t u v w x q i y 6 +             ",
"            + z _ + 8 A B C D E F G H I J K i L 6 +             ",
"            + ^ : + 9 B f M N O P Q R S T M i U V +             ",
"            + l < + 9 g t W X Y Z ` S  ...+.i @.V +             ",
"            + ( ! + #.$.%.X X X &.Y *.S =.E i -.V +             ",
"            + _ ;.+ #.>.Z Y X X Y ,.Z ....'.i ).V +             ",
"            + : !.+ ~.*.{.X X X X X X *.{.].i ^./.+             ",
"            + (._.+ :.X X X X X X X X X Y <.i [./.+             ",
"            + }.|.+ 1.2.2.2.2.2.2.2.2.2.2.3.i 4./.+             ",
"            + | b + 1.,.,.,.,.,.,.,.,.,.,.$.i 5./.+             ",
"            + 6.7.+ 1.8.8.8.8.8.8.8.8.8.8.9.i 0./.+             ",
"            + 2 a.+ b.u 3.3.3.3.3.3.3.3.3.c.i d./.+             ",
"            + e.f.g.+ + + + + + + + + + + + h.i./.+             ",
"            + j.U k.l.l.l.@.m.n.o.p.q.^.r.[.[.i./.+             ",
"            + s.m.t.t.t.t.u.v.w.5.x.x.x.x.r.0.i./.+             ",
"            + t.i.d.d.d.d.3 3 y.z.A.B.@ y.C.4 6 D.+             ",
"            E.+ + F.G.F.F.H.I.I.J.E.E.K.K.K.K.+ + L.            ",
"              6 + C.M.N./.@ 6 /.N.D.O.. P.P.P.+ Q.              ",
"                G.+ + + + + + + + + + + + + + +                 ",
"                                                                ",
"                                                                ",
"                                                                ",
"                                                                "};
