/* XPM */
static char * mail_reply_to_author_xpm[] = {
"24 24 100 2",
"  	c None",
". 	c #000000",
"+ 	c #7B7B78",
"@ 	c #C7C7C3",
"# 	c #F1F0EB",
"$ 	c #BFBFBC",
"% 	c #5F5E5E",
"& 	c #E3E3DF",
"* 	c #F3F3EF",
"= 	c #F2F2EE",
"- 	c #F1F1EC",
"; 	c #F0EFEB",
"> 	c #D2D2CD",
", 	c #969592",
"' 	c #616060",
") 	c #B5B5B4",
"! 	c #F8F8F6",
"~ 	c #F7F7F5",
"{ 	c #F6F6F3",
"] 	c #F5F5F2",
"^ 	c #F4F4F0",
"/ 	c #F2F1ED",
"( 	c #F1F0EC",
"_ 	c #F0EFEA",
": 	c #EFEEE9",
"< 	c #4F4F4D",
"[ 	c #BDBCB8",
"} 	c #A7A6A3",
"| 	c #C6C6C4",
"1 	c #7C7C7B",
"2 	c #525251",
"3 	c #DBDBD9",
"4 	c #F5F4F1",
"5 	c #F4F3F0",
"6 	c #F3F2EE",
"7 	c #999894",
"8 	c #62625F",
"9 	c #BCBCB6",
"0 	c #EBE9E3",
"a 	c #838381",
"b 	c #D7D6D4",
"c 	c #A8A8A6",
"d 	c #515150",
"e 	c #7E7D7C",
"f 	c #DAD9D5",
"g 	c #EFEEE8",
"h 	c #EEEDE7",
"i 	c #4F4E4C",
"j 	c #BCBBB6",
"k 	c #EBE9E2",
"l 	c #EAE8E1",
"m 	c #EEEDE8",
"n 	c #EDECE6",
"o 	c #4E4E4C",
"p 	c #797976",
"q 	c #797874",
"r 	c #E9E8E1",
"s 	c #E8E7DF",
"t 	c #B4B3AF",
"u 	c #DED5BB",
"v 	c #AF9F7E",
"w 	c #7A7A77",
"x 	c #979691",
"y 	c #EAE9E2",
"z 	c #959590",
"A 	c #787773",
"B 	c #B8B7B0",
"C 	c #E6E4DC",
"D 	c #ECEBE4",
"E 	c #EBEAE3",
"F 	c #E9E7E0",
"G 	c #E8E6DF",
"H 	c #E7E5DD",
"I 	c #777671",
"J 	c #93918C",
"K 	c #E8E6DE",
"L 	c #E6E4DB",
"M 	c #E4E3DA",
"N 	c #75746F",
"O 	c #91908A",
"P 	c #E7E6DE",
"Q 	c #E6E5DC",
"R 	c #E5E4DB",
"S 	c #E4E2DA",
"T 	c #CCCBC4",
"U 	c #A3A29D",
"V 	c #CDCCC6",
"W 	c #959490",
"X 	c #CECDC7",
"Y 	c #E0D8B0",
"Z 	c #B39C82",
"` 	c #BCA488",
" .	c #C5AC8F",
"..	c #AA947B",
"+.	c #A18D75",
"@.	c #98856E",
"#.	c #8F7D68",
"$.	c #867561",
"%.	c #7D6D5B",
"&.	c #746554",
"                                                ",
"                            . . . .             ",
"                  . . . . . + @ # $ .           ",
"        . . . . . % $ & * = - ; > , .           ",
"      . ' ) ! ~ { ] ^ * / ( _ : < [ } .         ",
"      . | 1 2 3 4 5 6 / # _ : 7 8 9 0 .         ",
"      . a b c d e f / # _ g h i j k l .         ",
". . . . . . . . . . . . m n o p q r s t .       ",
". u u u u u u u u u v . w o x y z A B C .       ",
". u v v v v v v v v v . D E l F G H I J .       ",
". u v v v v v v . v v . 0 l F K H L M N O .     ",
". u v v v v v v . v v . r s P Q R S T U . .     ",
". u v v v v v v v v v . s P C V W . . .         ",
". u v v v v v v v v v . X z . . .       .       ",
". u v v v v v v v v v . . .           . Y .     ",
". u v v v v v v v . . .       . .   . Y Y Y .   ",
". u v v v v v v v v .       . Z .     . Y Y Y . ",
". u v v v v v . v v .     . ` Z . . . . . . . . ",
". u v v v v v v . . .   .  .` Z ..+.@.#.$.%.&.. ",
". u v v v v v v v v .   .  .` Z ..+.@.#.$.%..   ",
". v v v v v v v v v .     . ` Z . . . . . .     ",
". . . . . . . . . .         . Z .               ",
"                              . .               ",
"                                                "};
