/* XPM */
static char * mark_locked_xpm[] = {
"24 24 74 1",
" 	c None",
".	c #999999",
"+	c #000000",
"@	c #929292",
"#	c #535353",
"$	c #FFFFFF",
"%	c #FEFEFE",
"&	c #F6F6F6",
"*	c #F5F5F5",
"=	c #F4F4F4",
"-	c #E3E3E3",
";	c #EEEEEE",
">	c #4F4F4F",
",	c #F3F3F3",
"'	c #EDEDED",
")	c #AEAEAE",
"!	c #E4E4E4",
"~	c #434343",
"{	c #FDFDFD",
"]	c #F2F2F2",
"^	c #ACACAC",
"/	c #C8C8C8",
"(	c #FBFBFB",
"_	c #F1F1F1",
":	c #F0F0F0",
"<	c #EFEFEF",
"[	c #A0A0A0",
"}	c #D4D4D4",
"|	c #F8F8F8",
"1	c #ECECEC",
"2	c #959595",
"3	c #3E3E3E",
"4	c #4D4D4D",
"5	c #818181",
"6	c #C6C6C6",
"7	c #6A6A6A",
"8	c #F3EFE0",
"9	c #F4E5B3",
"0	c #CDB86D",
"a	c #636363",
"b	c #B9B9B9",
"c	c #F4F0E4",
"d	c #F2E1A5",
"e	c #EED680",
"f	c #737373",
"g	c #7C7C7C",
"h	c #F9F9F9",
"i	c #E5EAF1",
"j	c #DCE3EB",
"k	c #DAE1E8",
"l	c #D7DEE6",
"m	c #D1D9E1",
"n	c #8F99A2",
"o	c #BCBCBC",
"p	c #E3EAF1",
"q	c #B7C8DA",
"r	c #8CA7C3",
"s	c #87A2BE",
"t	c #829DBA",
"u	c #7D98B6",
"v	c #465766",
"w	c #E7EDF3",
"x	c #B6C7D9",
"y	c #8AA5C1",
"z	c #85A0BC",
"A	c #809BB8",
"B	c #7B96B4",
"C	c #445462",
"D	c #ECF1F5",
"E	c #AEC0D4",
"F	c #88A3BF",
"G	c #839EBB",
"H	c #7E99B6",
"I	c #7994B2",
"                        ",
"                        ",
"                        ",
"                        ",
"                        ",
"                        ",
"                        ",
"  .+++++++++++++++++@   ",
"  +#$$$$%$%$%$%&*=-#+   ",
"  +;>$*=,=,=,=,;'->)+   ",
"  +$!~{,],],],]'->^/+   ",
"  +$*!>(_::<;''-~[}/+   ",
"  +$(*!~|:<;'1->2}!/+   ",
"  +$***!3*;'1-456++++   ",
"  +$(**!7~,1->76+890+   ",
"  +$**!a$b>:>26+c++/0+  ",
"  +$(!a$*!}>^6!+d+!+e+  ",
"  +$!f$****!!*++0+++0++ ",
"  +$g$!!!!!!!!+hijklmn+ ",
"  +foooooooooo+pqrstuv+ ",
"  @++++++++++++wxyzABC+ ",
"              +DEFGHIC+ ",
"              +++++++++ ",
"                        "};
