/* XPM */
static char * mark_watchthread_xpm[] = {
"24 24 65 1",
" 	c None",
".	c #999999",
"+	c #000000",
"@	c #929292",
"#	c #535353",
"$	c #FFFFFF",
"%	c #FEFEFE",
"&	c #F6F6F6",
"*	c #F5F5F5",
"=	c #F4F4F4",
"-	c #E3E3E3",
";	c #EEEEEE",
">	c #4F4F4F",
",	c #F3F3F3",
"'	c #EDEDED",
")	c #AEAEAE",
"!	c #E4E4E4",
"~	c #434343",
"{	c #FDFDFD",
"]	c #F2F2F2",
"^	c #ACACAC",
"/	c #C8C8C8",
"(	c #FBFBFB",
"_	c #F1F1F1",
":	c #F0F0F0",
"<	c #EFEFEF",
"[	c #A0A0A0",
"}	c #D4D4D4",
"|	c #F8F8F8",
"1	c #ECECEC",
"2	c #959595",
"3	c #3E3E3E",
"4	c #4D4D4D",
"5	c #818181",
"6	c #C6C6C6",
"7	c #6A6A6A",
"8	c #636363",
"9	c #B9B9B9",
"0	c #737373",
"a	c #1B2B3C",
"b	c #B6B6B6",
"c	c #264057",
"d	c #233B51",
"e	c #253F56",
"f	c #374E63",
"g	c #606B76",
"h	c #2B2B2B",
"i	c #7C7C7C",
"j	c #CACACA",
"k	c #334F68",
"l	c #E7E7E7",
"m	c #314E6C",
"n	c #597187",
"o	c #262626",
"p	c #BCBCBC",
"q	c #DFDFDF",
"r	c #3B5673",
"s	c #506881",
"t	c #E1E1E1",
"u	c #8091A3",
"v	c #3A5572",
"w	c #EBEBEB",
"x	c #7D8EA0",
"y	c #303030",
"z	c #1F262D",
"                        ",
"                        ",
"                        ",
"                        ",
"                        ",
"                        ",
"                        ",
"  .+++++++++++++++++@   ",
"  +#$$$$%$%$%$%&*=-#+   ",
"  +;>$*=,=,=,=,;'->)+   ",
"  +$!~{,],],],]'->^/+   ",
"  +$*!>(_::<;''-~[}/+   ",
"  +$(*!~|:<;'1->2}!/+   ",
"  +$***!3*;'1-456!!/+   ",
"  +$(**!7~,1->766*!/+   ",
"  +$**!8$9>:>2606*!/+   ",
"  +$(!8$*!}>^6a++++++   ",
"  +$!0$****!!abcdefgh   ",
"  +$i$!!!!!!+jkl$+mnbo  ",
"  +0ppppppp+q*r$$+mst[+ ",
"  @++++++++++:ummmvvq+  ",
"             +wxvvxw+   ",
"              y++z++    ",
"                        "};
