/* XPM */
static char * mark_allread_xpm[] = {
"24 24 63 1",
" 	c None",
".	c #999999",
"+	c #000000",
"@	c #929292",
"#	c #535353",
"$	c #FFFFFF",
"%	c #FEFEFE",
"&	c #F4F4F4",
"*	c #E3E3E3",
"=	c #EEEEEE",
"-	c #4F4F4F",
";	c #F5F5F5",
">	c #F3F3F3",
",	c #F2F2F2",
"'	c #F1F1F1",
")	c #EDEDED",
"!	c #AEAEAE",
"~	c #E4E4E4",
"{	c #434343",
"]	c #FDFDFD",
"^	c #F0F0F0",
"/	c #ACACAC",
"(	c #C8C8C8",
"_	c #898989",
":	c #FBFBFB",
"<	c #EFEFEF",
"[	c #A0A0A0",
"}	c #D4D4D4",
"|	c #D3D3D3",
"1	c #525252",
"2	c #F8F8F8",
"3	c #ECECEC",
"4	c #959595",
"5	c #BABABA",
"6	c #494949",
"7	c #3E3E3E",
"8	c #4D4D4D",
"9	c #818181",
"0	c #C6C6C6",
"a	c #414141",
"b	c #6A6A6A",
"c	c #838383",
"d	c #C5C5C5",
"e	c #636363",
"f	c #B9B9B9",
"g	c #737373",
"h	c #7C7C7C",
"i	c #BBBBBB",
"j	c #C9C9C9",
"k	c #BCBCBC",
"l	c #6B6B6B",
"m	c #686868",
"n	c #D6D6D6",
"o	c #D2D2D2",
"p	c #666666",
"q	c #C0C0C0",
"r	c #CDCDCD",
"s	c #787878",
"t	c #C7C7C7",
"u	c #AFAFAF",
"v	c #B1B1B1",
"w	c #B6B6B6",
"x	c #919191",
"                        ",
"                        ",
"                        ",
"                        ",
"                        ",
"                        ",
".+++++++++++++++++@     ",
"+#$$$$%%%%%%%%%&*#+     ",
"+=-$;&>,,''''')*-!+     ",
"+$~{]>,,'^''''*-/(++++_ ",
"+$;~-:'^^<=''*{[}(+(|1+ ",
"+$:;~{2^<=)3*-4}~(+56/+ ",
"+$;;;~7;=)3*890~~(+a[0+ ",
"+$:;;~b{>3*-b00;~(+cd0+ ",
"+$;;~e$f-^-40g0;~(+!}0+ ",
"+$:~e$;~}-/0~~h~~(+i}0+ ",
"+$~g$;;;;~~;;;~h~(+j}0+ ",
"+$h$~~~~~~~~~~~~h(+j}0+ ",
"+gkkkkkkkkkkkkkkke+i}0+ ",
"@+++++++++++++++++lmn0+ ",
"    +opoiiiiiiiiiiqrst+ ",
"    +luuuuuuuuuuuuvw5e+ ",
"    x+++++++++++++++++s ",
"                        "};
