/* XPM */
static char * mark_unread_xpm[] = {
"24 24 9 1",
" 	c None",
".	c #999999",
"+	c #000000",
"@	c #929292",
"#	c #030057",
"$	c #DDDCF2",
"%	c #CAC8EB",
"&	c #B0AEE1",
"*	c #26219A",
"                        ",
"                        ",
"                        ",
"                        ",
"                        ",
"                        ",
"                        ",
"  .+++++++++++++++++@   ",
"  +#$$$$$$$$$$$%%%$#+   ",
"  +%#$%%%%%%&%&&&$#*+   ",
"  +$%#$%&&&&&&&&$#*&+   ",
"  +$&%#$%&&&&&&$#*%&+   ",
"  +$&&%#$&&&&&$#*&%&+   ",
"  +$&&&&#$&&&$#*&&%&+   ",
"  +$&&&&*#$&$#*&&&&&+   ",
"  +$&&&*$%#$#*%*&&&&+   ",
"  +$&&*$&&%#*&&%*&&&+   ",
"  +$&*$&&&&&&&&&%*&&+   ",
"  +%*$&&&&&&&&&&&%*&+   ",
"  +*%&&&&&&&&&&&&&&*+   ",
"  @+++++++++++++++++#   ",
"                        ",
"                        ",
"                        "};
