/* XPM */
static char * mark_unlocked_xpm[] = {
"24 24 68 1",
" 	c None",
".	c #999999",
"+	c #000000",
"@	c #929292",
"#	c #535353",
"$	c #FFFFFF",
"%	c #FEFEFE",
"&	c #F6F6F6",
"*	c #F5F5F5",
"=	c #F4F4F4",
"-	c #E3E3E3",
";	c #EEEEEE",
">	c #4F4F4F",
",	c #F3F3F3",
"'	c #EDEDED",
")	c #AEAEAE",
"!	c #E4E4E4",
"~	c #434343",
"{	c #FDFDFD",
"]	c #F2F2F2",
"^	c #ACACAC",
"/	c #C8C8C8",
"(	c #FBFBFB",
"_	c #F1F1F1",
":	c #F0F0F0",
"<	c #EFEFEF",
"[	c #A0A0A0",
"}	c #D4D4D4",
"|	c #F8F8F8",
"1	c #959595",
"2	c #3E3E3E",
"3	c #F4E5B3",
"4	c #EED680",
"5	c #CDB86D",
"6	c #6A6A6A",
"7	c #636363",
"8	c #B9B9B9",
"9	c #C6C6C6",
"0	c #737373",
"a	c #7C7C7C",
"b	c #F9F9F9",
"c	c #E5EAF1",
"d	c #DCE3EB",
"e	c #DAE1E8",
"f	c #D7DEE6",
"g	c #D1D9E1",
"h	c #8F99A2",
"i	c #BCBCBC",
"j	c #E3EAF1",
"k	c #B7C8DA",
"l	c #8CA7C3",
"m	c #87A2BE",
"n	c #829DBA",
"o	c #7D98B6",
"p	c #465766",
"q	c #E7EDF3",
"r	c #B6C7D9",
"s	c #8AA5C1",
"t	c #85A0BC",
"u	c #809BB8",
"v	c #7B96B4",
"w	c #445462",
"x	c #ECF1F5",
"y	c #AEC0D4",
"z	c #88A3BF",
"A	c #839EBB",
"B	c #7E99B6",
"C	c #7994B2",
"                        ",
"                        ",
"                        ",
"                        ",
"                        ",
"                        ",
"                        ",
"  .+++++++++++++++++@   ",
"  +#$$$$%$%$%$%&*=-#+   ",
"  +;>$*=,=,=,=,;'->)+   ",
"  +$!~{,],],],]'->^/+   ",
"  +$*!>(_::<;''-~[}/+   ",
"  +$(*!~|:<;!+++1}!/+   ",
"  +$***!2*;!+345+1!/+   ",
"  +$(**!6~,+3+++5+!/+   ",
"  +$**!7$8>+4+9+4+!/+   ",
"  +$(!7$*!}+5+9+4+!/+   ",
"  +$!0$****!99++5++++++ ",
"  +$a$!!!!!!!!+bcdefgh+ ",
"  +0iiiiiiiiii+jklmnop+ ",
"  @++++++++++++qrstuvw+ ",
"              +xyzABCw+ ",
"              +++++++++ ",
"                        "};
