/* XPM */
static char * mark_ignorethread_xpm[] = {
"24 24 71 1",
" 	c None",
".	c #999999",
"+	c #000000",
"@	c #929292",
"#	c #535353",
"$	c #FFFFFF",
"%	c #FEFEFE",
"&	c #F6F6F6",
"*	c #F5F5F5",
"=	c #F4F4F4",
"-	c #E3E3E3",
";	c #EEEEEE",
">	c #4F4F4F",
",	c #F3F3F3",
"'	c #EDEDED",
")	c #AEAEAE",
"!	c #E4E4E4",
"~	c #434343",
"{	c #FDFDFD",
"]	c #F2F2F2",
"^	c #ACACAC",
"/	c #C8C8C8",
"(	c #FBFBFB",
"_	c #F1F1F1",
":	c #F0F0F0",
"<	c #EFEFEF",
"[	c #A0A0A0",
"}	c #D4D4D4",
"|	c #F8F8F8",
"1	c #ECECEC",
"2	c #959595",
"3	c #3E3E3E",
"4	c #1B2B3C",
"5	c #6A6A6A",
"6	c #B6B6B6",
"7	c #264057",
"8	c #233B51",
"9	c #253F56",
"0	c #374E63",
"a	c #606B76",
"b	c #2B2B2B",
"c	c #636363",
"d	c #B9B9B9",
"e	c #CACACA",
"f	c #334F68",
"g	c #E7E7E7",
"h	c #314E6C",
"i	c #597187",
"j	c #262626",
"k	c #DFDFDF",
"l	c #3B5673",
"m	c #506881",
"n	c #E1E1E1",
"o	c #737373",
"p	c #8091A3",
"q	c #EC8E79",
"r	c #DF421E",
"s	c #7C7C7C",
"t	c #EBEBEB",
"u	c #7D8EA0",
"v	c #3A5572",
"w	c #FCF1EF",
"x	c #FDFBFA",
"y	c #FDF6F4",
"z	c #F9DFDA",
"A	c #BCBCBC",
"B	c #303030",
"C	c #1F262D",
"D	c #FBECE9",
"E	c #FBEAE7",
"F	c #FDF9F8",
"                        ",
"                        ",
"                        ",
"                        ",
"                        ",
"                        ",
"                        ",
"  .+++++++++++++++++@   ",
"  +#$$$$%$%$%$%&*=-#+   ",
"  +;>$*=,=,=,=,;'->)+   ",
"  +$!~{,],],],]'->^/+   ",
"  +$*!>(_::<;''-~[}/+   ",
"  +$(*!~|:<;'1->2}!/+   ",
"  +$***!3*;'14+++++/+   ",
"  +$(**!5~,1467890ab+   ",
"  +$**!c$d>+efg$+hi6j   ",
"  +$(!c$*!+k*l$$+hmn[+  ",
"  +$!o$****+:phhhqrrrrrq",
"  +$s$!!!!!!+tuvvrwxryzr",
"  +oAAAAAAAAAB++Crx$D$yr",
"  @++++++++++++++rrw$Drr",
"                 ry$E$Fr",
"                 rwFryzr",
"                 qrrrrrq"};
