/* XPM */
static char * mark_unmark_xpm[] = {
"24 24 50 1",
" 	c None",
".	c #999999",
"+	c #000000",
"@	c #929292",
"#	c #535353",
"$	c #FFFFFF",
"%	c #FEFEFE",
"&	c #F6F6F6",
"*	c #F5F5F5",
"=	c #F4F4F4",
"-	c #E3E3E3",
";	c #EEEEEE",
">	c #4F4F4F",
",	c #F3F3F3",
"'	c #EDEDED",
")	c #AEAEAE",
"!	c #E4E4E4",
"~	c #434343",
"{	c #FDFDFD",
"]	c #F2F2F2",
"^	c #ACACAC",
"/	c #C8C8C8",
"(	c #FBFBFB",
"_	c #F1F1F1",
":	c #F0F0F0",
"<	c #EFEFEF",
"[	c #A0A0A0",
"}	c #D4D4D4",
"|	c #F8F8F8",
"1	c #ECECEC",
"2	c #959595",
"3	c #3E3E3E",
"4	c #4D4D4D",
"5	c #818181",
"6	c #C6C6C6",
"7	c #6A6A6A",
"8	c #636363",
"9	c #B9B9B9",
"0	c #737373",
"a	c #7C7C7C",
"b	c #EC8E79",
"c	c #DF421E",
"d	c #FCF1EF",
"e	c #FDFBFA",
"f	c #FDF6F4",
"g	c #F9DFDA",
"h	c #BCBCBC",
"i	c #FBECE9",
"j	c #FBEAE7",
"k	c #FDF9F8",
"                        ",
"                        ",
"                        ",
"                        ",
"                        ",
"                        ",
"                        ",
"  .+++++++++++++++++@   ",
"  +#$$$$%$%$%$%&*=-#+   ",
"  +;>$*=,=,=,=,;'->)+   ",
"  +$!~{,],],],]'->^/+   ",
"  +$*!>(_::<;''-~[}/+   ",
"  +$(*!~|:<;'1->2}!/+   ",
"  +$***!3*;'1-456!!/+$$ ",
"  +$(**!7~,1->766*!/$+$ ",
"  +$**!8$9>:>2606*!$++$ ",
"  +$(!8$*!}>^$$!a!$+++$ ",
"  +$!0$****!!$+$!bcccccb",
"  +$a$!!!!!!!$++$cdecfgc",
"  +0hhhhhhhhh$+++ce$i$fc",
"  @+++++++++++$++ccd$icc",
"               $+cf$j$kc",
"                $cdkcfgc",
"                 bcccccb"};
