/* XPM */
static char * messageview_text_xpm[] = {
"11 13 4 1",
" 	c None",
".	c #8E8E8E",
"+	c #FFFFFF",
"@	c #000000",
"...........",
".+++++++++.",
".+@@@@@@@+.",
".+++++++++.",
".+@@@@++++.",
".+++++++++.",
".+@@@@@@@+.",
".+++++++++.",
".+@@@@@@++.",
".+++++++++.",
".+@@@@@@@+.",
".+++++++++.",
"..........."};
