/* XPM */
static char * mime_text_html_xpm[] = {
"14 18 7 1",
" 	c None",
".	c #8E8E8E",
"+	c #FFFFFF",
"@	c #002EE8",
"#	c #0000FF",
"$	c #000000",
"%	c #FF0000",
"..............",
".++++++++++++.",
".+++@@@@@@+++.",
".++++++++++++.",
".++++++++++++.",
".+##########+.",
".++++++++++++.",
".++++++++++++.",
".+$$$$$$$$$$+.",
".++++++++++++.",
".++++++++++++.",
".+$$$$$$$$$$+.",
".++++++++++++.",
".++++++++++++.",
".+%%%%%%%%%++.",
".++++++++++++.",
".++++++++++++.",
".............."};
