/* XPM */
static char * mime_message_xpm[] = {
"14 18 39 1",
" 	c None",
".	c #8E8E8E",
"+	c #FFFFFF",
"@	c #000000",
"#	c #2828D5",
"$	c #CECFF5",
"%	c #D0D0F5",
"&	c #CECEF5",
"*	c #1B1B92",
"=	c #CBCBF4",
"-	c #CDCDF5",
";	c #8888E7",
">	c #BAB8F1",
",	c #CFCEF5",
"'	c #BDBAF1",
")	c #7572E3",
"!	c #2222B7",
"~	c #C5C2F3",
"{	c #CBC9F4",
"]	c #C3C2F3",
"^	c #2323BE",
"/	c #2727D0",
"(	c #CECDF5",
"_	c #8881E6",
":	c #CCCBF4",
"<	c #A29CEB",
"[	c #7068E1",
"}	c #CDCBF4",
"|	c #867FE6",
"1	c #1B1B90",
"2	c #B9B7F0",
"3	c #6B6BE2",
"4	c #5E5ADF",
"5	c #8984E7",
"6	c #A6A1EC",
"7	c #9692E9",
"8	c #746EE3",
"9	c #9C99EA",
"0	c #141469",
"..............",
".++++++++++++.",
".++++++++++++.",
".++++++++++++.",
".+@@@@@@@@@@+.",
".@#$%%&%%&&*@.",
".@&#&&%&=-#;@.",
".@&>#%&,-#')@.",
".@%&&#%%!~''@.",
".@{%]#^/#({_@.",
".@%:#&,({#<[@.",
".@&#=&,}{|12@.",
".@#334567890@.",
".+@@@@@@@@@@+.",
".++++++++++++.",
".++++++++++++.",
".++++++++++++.",
".............."};
