/* XPM */
static char * mime_audio_xpm[] = {
"14 18 97 2",
"  	c None",
". 	c #8E8E8E",
"+ 	c #FFFFFF",
"@ 	c #F1F1F1",
"# 	c #CDCDCD",
"$ 	c #C9C9C9",
"% 	c #EDEDED",
"& 	c #F4F4F4",
"* 	c #F5F5F5",
"= 	c #F6F6F6",
"- 	c #F2F2F2",
"; 	c #D9D9DA",
"> 	c #4277AE",
", 	c #3380D0",
"' 	c #2B6CAF",
") 	c #3E71A7",
"! 	c #5A7FA7",
"~ 	c #7690AC",
"{ 	c #B3BAC0",
"] 	c #F3F3F3",
"^ 	c #B3BDC7",
"/ 	c #27619E",
"( 	c #1C446E",
"_ 	c #275C94",
": 	c #2C6DB0",
"< 	c #3483D5",
"[ 	c #3C95F2",
"} 	c #6085AC",
"| 	c #7C92AA",
"1 	c #479CF4",
"2 	c #3E8EE2",
"3 	c #3176BF",
"4 	c #2A63A0",
"5 	c #1D4978",
"6 	c #2865A4",
"7 	c #99A3AE",
"8 	c #E4E4E4",
"9 	c #5C82A9",
"0 	c #6684A2",
"a 	c #6988A8",
"b 	c #4D79A8",
"c 	c #326EAC",
"d 	c #317AC8",
"e 	c #2E74BE",
"f 	c #DFE1E3",
"g 	c #CFD3D7",
"h 	c #5F82A7",
"i 	c #CFD0D1",
"j 	c #F9F9F9",
"k 	c #FAFAFA",
"l 	c #8093A6",
"m 	c #4F79A5",
"n 	c #F7F7F7",
"o 	c #DCDCDC",
"p 	c #8090A1",
"q 	c #768AA0",
"r 	c #6D7B89",
"s 	c #7F94AB",
"t 	c #FBFBFB",
"u 	c #FCFCFC",
"v 	c #567FAA",
"w 	c #8A9AAC",
"x 	c #FDFDFD",
"y 	c #6283A5",
"z 	c #73B4F8",
"A 	c #93C5FA",
"B 	c #ABCDF0",
"C 	c #A9B0B7",
"D 	c #F0F0F0",
"E 	c #909DAA",
"F 	c #6A8FB6",
"G 	c #57799C",
"H 	c #356EA8",
"I 	c #CBD0D4",
"J 	c #6088B1",
"K 	c #79B7F9",
"L 	c #9DCBFA",
"M 	c #A0B6CD",
"N 	c #CBCBCC",
"O 	c #B4BABF",
"P 	c #91BAE4",
"Q 	c #7DB9F9",
"R 	c #5EA9F7",
"S 	c #5283B5",
"T 	c #C6C8CA",
"U 	c #778BA0",
"V 	c #8293A4",
"W 	c #B3B6B8",
"X 	c #C2C6CA",
"Y 	c #84ACD6",
"Z 	c #78B7F8",
"` 	c #559BE4",
" .	c #8A9AAB",
"..	c #FEFEFE",
"+.	c #BBBDC0",
"@.	c #99A7B5",
"#.	c #ADB2B6",
". . . . . . . . . . . . . . ",
". + + + + + + + + + + + + . ",
". + + + + + + + + + + + + . ",
". + + + + @ # $ % & & * = . ",
". + + + - ; > , ' ) ! ~ { . ",
". + + + ] ^ / ( _ : < [ } . ",
". + + + & | 1 2 3 4 5 6 7 . ",
". + & * 8 9 0 a b c d e f . ",
". * = = g h i j k k l m n . ",
". o p q r s * k t u v w x . ",
". y z A B C D E F G H I + . ",
". J K L M N O P Q R S ] + . ",
". T U V W x X Y Z `  ...+ . ",
". + + x ....x +.@.#.j + + . ",
". + + + + + + + + + + + + . ",
". + + + + + + + + + + + + . ",
". + + + + + + + + + + + + . ",
". . . . . . . . . . . . . . "};
