/* XPM */
static char * mime_image_xpm[] = {
"15 18 138 2",
"  	c None",
". 	c #8E8E8E",
"+ 	c #FFFFFF",
"@ 	c #9F9F9F",
"# 	c #525252",
"$ 	c #979797",
"% 	c #505050",
"& 	c #ADADAD",
"* 	c #A9A9A9",
"= 	c #606060",
"- 	c #777777",
"; 	c #BABABA",
"> 	c #6C6C6C",
", 	c #5A5A5A",
"' 	c #E3E3E3",
") 	c #CACACA",
"! 	c #757575",
"~ 	c #747474",
"{ 	c #74726D",
"] 	c #B7B5AF",
"^ 	c #A2A19E",
"/ 	c #4E4D49",
"( 	c #9E9E9E",
"_ 	c #564513",
": 	c #826A16",
"< 	c #BEBEBE",
"[ 	c #D8D8D8",
"} 	c #999999",
"| 	c #817B6B",
"1 	c #8F8158",
"2 	c #8E805B",
"3 	c #96938D",
"4 	c #B4B2AF",
"5 	c #8E6E15",
"6 	c #68521F",
"7 	c #746941",
"8 	c #AA8B05",
"9 	c #715C07",
"0 	c #96770C",
"a 	c #C99910",
"b 	c #D9A820",
"c 	c #8F8565",
"d 	c #7D7C6E",
"e 	c #A78C30",
"f 	c #7B6B32",
"g 	c #D6D6D6",
"h 	c #82754C",
"i 	c #C08A09",
"j 	c #886316",
"k 	c #909090",
"l 	c #63625D",
"m 	c #655A07",
"n 	c #DBBE14",
"o 	c #F8C209",
"p 	c #F2B811",
"q 	c #9C8B67",
"r 	c #3555E4",
"s 	c #0B45D7",
"t 	c #4660C3",
"u 	c #AE9631",
"v 	c #817751",
"w 	c #80703E",
"x 	c #C7910E",
"y 	c #A97710",
"z 	c #817F7D",
"A 	c #707070",
"B 	c #615112",
"C 	c #D1AF11",
"D 	c #F9C606",
"E 	c #F1BB0E",
"F 	c #CA8436",
"G 	c #92397E",
"H 	c #7B2F84",
"I 	c #785997",
"J 	c #CFAE2E",
"K 	c #856C07",
"L 	c #9F9C92",
"M 	c #AC9451",
"N 	c #C29537",
"O 	c #70644D",
"P 	c #8D8D8D",
"Q 	c #786A33",
"R 	c #D0B63E",
"S 	c #9FC22D",
"T 	c #71A623",
"U 	c #A87720",
"V 	c #EB5732",
"W 	c #B00D07",
"X 	c #DF351D",
"Y 	c #FD720D",
"Z 	c #8B6E01",
"` 	c #94928E",
" .	c #A29B8A",
"..	c #685F49",
"+.	c #B4B4B4",
"@.	c #575757",
"#.	c #9AA097",
"$.	c #59B863",
"%.	c #3EA148",
"&.	c #508F3F",
"*.	c #C0632A",
"=.	c #E54C14",
"-.	c #F45E15",
";.	c #ED9406",
">.	c #766425",
",.	c #B8B7B7",
"'.	c #4F4F4B",
").	c #7E7B74",
"!.	c #675F53",
"~.	c #908656",
"{.	c #B1AE36",
"].	c #82B129",
"^.	c #6DB641",
"/.	c #97BA2E",
"(.	c #F0B109",
"_.	c #DCA604",
":.	c #8F741A",
"<.	c #AEACA5",
"[.	c #808080",
"}.	c #946612",
"|.	c #7C350D",
"1.	c #632A05",
"2.	c #6F6417",
"3.	c #7B7133",
"4.	c #786C3C",
"5.	c #8C8468",
"6.	c #837A5C",
"7.	c #918B79",
"8.	c #CECECE",
"9.	c #A4A4A4",
"0.	c #9D5218",
"a.	c #AA1F0E",
"b.	c #AE170D",
"c.	c #6D4242",
"d.	c #9F918E",
"e.	c #694743",
"f.	c #61211F",
"g.	c #ACA6A6",
"  . . . . . . . . . . . . . . ",
"  . + + + + + + + + + + + + . ",
"  @ # + + + + + + + + + + + . ",
"  $ % & + + + + + + + + + + . ",
"  * = - + + + + + + + + + + . ",
"  ; > , ' + + + + + + + + + . ",
"  ) ! ~ { ] + + + + + + + + . ",
"  ^ / ( _ : < [ } | 1 2 3 + . ",
"4 5 6 ( 7 8 9 0 a b c d e f g ",
"h i j k l m n o p q r s t u v ",
"w x y z A B C D E F G H I J K ",
"L M N O P Q R S T U V W X Y Z ",
"  `  ...+.@.#.$.%.&.*.=.-.;.>.",
"  . ,.'.).!.~.{.].^./.(._.:.<.",
"  . + [.}.|.1.2.3.4.5.6.7.8.. ",
"  . + 9.0.a.b.c.+ + + + + + . ",
"  . + + d.e.f.g.+ + + + + + . ",
"  . . . . . . . . . . . . . . "};
