/* XPM */
static char * mime_gpg_unknown_xpm[] = {
"14 18 35 1",
" 	c None",
".	c #8E8E8E",
"+	c #FFFFFF",
"@	c #D39C0A",
"#	c #E4AB0B",
"$	c #DA7D25",
"%	c #AAAAAA",
"&	c #E4B600",
"*	c #E96B00",
"=	c #000000",
"-	c #1D1D1D",
";	c #555555",
">	c #727272",
",	c #E9AD00",
"'	c #E94500",
")	c #C7C7C7",
"!	c #E7BC01",
"~	c #E99400",
"{	c #E02F00",
"]	c #E9BD00",
"^	c #E97800",
"/	c #CA2B04",
"(	c #E7C50E",
"_	c #E9B802",
":	c #E55902",
"<	c #393939",
"[	c #E9CE07",
"}	c #E9AB06",
"|	c #D64707",
"1	c #E9CF16",
"2	c #E69E0E",
"3	c #C86B37",
"4	c #E6CF8D",
"5	c #C47535",
"6	c #853823",
"..............",
".++++++++++++.",
".++++++++++++.",
".++++++++++++.",
".++++++++++++.",
".++++++++++++.",
".+++@#$%%%%++.",
".+++&*=-;;==>.",
".+++,'=)++%==.",
".++!~{%+++.==.",
".++]^/+++)--).",
".+(_:+++.=<++.",
".+[}|++.=.+++.",
".+123++==%+++.",
".+45+++++++++.",
".+6++++;;)+++.",
".++++++==%+++.",
".............."};
