/* XPM */
static char * mime_text_plain_xpm[] = {
"14 18 4 1",
" 	c None",
".	c #8E8E8E",
"+	c #FFFFFF",
"@	c #000000",
"..............",
".++++++++++++.",
".+@@@@@@@++++.",
".++++++++++++.",
".++++++++++++.",
".+@@@@+++++++.",
".++++++++++++.",
".++++++++++++.",
".+@@@@@@@@@@+.",
".++++++++++++.",
".++++++++++++.",
".+@@@@@@@@@@+.",
".++++++++++++.",
".++++++++++++.",
".+@@@@@@@@@++.",
".++++++++++++.",
".++++++++++++.",
".............."};
