/* XPM */
static char * mime_gpg_failed_xpm[] = {
"14 18 31 1",
" 	c None",
".	c #8E8E8E",
"+	c #FFFFFF",
"@	c #D39C0A",
"#	c #E4AB0B",
"$	c #DA7D25",
"%	c #E4B600",
"&	c #E96B00",
"*	c #FF0000",
"=	c #E9AD00",
"-	c #E94500",
";	c #000000",
">	c #E7BC01",
",	c #E99400",
"'	c #E02F00",
")	c #E9BD00",
"!	c #E97800",
"~	c #CA2B04",
"{	c #E7C50E",
"]	c #E9B802",
"^	c #E55902",
"/	c #E9CE07",
"(	c #E9AB06",
"_	c #D64707",
":	c #E9CF16",
"<	c #E69E0E",
"[	c #C86B37",
"}	c #999999",
"|	c #E6CF8D",
"1	c #C47535",
"2	c #853823",
"..............",
".++++++++++++.",
".++++++++++++.",
".++++++++++++.",
".++++++++++++.",
".++++++++++++.",
".+++@#$++++++.",
".+++%&*+++**+.",
".+++=-**+***;.",
".++>,'+****;;.",
".++)!~++**;;+.",
".+{]^++****++.",
".+/(_++*****+.",
".+:<[+**;;**}.",
".+|1++*;;++*;}",
".+2++++;++++;.",
".++++++++++++.",
".............."};
