/* XPM */
static char * mime_image_xpm[] = {
"14 18 134 2",
"  	c None",
". 	c #8E8E8E",
"+ 	c #FFFFFF",
"@ 	c #9F9F9F",
"# 	c #525252",
"$ 	c #979797",
"% 	c #505050",
"& 	c #ADADAD",
"* 	c #A9A9A9",
"= 	c #606060",
"- 	c #777777",
"; 	c #BABABA",
"> 	c #6C6C6C",
", 	c #5A5A5A",
"' 	c #E3E3E3",
") 	c #CACACA",
"! 	c #757575",
"~ 	c #747474",
"{ 	c #74726D",
"] 	c #B7B5AF",
"^ 	c #A2A19E",
"/ 	c #4E4D49",
"( 	c #9E9E9E",
"_ 	c #564513",
": 	c #826A16",
"< 	c #BEBEBE",
"[ 	c #D8D8D8",
"} 	c #999999",
"| 	c #817B6B",
"1 	c #8F8158",
"2 	c #8E805B",
"3 	c #96938D",
"4 	c #8E6E15",
"5 	c #68521F",
"6 	c #746941",
"7 	c #AA8B05",
"8 	c #715C07",
"9 	c #96770C",
"0 	c #C99910",
"a 	c #D9A820",
"b 	c #8F8565",
"c 	c #7D7C6E",
"d 	c #A78C30",
"e 	c #7B6B32",
"f 	c #D6D6D6",
"g 	c #C08A09",
"h 	c #886316",
"i 	c #909090",
"j 	c #63625D",
"k 	c #655A07",
"l 	c #DBBE14",
"m 	c #F8C209",
"n 	c #F2B811",
"o 	c #9C8B67",
"p 	c #3555E4",
"q 	c #0B45D7",
"r 	c #4660C3",
"s 	c #AE9631",
"t 	c #817751",
"u 	c #C7910E",
"v 	c #A97710",
"w 	c #817F7D",
"x 	c #707070",
"y 	c #615112",
"z 	c #D1AF11",
"A 	c #F9C606",
"B 	c #F1BB0E",
"C 	c #CA8436",
"D 	c #92397E",
"E 	c #7B2F84",
"F 	c #785997",
"G 	c #CFAE2E",
"H 	c #856C07",
"I 	c #AC9451",
"J 	c #C29537",
"K 	c #70644D",
"L 	c #8D8D8D",
"M 	c #786A33",
"N 	c #D0B63E",
"O 	c #9FC22D",
"P 	c #71A623",
"Q 	c #A87720",
"R 	c #EB5732",
"S 	c #B00D07",
"T 	c #DF351D",
"U 	c #FD720D",
"V 	c #8B6E01",
"W 	c #94928E",
"X 	c #A29B8A",
"Y 	c #685F49",
"Z 	c #B4B4B4",
"` 	c #575757",
" .	c #9AA097",
"..	c #59B863",
"+.	c #3EA148",
"@.	c #508F3F",
"#.	c #C0632A",
"$.	c #E54C14",
"%.	c #F45E15",
"&.	c #ED9406",
"*.	c #766425",
"=.	c #B8B7B7",
"-.	c #4F4F4B",
";.	c #7E7B74",
">.	c #675F53",
",.	c #908656",
"'.	c #B1AE36",
").	c #82B129",
"!.	c #6DB641",
"~.	c #97BA2E",
"{.	c #F0B109",
"].	c #DCA604",
"^.	c #8F741A",
"/.	c #AEACA5",
"(.	c #808080",
"_.	c #946612",
":.	c #7C350D",
"<.	c #632A05",
"[.	c #6F6417",
"}.	c #7B7133",
"|.	c #786C3C",
"1.	c #8C8468",
"2.	c #837A5C",
"3.	c #918B79",
"4.	c #CECECE",
"5.	c #A4A4A4",
"6.	c #9D5218",
"7.	c #AA1F0E",
"8.	c #AE170D",
"9.	c #6D4242",
"0.	c #9F918E",
"a.	c #694743",
"b.	c #61211F",
"c.	c #ACA6A6",
". . . . . . . . . . . . . . ",
". + + + + + + + + + + + + . ",
"@ # + + + + + + + + + + + . ",
"$ % & + + + + + + + + + + . ",
"* = - + + + + + + + + + + . ",
"; > , ' + + + + + + + + + . ",
") ! ~ { ] + + + + + + + + . ",
"^ / ( _ : < [ } | 1 2 3 + . ",
"4 5 ( 6 7 8 9 0 a b c d e f ",
"g h i j k l m n o p q r s t ",
"u v w x y z A B C D E F G H ",
"I J K L M N O P Q R S T U V ",
"W X Y Z `  ...+.@.#.$.%.&.*.",
". =.-.;.>.,.'.).!.~.{.].^./.",
". + (._.:.<.[.}.|.1.2.3.4.. ",
". + 5.6.7.8.9.+ + + + + + . ",
". + + 0.a.b.c.+ + + + + + . ",
". . . . . . . . . . . . . . "};
