/* XPM */
static char * new_xpm[] = {
"13 10 63 1",
" 	c None",
".	c #360000",
"+	c #430000",
"@	c #370000",
"#	c #FF0000",
"$	c #FFC7C4",
"%	c #FFC7C5",
"&	c #FFC7C3",
"*	c #FFC6C1",
"=	c #FFC6C2",
"-	c #FFC6C3",
";	c #FFC5C1",
">	c #BA0000",
",	c #FFC6C0",
"'	c #FFC1B7",
")	c #FFC2BA",
"!	c #FFC4BE",
"~	c #FF7163",
"{	c #FFAC9F",
"]	c #FFC7C0",
"^	c #FFC5BB",
"/	c #FFC4B7",
"(	c #FFC5BC",
"_	c #FFC4BA",
":	c #FFADA2",
"<	c #FF5846",
"[	c #FFC7C6",
"}	c #FFC6BF",
"|	c #FFC7C2",
"1	c #FFC6BB",
"2	c #FFB7A9",
"3	c #FFAEA1",
"4	c #3B0000",
"5	c #FFC0B8",
"6	c #FFB8A7",
"7	c #FFC6B9",
"8	c #FFC3B7",
"9	c #FFBFB4",
"0	c #FF6A56",
"a	c #FFC6BE",
"b	c #FFC5B7",
"c	c #FFC4B5",
"d	c #FFBFAD",
"e	c #FF8973",
"f	c #FF4C36",
"g	c #FFC2B9",
"h	c #FFC5BA",
"i	c #FFBCAA",
"j	c #FFC2B4",
"k	c #FFC0B3",
"l	c #FF684E",
"m	c #C70000",
"n	c #FFAA9E",
"o	c #FF503D",
"p	c #FF4F39",
"q	c #FF3B21",
"r	c #FF6E54",
"s	c #FF684B",
"t	c #FF9078",
"u	c #FF7E66",
"v	c #FF543B",
"w	c #FF8675",
"x	c #8E0000",
" .+...@..... ",
".#$%&*=$$-;>.",
".-#*,%'*)!#~.",
"@={#]^/(_#:<.",
".[=}#|1]#23:.",
"45&6##7##890.",
".$'#ab#cd#ef@",
".-#g^hijklmn.",
".#opqrstuvwx.",
" ...@......@ "};
