/* XPM */
static char * news_compose_xpm[] = {
"24 24 37 1",
" 	c None",
".	c #000000",
"+	c #828282",
"@	c #979797",
"#	c #0E0E0E",
"$	c #DBDBDB",
"%	c #D9D9D9",
"&	c #010101",
"*	c #D8BE6A",
"=	c #AFAFAF",
"-	c #898989",
";	c #ECECEC",
">	c #121212",
",	c #8E7D45",
"'	c #ECEBE8",
")	c #9D9D9B",
"!	c #404040",
"~	c #EAE9E6",
"{	c #5E5E5E",
"]	c #777777",
"^	c #525252",
"/	c #1C1C1C",
"(	c #515151",
"_	c #797979",
":	c #8C8C8C",
"<	c #B5B5B5",
"[	c #C8C8C8",
"}	c #BABABA",
"|	c #EEEEEE",
"1	c #C1C1C1",
"2	c #757575",
"3	c #AD8E30",
"4	c #756020",
"5	c #A5A5A5",
"6	c #878787",
"7	c #060605",
"8	c #919191",
"                        ",
"                        ",
"                        ",
"                        ",
"             ...        ",
"           ..+@+#  .    ",
"         ..$$.%%&..*.   ",
"        .$==$.-;>.*,.   ",
"      ..==$$$&').*,.    ",
"    ..$=$$$$$!~.*,.     ",
"   .{==$$$]]$^/*,.      ",
"   .=$$$($_]$.*,.:.     ",
"   .$$(($$((.*,.<[.     ",
"   .$(}}($$.*,.-|-.     ",
"   .$$(($$.*,..11<2.    ",
"   .$($$$34..<-<56..    ",
"   .$$$$$7.<-<58..      ",
"   .$$$..<<-58..        ",
"   .$..-<-56..          ",
"   ..<<<56..            ",
"        ..              ",
"                        ",
"                        ",
"                        "};
