/* XPM */
static char * offline_xpm[] = {
"16 16 84 1",
" 	c None",
".	c #AE5040",
"+	c #000000",
"@	c #030303",
"#	c #191919",
"$	c #1C1C1C",
"%	c #B9B9B9",
"&	c #B1B1B1",
"*	c #E98C76",
"=	c #D66757",
"-	c #E0E0E0",
";	c #646464",
">	c #454545",
",	c #424242",
"'	c #DF6C51",
")	c #F0AC9C",
"!	c #FAE7E3",
"~	c #FEFCFC",
"{	c #F6F4F4",
"]	c #E9D7D4",
"^	c #DD9387",
"/	c #AC210F",
"(	c #989898",
"_	c #8E8E8E",
":	c #CACACA",
"<	c #1A1A1A",
"[	c #BF7A6A",
"}	c #F3C3B8",
"|	c #FFFFFF",
"1	c #AAAAAA",
"2	c #E4E4E4",
"3	c #A9A9A9",
"4	c #C3C3C3",
"5	c #F1F1F1",
"6	c #D4A099",
"7	c #921709",
"8	c #EFEFEF",
"9	c #838383",
"0	c #1F1F1F",
"a	c #E27A62",
"b	c #959595",
"c	c #F0EDEC",
"d	c #9D8A86",
"e	c #DCDCDC",
"f	c #A2170A",
"g	c #B2B2B2",
"h	c #7E7E7E",
"i	c #4A4A4A",
"j	c #6E4037",
"k	c #DD664C",
"l	c #F1B9AD",
"m	c #D1D1D1",
"n	c #D16A53",
"o	c #B27F75",
"p	c #A31D0C",
"q	c #790C05",
"r	c #5D5D5D",
"s	c #3C3C3C",
"t	c #171717",
"u	c #D37B68",
"v	c #DA4121",
"w	c #D43819",
"x	c #E58F7F",
"y	c #59504E",
"z	c #C12510",
"A	c #A31609",
"B	c #1B1B1B",
"C	c #7E473B",
"D	c #751D0D",
"E	c #D3918B",
"F	c #B23F34",
"G	c #9A3B32",
"H	c #432F2D",
"I	c #6D4743",
"J	c #861308",
"K	c #4B0903",
"L	c #6E0F06",
"M	c #8F8F8F",
"N	c #775D5B",
"O	c #3E0702",
"P	c #5B0C04",
"Q	c #808080",
"R	c #7C7C7C",
"S	c #636363",
"                ",
"                ",
"                ",
"                ",
"   .+@    #$%   ",
"  &+*++++++=+-  ",
" ;>,')!~{]^/+(  ",
"_:<[}|1234567+8 ",
" 90a|b||8cdef+g ",
"hijkl|1|1mnopqr ",
"stuvwxy+++++zAB ",
" +C+D++EFFG+++++",
"+ + + +FHIJKLJff",
"M+M+M++FINJOPLJJ",
" Q+R+Q+GJJL+++++",
"      S+++++    "};
