/* XPM */
static char * online_xpm[] = {
"16 16 89 1",
" 	c None",
".	c #CACACA",
"+	c #000000",
"@	c #E38A7B",
"#	c #DA6450",
"$	c #9A2410",
"%	c #CE3116",
"&	c #2F0A03",
"*	c #230702",
"=	c #030303",
"-	c #191919",
";	c #1C1C1C",
">	c #B35A4B",
",	c #E98C76",
"'	c #D66757",
")	c #4B4B4B",
"!	c #DF6C51",
"~	c #F0AC9C",
"{	c #FAE7E3",
"]	c #FEFCFC",
"^	c #F6F4F4",
"/	c #E9D7D4",
"(	c #DD9387",
"_	c #AC210F",
":	c #B4B4B4",
"<	c #BF7A6A",
"[	c #F3C3B8",
"}	c #FFFFFF",
"|	c #AAAAAA",
"1	c #E4E4E4",
"2	c #A9A9A9",
"3	c #C3C3C3",
"4	c #F1F1F1",
"5	c #D4A099",
"6	c #921709",
"7	c #282828",
"8	c #E27A62",
"9	c #959595",
"0	c #EFEFEF",
"a	c #F0EDEC",
"b	c #9D8A86",
"c	c #DCDCDC",
"d	c #A2170A",
"e	c #8C5246",
"f	c #DD664C",
"g	c #F1B9AD",
"h	c #D1D1D1",
"i	c #D16A53",
"j	c #B27F75",
"k	c #A31D0C",
"l	c #790C05",
"m	c #232323",
"n	c #D37B68",
"o	c #DA4121",
"p	c #D43819",
"q	c #E58F7F",
"r	c #E0C8C4",
"s	c #E8E6E5",
"t	c #DAD8D7",
"u	c #E0D1CF",
"v	c #B38B87",
"w	c #C35D45",
"x	c #C12510",
"y	c #A31609",
"z	c #E17F6A",
"A	c #D6391A",
"B	c #D13418",
"C	c #CC3015",
"D	c #C72B13",
"E	c #C32711",
"F	c #BE220F",
"G	c #B91D0D",
"H	c #9E1509",
"I	c #6F0C05",
"J	c #840C05",
"K	c #930904",
"L	c #C65B45",
"M	c #B13E28",
"N	c #B62B13",
"O	c #B22711",
"P	c #AE2310",
"Q	c #AA1F0E",
"R	c #A51A0C",
"S	c #A1170A",
"T	c #9D1208",
"U	c #8F0E05",
"V	c #8A0903",
"W	c #640400",
"X	c #8E8E8E",
"                ",
" .++++++++++++. ",
".+@##########$+.",
"+@%%+&&&&&*+%%$+",
"+#%$+=    -;%%%+",
"+>$+,++++++'+$$+",
" ++)!~{]^/(_+++:",
"  +<[}|123456+  ",
" .78}9}}0abcd+: ",
" +efg}|}|hijkl+ ",
" mnopqrstuvwxy+ ",
" +zABCDEFGHIJK+ ",
" +LMNOPQRSTUVW+ ",
" .++++++++++++X ",
"                ",
"                "};
