/* XPM */
static char * preferences_xpm[] = {
"32 32 132 2",
"  	c None",
". 	c #DBDBDB",
"+ 	c #000000",
"@ 	c #CCCCCC",
"# 	c #C6C6C6",
"$ 	c #CAC8C1",
"% 	c #B7B7B7",
"& 	c #EBEBE8",
"* 	c #D8D8D8",
"= 	c #E3E3E3",
"- 	c #F9F8F8",
"; 	c #D9D9D9",
"> 	c #919191",
", 	c #D2D0CC",
"' 	c #F7F7F7",
") 	c #DEDBD6",
"! 	c #B5B5B5",
"~ 	c #8E8E8E",
"{ 	c #8D8D8D",
"] 	c #D2D2D2",
"^ 	c #CACACA",
"/ 	c #D3D2CF",
"( 	c #E3E2E1",
"_ 	c #DFDEDC",
": 	c #DBDAD7",
"< 	c #A4A19C",
"[ 	c #6A6A6A",
"} 	c #292929",
"| 	c #E4E4E4",
"1 	c #FDFDFD",
"2 	c #FCFCFC",
"3 	c #FAFAFA",
"4 	c #F9F9F9",
"5 	c #F8F8F8",
"6 	c #BEBEBE",
"7 	c #202020",
"8 	c #D2D1D0",
"9 	c #50504F",
"0 	c #F6F6F6",
"a 	c #AEAEAE",
"b 	c #131313",
"c 	c #434343",
"d 	c #494746",
"e 	c #E7E7E7",
"f 	c #E8E8E8",
"g 	c #E6E6E6",
"h 	c #E5E5E5",
"i 	c #CDCDCD",
"j 	c #363636",
"k 	c #C8C7C6",
"l 	c #6C6967",
"m 	c #F3F3F3",
"n 	c #E9E9E9",
"o 	c #708295",
"p 	c #CFD6DD",
"q 	c #7C91A7",
"r 	c #D6D5D5",
"s 	c #8A8784",
"t 	c #DADADA",
"u 	c #D6D6D6",
"v 	c #D5D5D5",
"w 	c #D4D4D4",
"x 	c #D3D3D3",
"y 	c #C1C1C1",
"z 	c #7D8C9C",
"A 	c #788DA4",
"B 	c #7F99B3",
"C 	c #1F272F",
"D 	c #ECEBEA",
"E 	c #72706D",
"F 	c #D1D1D1",
"G 	c #D0D0D0",
"H 	c #8D99A5",
"I 	c #748AA2",
"J 	c #849EB9",
"K 	c #4D5F73",
"L 	c #D5D4D3",
"M 	c #6B6A69",
"N 	c #BDBDBD",
"O 	c #CBCBCB",
"P 	c #C9C9C9",
"Q 	c #C8C8C8",
"R 	c #C7C7C7",
"S 	c #C5C5C5",
"T 	c #C4C4C4",
"U 	c #C3C3C3",
"V 	c #7D91A7",
"W 	c #849EBA",
"X 	c #525252",
"Y 	c #787878",
"Z 	c #E2E2E2",
"` 	c #545454",
" .	c #66798F",
"..	c #767676",
"+.	c #DCDCDC",
"@.	c #D7D7D7",
"#.	c #A4A4A4",
"$.	c #E1E1E1",
"%.	c #CECECE",
"&.	c #E0E0E0",
"*.	c #CFCFCF",
"=.	c #DDDDDD",
"-.	c #DFDFDF",
";.	c #A5A5A5",
">.	c #8A8A8A",
",.	c #ABABAB",
"'.	c #B6B6B6",
").	c #888888",
"!.	c #B2B2B2",
"~.	c #7E7E7E",
"{.	c #BBBBBB",
"].	c #BABABA",
"^.	c #B8B8B8",
"/.	c #BFBFBF",
"(.	c #AAAAAA",
"_.	c #7C7C7C",
":.	c #DEDEDE",
"<.	c #C2C2C2",
"[.	c #AFAFAF",
"}.	c #ADADAD",
"|.	c #A3A3A3",
"1.	c #A7A7A7",
"2.	c #BCBCBC",
"3.	c #B4B4B4",
"4.	c #B3B3B3",
"5.	c #ACACAC",
"6.	c #A9A9A9",
"7.	c #A6A6A6",
"8.	c #9C9C9C",
"9.	c #6D6D6D",
"0.	c #828282",
"a.	c #959595",
"      . + @             # + #                                   ",
"      + $ + #         # + % +                                   ",
"        + & +         + * + #                                   ",
"= +     + - + ;     > + + #                                     ",
"+ , + + ' ) + !   ~ + {   ] + + + + + + + + + + + ^             ",
"  + / ( _ : < + [ } ~   ] + | 1 1 2 3 3 4 5 ' ' # + 6           ",
"    + 7 + + 8 9 + [     + = 1 1 2 2 3 3 4 4 ' ' 0 a +           ",
"            b c d +     + e f f f f e e g g g h e i +           ",
"      + + + j + k l +   + e m n n f e e g g g h g ^ +           ",
"    + o p q +   + r s + + h n t ; * u v w x ] ] x y +           ",
"  + z p A B C     + D E + F n * u v w x ] ] F G ] y +           ",
"+ H p I J K +       + L M + N O ^ P Q R # S T U Q 6 +           ",
"+ p V W K +           + 8 X Y g g g h h | | = Z g O +           ",
"` V  .K +               + + ..+.. t t ; * @.u u * y +           ",
"#.` + +                 + $.h ] F G %.i @ O ^ P i 6 +           ",
"                        + &.| F *.%.i @ O ^ P Q @ N +           ",
"                        + +.&.G *.O i i @ O ^ P G y +           ",
"                        + n f g h $.t =.. t t ; -.T +           ",
"                        + e ;.>.,.v g u v w x ] G '.+           ",
"                        + g ).!.~.u * {.].^.% './.% +           ",
"                        + h (._.x :.f h | = Z Z g <.+           ",
"                        + | :.&.. * @.u w x ] ] ; 6 +           ",
"                        + Z t t [.U ;.y }.U |.+.@.N +           ",
"                        + $.; . 1.$./.-.T $.N t u 2.+           ",
"                        + &.@.u a . '.t {.+.3.@.x ].+           ",
"                        + :.u v 4.v a @.[.u (.w x ^.+           ",
"                        + =.x ] }.i 5.v 6.] 6.] ] % +           ",
"                        + . ] ] a u '.:.'.. 3.@.t 7.+           ",
"                        + % a a #.#.[.! |.4.8.|.,.9.+           ",
"                        0.+ + + + + + + + + + + + + a.          ",
"                                                                ",
"                                                                "};
