/* XPM */
static char * privacy_warn_xpm[] = {
"24 24 68 1",
" 	c None",
".	c #FFFFFF",
"+	c #000000",
"@	c #666466",
"#	c #151615",
"$	c #4E504E",
"%	c #808080",
"&	c #828282",
"*	c #080908",
"=	c #2E322E",
"-	c #848784",
";	c #313531",
">	c #CECECE",
",	c #DBDDDB",
"'	c #454945",
")	c #616461",
"!	c #888888",
"~	c #4B4E4B",
"{	c #A3A3A3",
"]	c #676967",
"^	c #F0EDF0",
"/	c #212221",
"(	c #A7A4A7",
"_	c #818181",
":	c #343434",
"<	c #EAEDEA",
"[	c #707070",
"}	c #3A393A",
"|	c #2F342F",
"1	c #676767",
"2	c #323532",
"3	c #0B0B0B",
"4	c #A5A4A5",
"5	c #DFDFDF",
"6	c #030403",
"7	c #D5D5D5",
"8	c #818581",
"9	c #404040",
"0	c #424442",
"a	c #5D635D",
"b	c #060606",
"c	c #383B38",
"d	c #F3F1F3",
"e	c #C7C8C7",
"f	c #F3F5F3",
"g	c #0A0C0A",
"h	c #DEE0DE",
"i	c #767876",
"j	c #C2C5C2",
"k	c #131413",
"l	c #505450",
"m	c #454545",
"n	c #414641",
"o	c #EDEFED",
"p	c #9FA39F",
"q	c #CDD0CD",
"r	c #444A44",
"s	c #BDBFBD",
"t	c #090909",
"u	c #747974",
"v	c #B0B4B0",
"w	c #1A1A1A",
"x	c #EBEDEB",
"y	c #E8EAE8",
"z	c #B3B6B3",
"A	c #7F7F7F",
"B	c #2D312D",
"C	c #353A35",
"........................",
".+@#+$%%%%%%%%%&*++++++.",
".=             -+++++++.",
".;  ++        >++++++++.",
".;  +++      ,+++++++++.",
".;  +++       '++++++++.",
".;  +++      )+!+++++++.",
".;  ++      ~+{..+++++].",
".;  ++     ++^..../++(_.",
".;  ++    +:.....<+[} %.",
".;       }|......12   %.",
".;  +++  34.....56    %.",
".;  +++ 7+.89...09    %.",
".;      ab.c+d..+     %.",
".;      +efg..h+i     %.",
".;     j+.k..)+l      %.",
".;     kmnop6+q       %.",
".;     +rst+u         %.",
".;    v+w+2x          %.",
".;     y+z            %.",
".;                    %.",
".=                    A.",
".+B;;;;;;;;;;;;;;;;;;C+.",
"........................"};
