/* XPM */
static char * privacy_failed_xpm[] = {
"24 24 64 1",
" 	c None",
".	c #FFFFFF",
"+	c #000000",
"@	c #151615",
"#	c #4E504E",
"$	c #808080",
"%	c #828282",
"&	c #080908",
"*	c #FF0000",
"=	c #848784",
"-	c #CECECE",
";	c #313531",
">	c #DBDDDB",
",	c #454945",
"'	c #616461",
")	c #888888",
"!	c #4B4E4B",
"~	c #A3A3A3",
"{	c #676967",
"]	c #F0EDF0",
"^	c #212221",
"/	c #A7A4A7",
"(	c #818181",
"_	c #343434",
":	c #EAEDEA",
"<	c #707070",
"[	c #3A393A",
"}	c #676767",
"|	c #323532",
"1	c #DFDFDF",
"2	c #030403",
"3	c #818581",
"4	c #404040",
"5	c #424442",
"6	c #5D635D",
"7	c #060606",
"8	c #383B38",
"9	c #F3F1F3",
"0	c #C7C8C7",
"a	c #F3F5F3",
"b	c #0A0C0A",
"c	c #DEE0DE",
"d	c #767876",
"e	c #C2C5C2",
"f	c #131413",
"g	c #505450",
"h	c #454545",
"i	c #414641",
"j	c #EDEFED",
"k	c #9FA39F",
"l	c #CDD0CD",
"m	c #444A44",
"n	c #BDBFBD",
"o	c #090909",
"p	c #747974",
"q	c #B0B4B0",
"r	c #1A1A1A",
"s	c #EBEDEB",
"t	c #E8EAE8",
"u	c #B3B6B3",
"v	c #2E322E",
"w	c #7F7F7F",
"x	c #2D312D",
"y	c #353A35",
"........................",
".+.@+#$..$$$$$$%&++++++.",
"..*.  .**.     =+++++++.",
"..**. ****.   -++++++++.",
".;.**.***.   >+++++++++.",
".;.*****.     ,++++++++.",
".; .***.     '+)+++++++.",
".; .****.   !+~..+++++{.",
".;.******. ++]....^++/(.",
".;.**.****._.....:+<[ $.",
"..**. .****......}|   $.",
"..*.   .**......12    $.",
".;.     ...34...54    $.",
".;      67.8+9..+     $.",
".;      +0ab..c+d     $.",
".;     e+.f..'+g      $.",
".;     fhijk2+l       $.",
".;     +mno+p         $.",
".;    q+r+|s          $.",
".;     t+u            $.",
".;                    $.",
".v                    w.",
".+x;;;;;;;;;;;;;;;;;;y+.",
"........................"};
