/* XPM */
static char * privacy_passed_xpm[] = {
"24 24 69 1",
" 	c None",
".	c #FFFFFF",
"+	c #000000",
"@	c #666466",
"#	c #151615",
"$	c #4E504E",
"%	c #808080",
"&	c #08B70A",
"*	c #828282",
"=	c #080908",
"-	c #2E322E",
";	c #848784",
">	c #313531",
",	c #CECECE",
"'	c #DBDDDB",
")	c #454945",
"!	c #616461",
"~	c #888888",
"{	c #4B4E4B",
"]	c #A3A3A3",
"^	c #676967",
"/	c #F0EDF0",
"(	c #212221",
"_	c #A7A4A7",
":	c #818181",
"<	c #343434",
"[	c #EAEDEA",
"}	c #707070",
"|	c #3A393A",
"1	c #2F342F",
"2	c #676767",
"3	c #323532",
"4	c #0B0B0B",
"5	c #A5A4A5",
"6	c #DFDFDF",
"7	c #030403",
"8	c #D5D5D5",
"9	c #818581",
"0	c #404040",
"a	c #424442",
"b	c #5D635D",
"c	c #060606",
"d	c #383B38",
"e	c #F3F1F3",
"f	c #C7C8C7",
"g	c #F3F5F3",
"h	c #0A0C0A",
"i	c #DEE0DE",
"j	c #767876",
"k	c #C2C5C2",
"l	c #131413",
"m	c #505450",
"n	c #454545",
"o	c #414641",
"p	c #EDEFED",
"q	c #9FA39F",
"r	c #CDD0CD",
"s	c #444A44",
"t	c #BDBFBD",
"u	c #090909",
"v	c #747974",
"w	c #B0B4B0",
"x	c #1A1A1A",
"y	c #EBEDEB",
"z	c #E8EAE8",
"A	c #B3B6B3",
"B	c #7F7F7F",
"C	c #2D312D",
"D	c #353A35",
"........................",
".+@#+$%%%%.&.%%*=++++++.",
".-       .&&.  ;+++++++.",
".>      .&&&. ,++++++++.",
".>..   .&&&. '+++++++++.",
".>.&. .&&&.   )++++++++.",
".>.&&.&&&.   !+~+++++++.",
".>.&&&&&.   {+]..+++++^.",
".> .&&&.   ++/....(++_:.",
".>  .&.   +<.....[+}| %.",
".>   .   |1......23   %.",
".>       45.....67    %.",
".>      8+.90...a0    %.",
".>      bc.d+e..+     %.",
".>      +fgh..i+j     %.",
".>     k+.l..!+m      %.",
".>     lnopq7+r       %.",
".>     +stu+v         %.",
".>    w+x+3y          %.",
".>     z+A            %.",
".>                    %.",
".-                    B.",
".+C>>>>>>>>>>>>>>>>>>D+.",
"........................"};
