/* XPM */
static char * privacy_emblem_encrypted_xpm[] = {
"13 16 13 1",
" 	c None",
".	c #000000",
"+	c #FFFFFF",
"@	c #EDEDED",
"#	c #D9D9D9",
"$	c #BDBDBD",
"%	c #BABABA",
"&	c #ECE6C8",
"*	c #C8B971",
"=	c #826D02",
"-	c #B8A751",
";	c #857005",
">	c #D3C78A",
"   ......    ",
"  .+@@###.   ",
"  .@#..##.$  ",
"  .#.$$.#.$  ",
"  .%.$+.%.$  ",
" ..........$ ",
".&********=. ",
".-.*;;;;**=.$",
".&**;...>*=.$",
".-.*;...>*=.$",
".&***;.>**=.$",
".-.**;.>**=.$",
".&********=.$",
".==========.$",
" ..........$ ",
"  $$$$$$$$$  "};
