/* XPM */
static char * properties_xpm[] = {
"32 32 129 2",
"  	c None",
". 	c #000000",
"+ 	c #CFCECA",
"@ 	c #E1E1E0",
"# 	c #97958F",
"$ 	c #898781",
"% 	c #8E8C85",
"& 	c #838078",
"* 	c #7B7973",
"= 	c #67655F",
"- 	c #403F3B",
"; 	c #686661",
"> 	c #7C7A72",
", 	c #CACACA",
"' 	c #DDDCDB",
") 	c #9A9992",
"! 	c #53524E",
"~ 	c #171614",
"{ 	c #767573",
"] 	c #9B9993",
"^ 	c #54524C",
"/ 	c #FAFAFA",
"( 	c #F9F9F9",
"_ 	c #F8F8F8",
": 	c #F7F7F7",
"< 	c #C6C6C6",
"[ 	c #BEBEBE",
"} 	c #7C7B76",
"| 	c #86847D",
"1 	c #9A9996",
"2 	c #B7B6B3",
"3 	c #7D7B75",
"4 	c #F6F6F6",
"5 	c #AEAEAE",
"6 	c #8E8C87",
"7 	c #6B6964",
"8 	c #78756C",
"9 	c #5F5D56",
"0 	c #54534D",
"a 	c #9E9E9E",
"b 	c #E7E7E7",
"c 	c #E6E6E6",
"d 	c #E5E5E5",
"e 	c #CDCDCD",
"f 	c #44433F",
"g 	c #888888",
"h 	c #B0B0B0",
"i 	c #B1B1B1",
"j 	c #DADADA",
"k 	c #D2D2D2",
"l 	c #D3D3D3",
"m 	c #C1C1C1",
"n 	c #E3E3E3",
"o 	c #E9E9E9",
"p 	c #D8D8D8",
"q 	c #E0E0DF",
"r 	c #9F9F9F",
"s 	c #EAEAEA",
"t 	c #CCCCCC",
"u 	c #C8C8C8",
"v 	c #DDDDDD",
"w 	c #EBEBEB",
"x 	c #CBCBCB",
"y 	c #E1E1E1",
"z 	c #8D8B86",
"A 	c #6C6A65",
"B 	c #898989",
"C 	c #E0E0E0",
"D 	c #E4E4E4",
"E 	c #D1D1D1",
"F 	c #44433E",
"G 	c #ACACAC",
"H 	c #BDBDBD",
"I 	c #CECECE",
"J 	c #919191",
"K 	c #6F6F6F",
"L 	c #4D4D4D",
"M 	c #2B2B2B",
"N 	c #0B0B0B",
"O 	c #DCDCDC",
"P 	c #D0D0D0",
"Q 	c #CFCFCF",
"R 	c #C9C9C9",
"S 	c #F1F1F1",
"T 	c #D4D4D4",
"U 	c #A2A2A2",
"V 	c #E8E8E8",
"W 	c #DBDBDB",
"X 	c #D9D9D9",
"Y 	c #DFDFDF",
"Z 	c #C4C4C4",
"` 	c #BBBBBB",
" .	c #828282",
"..	c #636363",
"+.	c #474747",
"@.	c #292929",
"#.	c #A5A5A5",
"$.	c #8A8A8A",
"%.	c #ABABAB",
"&.	c #D5D5D5",
"*.	c #D6D6D6",
"=.	c #B6B6B6",
"-.	c #B2B2B2",
";.	c #7E7E7E",
">.	c #BABABA",
",.	c #B8B8B8",
"'.	c #B7B7B7",
").	c #BFBFBF",
"!.	c #AAAAAA",
"~.	c #7C7C7C",
"{.	c #DEDEDE",
"].	c #E2E2E2",
"^.	c #C2C2C2",
"/.	c #D7D7D7",
"(.	c #AFAFAF",
"_.	c #C3C3C3",
":.	c #ADADAD",
"<.	c #A3A3A3",
"[.	c #A7A7A7",
"}.	c #BCBCBC",
"|.	c #B4B4B4",
"1.	c #B3B3B3",
"2.	c #A9A9A9",
"3.	c #A6A6A6",
"4.	c #A4A4A4",
"5.	c #B5B5B5",
"6.	c #9C9C9C",
"7.	c #6D6D6D",
"8.	c #959595",
"                                                                ",
"                  . . .                                         ",
"              . . . + . . .                                     ",
"              . @ # $ % & .                                     ",
"            . . * = - ; > . . . . . . . . . ,                   ",
"            . ' ) ! ~ { ] ^ . / / ( _ : : < . [                 ",
"            . . } | 1 2 3 . . / / ( ( : : 4 5 .                 ",
"              . 6 7 8 9 0 . a b b c c c d b e .                 ",
"              . . . f . . . g . . . h i d c , .                 ",
"                  . . . j . . . + . . . k l m .                 ",
"                  . n o p . q # $ % & . r k m .                 ",
"                  . s t . . * = - ; > . . u [ .                 ",
"                  . v w . ' ) ! ~ { ] ^ . c x .                 ",
"                  . n w . . } | 1 2 3 . . p m .                 ",
"                  . y d k . z A 8 9 0 . B e [ .                 ",
"                  . C D E . . . F . . . G t H .                 ",
"  I i J K L M N N . O C P Q x . . . x , R P m . N N M L K J i I ",
"  _ S s c O j T U . o V c d y j v W j j X Y Z . U T j O c s S _ ",
"  T ` a  ...+.M @.. b #.$.%.&.c *.&.T l k P =.. @.M +... .a ` T ",
"                  . c g -.;.*.p ` >.,.'.=.).'..                 ",
"                  . d !.~.l {.V d D n ].].c ^..                 ",
"                  . D {.C W p /.*.T l k k X [ .                 ",
"                  . ].j j (._.#.m :._.<.O /.H .                 ",
"                  . y X W [.y ).Y Z y H j *.}..                 ",
"                  . C /.*.5 W =.j ` O |./.l >..                 ",
"                  . {.*.&.1.&.5 /.(.*.!.T l ,..                 ",
"                  . v l k :.e G &.2.k 2.k k '..                 ",
"                  . W k k 5 *.=.{.=.W |./.j 3..                 ",
"                  . '.5 5 4.4.(.5.<.1.6.<.%.7..                 ",
"                   .. . . . . . . . . . . . . 8.                ",
"                                                                ",
"                                                                "};
