/* XPM */
static char * queue_close_hrm_mark_xpm[] = {
"16 16 86 1",
" 	c None",
".	c #686868",
"+	c #3E3931",
"@	c #3E3118",
"#	c #5D5545",
"$	c #FFFFFF",
"%	c #707070",
"&	c #8D8D8D",
"*	c #DCDCDC",
"=	c #C8BAA1",
"-	c #C79A40",
";	c #C29F58",
">	c #786D58",
",	c #676767",
"'	c #000000",
")	c #8E8E8E",
"!	c #EAEAEA",
"~	c #F6F6F6",
"{	c #A9A49C",
"]	c #A47E33",
"^	c #ECBB56",
"/	c #DAC18D",
"(	c #7A6F5A",
"_	c #DEDEDE",
":	c #F8F8F8",
"<	c #FBFBFB",
"[	c #ABA69D",
"}	c #CDA554",
"|	c #625843",
"1	c #424242",
"2	c #D9D9DA",
"3	c #E8E8E8",
"4	c #FDFDFD",
"5	c #A4A19A",
"6	c #C39942",
"7	c #D8D8D8",
"8	c #E6E5E5",
"9	c #C4C3C1",
"0	c #F07D98",
"a	c #EB6C8D",
"b	c #F1F1F2",
"c	c #F2F2F3",
"d	c #EDEDEE",
"e	c #DA4873",
"f	c #E66281",
"g	c #828283",
"h	c #D9D9D9",
"i	c #EDEDED",
"j	c #DFDFDF",
"k	c #DDDEDE",
"l	c #DD4D73",
"m	c #818182",
"n	c #C6C6C6",
"o	c #BABABA",
"p	c #B9B9B9",
"q	c #BBBBBB",
"r	c #DF5175",
"s	c #D9466F",
"t	c #E15577",
"u	c #121212",
"v	c #665E61",
"w	c #343535",
"x	c #343434",
"y	c #635B5D",
"z	c #BD4E6C",
"A	c #D8446E",
"B	c #E35979",
"C	c #D43C6A",
"D	c #E35E85",
"E	c #DB4971",
"F	c #DD4E73",
"G	c #DB4A71",
"H	c #E25A87",
"I	c #D03E68",
"J	c #CE4067",
"K	c #CC4266",
"L	c #D23C69",
"M	c #CA4465",
"N	c #DC4B82",
"O	c #C83561",
"P	c #BE315A",
"Q	c #C0315B",
"R	c #C63460",
"S	c #B82E55",
"T	c #CE3865",
"U	c #B02A50",
"   .+@#      $$ ",
" %&*=-;>,   $'$ ",
" )!~{]^/(  $''$ ",
"._:<[$$^}|$'''$ ",
"12345$'$6$'''$' ",
"178:9$''$'''$0a'",
",7bcd$'''''$efe'",
" ghijk$'''$llll'",
" %mnopq$'$rstst'",
"  uvwxyz$rABCBC'",
"  'DEDEFlGrstst'",
"  'HIHIJJIKLMLM'",
"  'NONOPQRSTUTU'",
"   '''''''''''' ",
"                ",
"                "};
