/* XPM */
static char * queue_close_mark_xpm[] = {
"16 16 105 2",
"  	c None",
". 	c #686868",
"+ 	c #3E3931",
"@ 	c #3E3118",
"# 	c #5D5545",
"$ 	c #FFFFFF",
"% 	c #707070",
"& 	c #8D8D8D",
"* 	c #DCDCDC",
"= 	c #C8BAA1",
"- 	c #C79A40",
"; 	c #C29F58",
"> 	c #786D58",
", 	c #676767",
"' 	c #000000",
") 	c #8E8E8E",
"! 	c #EAEAEA",
"~ 	c #F6F6F6",
"{ 	c #A9A49C",
"] 	c #A47E33",
"^ 	c #ECBB56",
"/ 	c #DAC18D",
"( 	c #7A6F5A",
"_ 	c #DEDEDE",
": 	c #F8F8F8",
"< 	c #FBFBFB",
"[ 	c #ABA69D",
"} 	c #CDA554",
"| 	c #625843",
"1 	c #424242",
"2 	c #D9D9DA",
"3 	c #E8E8E8",
"4 	c #FDFDFD",
"5 	c #A4A19A",
"6 	c #C39942",
"7 	c #D8D8D8",
"8 	c #E6E5E5",
"9 	c #C4C3C1",
"0 	c #AAD3FC",
"a 	c #94C4FA",
"b 	c #F1F1F2",
"c 	c #F2F2F3",
"d 	c #EDEDEE",
"e 	c #90C2FA",
"f 	c #80B9F8",
"g 	c #639EF1",
"h 	c #828283",
"i 	c #D9D9D9",
"j 	c #EDEDED",
"k 	c #DFDFDF",
"l 	c #DDDEDE",
"m 	c #83BBF9",
"n 	c #7CB4F8",
"o 	c #66A0F2",
"p 	c #4680E5",
"q 	c #818182",
"r 	c #C6C6C6",
"s 	c #BABABA",
"t 	c #B9B9B9",
"u 	c #BBBBBB",
"v 	c #7DB5F8",
"w 	c #71ACF6",
"x 	c #5895EE",
"y 	c #386FDE",
"z 	c #121212",
"A 	c #666869",
"B 	c #343535",
"C 	c #343434",
"D 	c #606265",
"E 	c #88AFD5",
"F 	c #74AEF7",
"G 	c #65A1F4",
"H 	c #4D88EA",
"I 	c #3468D5",
"J 	c #CBE7FD",
"K 	c #B1D8FB",
"L 	c #9FCFFA",
"M 	c #93C6F9",
"N 	c #87BEF9",
"O 	c #7FB9F8",
"P 	c #7AB3F8",
"Q 	c #5691F0",
"R 	c #427EE5",
"S 	c #2F61CC",
"T 	c #C0E1FD",
"U 	c #9BC9F9",
"V 	c #80B8F6",
"W 	c #74AEF6",
"X 	c #6FAAF5",
"Y 	c #6BA5F4",
"Z 	c #639FF3",
"` 	c #5A94F0",
" .	c #417CE4",
"..	c #3469D8",
"+.	c #2957BE",
"@.	c #AAD4FB",
"#.	c #70AAF3",
"$.	c #538EEC",
"%.	c #4F89EA",
"&.	c #4F8AEC",
"*.	c #4B87EA",
"=.	c #4683E8",
"-.	c #4076E1",
";.	c #356AD8",
">.	c #254EAB",
"      . + @ #             $ $   ",
"  % & * = - ; > ,       $ ' $   ",
"  ) ! ~ { ] ^ / (     $ ' ' $   ",
". _ : < [ $ $ ^ } | $ ' ' ' $   ",
"1 2 3 4 5 $ ' $ 6 $ ' ' ' $ '   ",
"1 7 8 : 9 $ ' ' $ ' ' ' $ 0 a ' ",
", 7 b c d $ ' ' ' ' ' $ e f g ' ",
"  h i j k l $ ' ' ' $ m n o p ' ",
"  % q r s t u $ ' $ m v w x y ' ",
"    z A B C D E $ m v F G H I ' ",
"    ' J K L M N O P w G Q R S ' ",
"    ' T U V W X Y Z ` H  ...+.' ",
"    ' @.#.$.%.&.*.=.-.;.S +.>.' ",
"      ' ' ' ' ' ' ' ' ' ' ' '   ",
"                                ",
"                                "};
