/* XPM */
static char * queue_open_hrm_mark_xpm[] = {
"16 16 79 1",
" 	c None",
".	c #686868",
"+	c #3E3931",
"@	c #3E3118",
"#	c #5D5545",
"$	c #FFFFFF",
"%	c #707070",
"&	c #8D8D8D",
"*	c #DCDCDC",
"=	c #C8BAA1",
"-	c #C79A40",
";	c #C29F58",
">	c #786D58",
",	c #676767",
"'	c #000000",
")	c #8E8E8E",
"!	c #EAEAEA",
"~	c #F6F6F6",
"{	c #A9A49C",
"]	c #A47E33",
"^	c #ECBB56",
"/	c #DAC18D",
"(	c #7A6F5A",
"_	c #DEDEDE",
":	c #F8F8F8",
"<	c #FBFBFB",
"[	c #ABA69D",
"}	c #CDA554",
"|	c #625843",
"1	c #424242",
"2	c #D9D9DA",
"3	c #E8E8E8",
"4	c #FDFDFD",
"5	c #A4A19A",
"6	c #C39942",
"7	c #D8D8D8",
"8	c #E6E5E5",
"9	c #C4C3C1",
"0	c #A63160",
"a	c #8B283D",
"b	c #F1F1F2",
"c	c #F2F2F3",
"d	c #EDEDEE",
"e	c #752637",
"f	c #5A151D",
"g	c #AB3265",
"h	c #121212",
"i	c #828283",
"j	c #D9D9D9",
"k	c #EDEDED",
"l	c #DFDFDF",
"m	c #DDDEDE",
"n	c #EB6C8D",
"o	c #6C212F",
"p	c #7A293C",
"q	c #0A0A0A",
"r	c #95767D",
"s	c #818182",
"t	c #C6C6C6",
"u	c #BABABA",
"v	c #B9B9B9",
"w	c #BBBBBB",
"x	c #E65F7C",
"y	c #D43B6A",
"z	c #712434",
"A	c #C96988",
"B	c #675F61",
"C	c #343535",
"D	c #343434",
"E	c #635A5C",
"F	c #C65E74",
"G	c #972E4C",
"H	c #F1809B",
"I	c #D13872",
"J	c #6C1F30",
"K	c #EE7595",
"L	c #852C3F",
"M	c #DF5089",
"N	c #AF2A4F",
"   .+@#      $$ ",
" %&*=-;>,   $'$ ",
" )!~{]^/(  $''$ ",
"._:<[$$^}|$'''$ ",
"12345$'$6$'''$' ",
"178:9$''$'''$0a'",
",7bcd$'''''$efg'",
"hijklm$'''$n'op'",
"qrstuvw$'$xy'oz'",
" qABCDEF$xyxG'z'",
" 'HIxyxyxyxyx'J'",
"  'KyxyxyxyxyL''",
"  'MyNyNyNyNyN''",
"   '''''''''''' ",
"                ",
"                "};
