/* XPM */
static char * queue_open_hrm_xpm[] = {
"16 16 103 2",
"  	c None",
". 	c #686868",
"+ 	c #3E3931",
"@ 	c #3E3118",
"# 	c #5D5545",
"$ 	c #707070",
"% 	c #8D8D8D",
"& 	c #DCDCDC",
"* 	c #C8BAA1",
"= 	c #C79A40",
"- 	c #C29F58",
"; 	c #786D58",
"> 	c #676767",
", 	c #8E8E8E",
"' 	c #EAEAEA",
") 	c #F6F6F6",
"! 	c #A9A49C",
"~ 	c #A47E33",
"{ 	c #ECBB56",
"] 	c #DAC18D",
"^ 	c #7A6F5A",
"/ 	c #DEDEDE",
"( 	c #F8F8F8",
"_ 	c #FBFBFB",
": 	c #ABA69D",
"< 	c #A27A29",
"[ 	c #EBB13E",
"} 	c #CDA554",
"| 	c #625843",
"1 	c #424242",
"2 	c #D9D9DA",
"3 	c #E8E8E8",
"4 	c #FDFDFD",
"5 	c #A4A19A",
"6 	c #7B5C1E",
"7 	c #E3AB3B",
"8 	c #E2AE45",
"9 	c #C39942",
"0 	c #352A15",
"a 	c #000000",
"b 	c #D8D8D8",
"c 	c #E6E5E5",
"d 	c #C4C3C1",
"e 	c #575042",
"f 	c #AD9970",
"g 	c #E2D0A9",
"h 	c #C0B092",
"i 	c #343028",
"j 	c #B7326A",
"k 	c #A63160",
"l 	c #BB326C",
"m 	c #8B283D",
"n 	c #F1F1F2",
"o 	c #F2F2F3",
"p 	c #EDEDEE",
"q 	c #C4C4C4",
"r 	c #777777",
"s 	c #E5E5E4",
"t 	c #B1B1B1",
"u 	c #565656",
"v 	c #752637",
"w 	c #5A151D",
"x 	c #AB3265",
"y 	c #121212",
"z 	c #828283",
"A 	c #D9D9D9",
"B 	c #EDEDED",
"C 	c #DFDFDF",
"D 	c #DDDEDE",
"E 	c #EAEAE9",
"F 	c #C5C5C5",
"G 	c #737373",
"H 	c #C6657E",
"I 	c #F1809B",
"J 	c #EB6C8D",
"K 	c #6C212F",
"L 	c #7A293C",
"M 	c #0A0A0A",
"N 	c #95767D",
"O 	c #818182",
"P 	c #C6C6C6",
"Q 	c #BABABA",
"R 	c #B9B9B9",
"S 	c #BBBBBB",
"T 	c #797979",
"U 	c #8B636C",
"V 	c #C83F69",
"W 	c #E65F7C",
"X 	c #D43B6A",
"Y 	c #712434",
"Z 	c #C96988",
"` 	c #675F61",
" .	c #343535",
"..	c #343434",
"+.	c #635A5C",
"@.	c #C65E74",
"#.	c #972E4C",
"$.	c #D13872",
"%.	c #6C1F30",
"&.	c #EE7595",
"*.	c #852C3F",
"=.	c #DF5089",
"-.	c #AF2A4F",
"      . + @ #                   ",
"  $ % & * = - ; >               ",
"  , ' ) ! ~ { ] ^               ",
". / ( _ : < [ { } |             ",
"1 2 3 4 5 6 7 8 9 0 a a a a a   ",
"1 b c ( d e f g h i j k l k m a ",
"> b n o p q r s t u a a v w x a ",
"y z A B C D E F G H I J a K L a ",
"M N O P Q R S T U V W X a K Y a ",
"  M Z `  ...+.@.V W X W #.a Y a ",
"  a I $.W X W X W X W X W a %.a ",
"    a &.X W X W X W X W X *.a a ",
"    a =.X -.X -.X -.X -.X -.a a ",
"      a a a a a a a a a a a a   ",
"                                ",
"                                "};
