/* XPM */
static char * queue_open_mark_xpm[] = {
"16 16 97 2",
"  	c None",
". 	c #686868",
"+ 	c #3E3931",
"@ 	c #3E3118",
"# 	c #5D5545",
"$ 	c #FFFFFF",
"% 	c #707070",
"& 	c #8D8D8D",
"* 	c #DCDCDC",
"= 	c #C8BAA1",
"- 	c #C79A40",
"; 	c #C29F58",
"> 	c #786D58",
", 	c #676767",
"' 	c #000000",
") 	c #8E8E8E",
"! 	c #EAEAEA",
"~ 	c #F6F6F6",
"{ 	c #A9A49C",
"] 	c #A47E33",
"^ 	c #ECBB56",
"/ 	c #DAC18D",
"( 	c #7A6F5A",
"_ 	c #DEDEDE",
": 	c #F8F8F8",
"< 	c #FBFBFB",
"[ 	c #ABA69D",
"} 	c #CDA554",
"| 	c #625843",
"1 	c #424242",
"2 	c #D9D9DA",
"3 	c #E8E8E8",
"4 	c #FDFDFD",
"5 	c #A4A19A",
"6 	c #C39942",
"7 	c #D8D8D8",
"8 	c #E6E5E5",
"9 	c #C4C3C1",
"0 	c #4C88ED",
"a 	c #5792F1",
"b 	c #F1F1F2",
"c 	c #F2F2F3",
"d 	c #EDEDEE",
"e 	c #224AA4",
"f 	c #2957BE",
"g 	c #346ADB",
"h 	c #121212",
"i 	c #828283",
"j 	c #D9D9D9",
"k 	c #EDEDED",
"l 	c #DFDFDF",
"m 	c #DDDEDE",
"n 	c #80BBF1",
"o 	c #1D3E8C",
"p 	c #2650B0",
"q 	c #0A0A0A",
"r 	c #808D97",
"s 	c #818182",
"t 	c #C6C6C6",
"u 	c #BABABA",
"v 	c #B9B9B9",
"w 	c #BBBBBB",
"x 	c #9ECEF9",
"y 	c #67A7EB",
"z 	c #1C3A80",
"A 	c #204396",
"B 	c #95B5D1",
"C 	c #636669",
"D 	c #343535",
"E 	c #343434",
"F 	c #5F6265",
"G 	c #8AB1D4",
"H 	c #98CBF9",
"I 	c #92C7F8",
"J 	c #71AEEF",
"K 	c #3470CA",
"L 	c #1D3D88",
"M 	c #AAD4F8",
"N 	c #94C9F9",
"O 	c #93C8F8",
"P 	c #80BDF5",
"Q 	c #6BACEB",
"R 	c #1B3781",
"S 	c #9BCCF9",
"T 	c #88BFF7",
"U 	c #86BEF7",
"V 	c #84BEF7",
"W 	c #7FBAF6",
"X 	c #5E9EEA",
"Y 	c #3064BF",
"Z 	c #76B1F4",
"` 	c #75B1F5",
" .	c #70AEF4",
"..	c #6FADF4",
"+.	c #67A7F1",
"@.	c #64A4EF",
"#.	c #498BE7",
"      . + @ #             $ $   ",
"  % & * = - ; > ,       $ ' $   ",
"  ) ! ~ { ] ^ / (     $ ' ' $   ",
". _ : < [ $ $ ^ } | $ ' ' ' $   ",
"1 2 3 4 5 $ ' $ 6 $ ' ' ' $ '   ",
"1 7 8 : 9 $ ' ' $ ' ' ' $ 0 a ' ",
", 7 b c d $ ' ' ' ' ' $ e f g ' ",
"h i j k l m $ ' ' ' $ n ' o p ' ",
"q r s t u v w $ ' $ x y ' z A ' ",
"  q B C D E F G $ H I J K ' L ' ",
"  ' M N N O O O O O I P Q ' R ' ",
"    ' S T U U U U U V W X Y ' ' ",
"    ' Z `  . . ... ...+.@.#.' ' ",
"      ' ' ' ' ' ' ' ' ' ' ' '   ",
"                                ",
"                                "};
