/* XPM */
static char * queue_open_xpm[] = {
"16 16 123 2",
"  	c None",
". 	c #686868",
"+ 	c #3E3931",
"@ 	c #3E3118",
"# 	c #5D5545",
"$ 	c #707070",
"% 	c #8D8D8D",
"& 	c #DCDCDC",
"* 	c #C8BAA1",
"= 	c #C79A40",
"- 	c #C29F58",
"; 	c #786D58",
"> 	c #676767",
", 	c #8E8E8E",
"' 	c #EAEAEA",
") 	c #F6F6F6",
"! 	c #A9A49C",
"~ 	c #A47E33",
"{ 	c #ECBB56",
"] 	c #DAC18D",
"^ 	c #7A6F5A",
"/ 	c #DEDEDE",
"( 	c #F8F8F8",
"_ 	c #FBFBFB",
": 	c #ABA69D",
"< 	c #A27A29",
"[ 	c #EBB13E",
"} 	c #CDA554",
"| 	c #625843",
"1 	c #424242",
"2 	c #D9D9DA",
"3 	c #E8E8E8",
"4 	c #FDFDFD",
"5 	c #A4A19A",
"6 	c #7B5C1E",
"7 	c #E3AB3B",
"8 	c #E2AE45",
"9 	c #C39942",
"0 	c #352A15",
"a 	c #000000",
"b 	c #D8D8D8",
"c 	c #E6E5E5",
"d 	c #C4C3C1",
"e 	c #575042",
"f 	c #AD9970",
"g 	c #E2D0A9",
"h 	c #C0B092",
"i 	c #343028",
"j 	c #538FEF",
"k 	c #4780EC",
"l 	c #4C88ED",
"m 	c #5792F1",
"n 	c #F1F1F2",
"o 	c #F2F2F3",
"p 	c #EDEDEE",
"q 	c #C4C4C4",
"r 	c #777777",
"s 	c #E5E5E4",
"t 	c #B1B1B1",
"u 	c #565656",
"v 	c #224AA4",
"w 	c #2957BE",
"x 	c #346ADB",
"y 	c #121212",
"z 	c #828283",
"A 	c #D9D9D9",
"B 	c #EDEDED",
"C 	c #DFDFDF",
"D 	c #DDDEDE",
"E 	c #EAEAE9",
"F 	c #C5C5C5",
"G 	c #737373",
"H 	c #A7C0D4",
"I 	c #B8DDFB",
"J 	c #80BBF1",
"K 	c #1D3E8C",
"L 	c #2650B0",
"M 	c #0A0A0A",
"N 	c #808D97",
"O 	c #818182",
"P 	c #C6C6C6",
"Q 	c #BABABA",
"R 	c #B9B9B9",
"S 	c #BBBBBB",
"T 	c #797979",
"U 	c #798691",
"V 	c #A0C8EA",
"W 	c #9ECEF9",
"X 	c #67A7EB",
"Y 	c #1C3A80",
"Z 	c #204396",
"` 	c #95B5D1",
" .	c #636669",
"..	c #343535",
"+.	c #343434",
"@.	c #5F6265",
"#.	c #8AB1D4",
"$.	c #92C0E9",
"%.	c #98CBF9",
"&.	c #92C7F8",
"*.	c #71AEEF",
"=.	c #3470CA",
"-.	c #1D3D88",
";.	c #AAD4F8",
">.	c #94C9F9",
",.	c #93C8F8",
"'.	c #80BDF5",
").	c #6BACEB",
"!.	c #1B3781",
"~.	c #9BCCF9",
"{.	c #88BFF7",
"].	c #86BEF7",
"^.	c #84BEF7",
"/.	c #7FBAF6",
"(.	c #5E9EEA",
"_.	c #3064BF",
":.	c #76B1F4",
"<.	c #75B1F5",
"[.	c #70AEF4",
"}.	c #6FADF4",
"|.	c #67A7F1",
"1.	c #64A4EF",
"2.	c #498BE7",
"      . + @ #                   ",
"  $ % & * = - ; >               ",
"  , ' ) ! ~ { ] ^               ",
". / ( _ : < [ { } |             ",
"1 2 3 4 5 6 7 8 9 0 a a a a a   ",
"1 b c ( d e f g h i j k k l m a ",
"> b n o p q r s t u a a v w x a ",
"y z A B C D E F G H I J a K L a ",
"M N O P Q R S T U V W X a Y Z a ",
"  M `  ...+.@.#.$.%.&.*.=.a -.a ",
"  a ;.>.>.,.,.,.,.,.&.'.).a !.a ",
"    a ~.{.].].].].].^./.(._.a a ",
"    a :.<.[.[.[.}.[.}.|.1.2.a a ",
"      a a a a a a a a a a a a   ",
"                                ",
"                                "};
