/* XPM */
static char * queue_close_hrm_xpm[] = {
"16 16 110 2",
"  	c None",
". 	c #686868",
"+ 	c #3E3931",
"@ 	c #3E3118",
"# 	c #5D5545",
"$ 	c #707070",
"% 	c #8D8D8D",
"& 	c #DCDCDC",
"* 	c #C8BAA1",
"= 	c #C79A40",
"- 	c #C29F58",
"; 	c #786D58",
"> 	c #676767",
", 	c #8E8E8E",
"' 	c #EAEAEA",
") 	c #F6F6F6",
"! 	c #A9A49C",
"~ 	c #A47E33",
"{ 	c #ECBB56",
"] 	c #DAC18D",
"^ 	c #7A6F5A",
"/ 	c #DEDEDE",
"( 	c #F8F8F8",
"_ 	c #FBFBFB",
": 	c #ABA69D",
"< 	c #A27A29",
"[ 	c #EBB13E",
"} 	c #CDA554",
"| 	c #625843",
"1 	c #424242",
"2 	c #D9D9DA",
"3 	c #E8E8E8",
"4 	c #FDFDFD",
"5 	c #A4A19A",
"6 	c #7B5C1E",
"7 	c #E3AB3B",
"8 	c #E2AE45",
"9 	c #C39942",
"0 	c #352A15",
"a 	c #000000",
"b 	c #D8D8D8",
"c 	c #E6E5E5",
"d 	c #C4C3C1",
"e 	c #575042",
"f 	c #AD9970",
"g 	c #E2D0A9",
"h 	c #C0B092",
"i 	c #343028",
"j 	c #EC7190",
"k 	c #F07D98",
"l 	c #EB6C8D",
"m 	c #F1F1F2",
"n 	c #F2F2F3",
"o 	c #EDEDEE",
"p 	c #C4C4C4",
"q 	c #777777",
"r 	c #E5E5E4",
"s 	c #B1B1B1",
"t 	c #635B5D",
"u 	c #DD4F77",
"v 	c #E66281",
"w 	c #DA4873",
"x 	c #828283",
"y 	c #D9D9D9",
"z 	c #EDEDED",
"A 	c #DFDFDF",
"B 	c #DDDEDE",
"C 	c #EAEAE9",
"D 	c #C5C5C5",
"E 	c #737373",
"F 	c #BC4D6A",
"G 	c #DD4D73",
"H 	c #818182",
"I 	c #C6C6C6",
"J 	c #BABABA",
"K 	c #B9B9B9",
"L 	c #BBBBBB",
"M 	c #797979",
"N 	c #885E69",
"O 	c #CE4D6F",
"P 	c #DF5175",
"Q 	c #D9466F",
"R 	c #E15577",
"S 	c #121212",
"T 	c #665E61",
"U 	c #343535",
"V 	c #343434",
"W 	c #BD4E6C",
"X 	c #CF4D70",
"Y 	c #D8446E",
"Z 	c #E35979",
"` 	c #D43C6A",
" .	c #E35E85",
"..	c #DB4971",
"+.	c #DD4E73",
"@.	c #DB4A71",
"#.	c #E25A87",
"$.	c #D03E68",
"%.	c #CE4067",
"&.	c #CC4266",
"*.	c #D23C69",
"=.	c #CA4465",
"-.	c #DC4B82",
";.	c #C83561",
">.	c #BE315A",
",.	c #C0315B",
"'.	c #C63460",
").	c #B82E55",
"!.	c #CE3865",
"~.	c #B02A50",
"      . + @ #                   ",
"  $ % & * = - ; >               ",
"  , ' ) ! ~ { ] ^               ",
". / ( _ : < [ { } |             ",
"1 2 3 4 5 6 7 8 9 0 a a a a a   ",
"1 b c ( d e f g h i j k l k l a ",
"> b m n o p q r s t u v w v w a ",
"  x y z A B C D E F G G G G G a ",
"  $ H I J K L M N O P Q R Q R a ",
"    S T U V t W X P Y Z ` Z ` a ",
"    a  ... ...+.G @.P Q R Q R a ",
"    a #.$.#.$.%.%.$.&.*.=.*.=.a ",
"    a -.;.-.;.>.,.'.).!.~.!.~.a ",
"      a a a a a a a a a a a a   ",
"                                ",
"                                "};
