/* XPM */
static char * queue_close_xpm[] = {
"16 16 133 2",
"  	c None",
". 	c #686868",
"+ 	c #3E3931",
"@ 	c #3E3118",
"# 	c #5D5545",
"$ 	c #707070",
"% 	c #8D8D8D",
"& 	c #DCDCDC",
"* 	c #C8BAA1",
"= 	c #C79A40",
"- 	c #C29F58",
"; 	c #786D58",
"> 	c #676767",
", 	c #8E8E8E",
"' 	c #EAEAEA",
") 	c #F6F6F6",
"! 	c #A9A49C",
"~ 	c #A47E33",
"{ 	c #ECBB56",
"] 	c #DAC18D",
"^ 	c #7A6F5A",
"/ 	c #DEDEDE",
"( 	c #F8F8F8",
"_ 	c #FBFBFB",
": 	c #ABA69D",
"< 	c #A27A29",
"[ 	c #EBB13E",
"} 	c #CDA554",
"| 	c #625843",
"1 	c #424242",
"2 	c #D9D9DA",
"3 	c #E8E8E8",
"4 	c #FDFDFD",
"5 	c #A4A19A",
"6 	c #7B5C1E",
"7 	c #E3AB3B",
"8 	c #E2AE45",
"9 	c #C39942",
"0 	c #352A15",
"a 	c #000000",
"b 	c #D8D8D8",
"c 	c #E6E5E5",
"d 	c #C4C3C1",
"e 	c #575042",
"f 	c #AD9970",
"g 	c #E2D0A9",
"h 	c #C0B092",
"i 	c #343028",
"j 	c #CDE6FD",
"k 	c #B9DBFD",
"l 	c #B4D8FC",
"m 	c #AAD3FC",
"n 	c #94C4FA",
"o 	c #F1F1F2",
"p 	c #F2F2F3",
"q 	c #EDEDEE",
"r 	c #C4C4C4",
"s 	c #777777",
"t 	c #E5E5E4",
"u 	c #B1B1B1",
"v 	c #616365",
"w 	c #A9D2FB",
"x 	c #98C9FA",
"y 	c #90C2FA",
"z 	c #80B9F8",
"A 	c #639EF1",
"B 	c #828283",
"C 	c #D9D9D9",
"D 	c #EDEDED",
"E 	c #DFDFDF",
"F 	c #DDDEDE",
"G 	c #EAEAE9",
"H 	c #C5C5C5",
"I 	c #737373",
"J 	c #89ADD2",
"K 	c #8EC0F9",
"L 	c #83BBF9",
"M 	c #7CB4F8",
"N 	c #66A0F2",
"O 	c #4680E5",
"P 	c #818182",
"Q 	c #C6C6C6",
"R 	c #BABABA",
"S 	c #B9B9B9",
"T 	c #BBBBBB",
"U 	c #797979",
"V 	c #738290",
"W 	c #86B5E9",
"X 	c #7DB5F8",
"Y 	c #71ACF6",
"Z 	c #5895EE",
"` 	c #386FDE",
" .	c #121212",
"..	c #666869",
"+.	c #343535",
"@.	c #343434",
"#.	c #606265",
"$.	c #88AFD5",
"%.	c #74AEF7",
"&.	c #65A1F4",
"*.	c #4D88EA",
"=.	c #3468D5",
"-.	c #CBE7FD",
";.	c #B1D8FB",
">.	c #9FCFFA",
",.	c #93C6F9",
"'.	c #87BEF9",
").	c #7FB9F8",
"!.	c #7AB3F8",
"~.	c #5691F0",
"{.	c #427EE5",
"].	c #2F61CC",
"^.	c #C0E1FD",
"/.	c #9BC9F9",
"(.	c #80B8F6",
"_.	c #74AEF6",
":.	c #6FAAF5",
"<.	c #6BA5F4",
"[.	c #639FF3",
"}.	c #5A94F0",
"|.	c #417CE4",
"1.	c #3469D8",
"2.	c #2957BE",
"3.	c #AAD4FB",
"4.	c #70AAF3",
"5.	c #538EEC",
"6.	c #4F89EA",
"7.	c #4F8AEC",
"8.	c #4B87EA",
"9.	c #4683E8",
"0.	c #4076E1",
"a.	c #356AD8",
"b.	c #254EAB",
"      . + @ #                   ",
"  $ % & * = - ; >               ",
"  , ' ) ! ~ { ] ^               ",
". / ( _ : < [ { } |             ",
"1 2 3 4 5 6 7 8 9 0 a a a a a   ",
"1 b c ( d e f g h i j k l m n a ",
"> b o p q r s t u v w x y z A a ",
"  B C D E F G H I J K L M N O a ",
"  $ P Q R S T U V W L X Y Z ` a ",
"     ...+.@.#.$.W L X %.&.*.=.a ",
"    a -.;.>.,.'.).!.Y &.~.{.].a ",
"    a ^./.(._.:.<.[.}.*.|.1.2.a ",
"    a 3.4.5.6.7.8.9.0.a.].2.b.a ",
"      a a a a a a a a a a a a   ",
"                                ",
"                                "};
