/* XPM */
static char * regular_xpm[] = {
"16 16 74 1",
" 	c None",
".	c #6A6A6A",
"+	c #747474",
"@	c #565656",
"#	c #727271",
"$	c #ABABAB",
"%	c #B6B6B5",
"&	c #B2B2B1",
"*	c #4F4F4F",
"=	c #CFCFCF",
"-	c #7A7A7A",
";	c #AAAAAA",
">	c #AFAFAF",
",	c #AEAEAE",
"'	c #ADADAC",
")	c #6C6C6C",
"!	c #575757",
"~	c #6B6B6B",
"{	c #7D7D7D",
"]	c #A1A1A0",
"^	c #ADADAD",
"/	c #ACACAB",
"(	c #595959",
"_	c #A1A1A1",
":	c #A2A2A2",
"<	c #B3B3B3",
"[	c #BABABA",
"}	c #B8B8B7",
"|	c #B9B9B8",
"1	c #797978",
"2	c #4A4A4A",
"3	c #C9C9C9",
"4	c #C3C3C3",
"5	c #CCCCCC",
"6	c #CBCBCA",
"7	c #C7C7C7",
"8	c #C4C4C4",
"9	c #BFBFBE",
"0	c #444443",
"a	c #E2E2E1",
"b	c #E0E0E0",
"c	c #DDDDDD",
"d	c #DCDCDC",
"e	c #DADAD9",
"f	c #D4D4D4",
"g	c #CACACA",
"h	c #989897",
"i	c #B2B2B2",
"j	c #F0F0F0",
"k	c #EAEAEA",
"l	c #E7E7E7",
"m	c #E4E4E4",
"n	c #DEDEDE",
"o	c #D8D8D8",
"p	c #D2D2D1",
"q	c #B0B0B0",
"r	c #3D3D3D",
"s	c #8F8F8F",
"t	c #FCFCFC",
"u	c #F7F7F7",
"v	c #F1F1F1",
"w	c #ECECEB",
"x	c #E5E5E5",
"y	c #BEBEBE",
"z	c #030303",
"A	c #3F3F3F",
"B	c #FFFFFF",
"C	c #FEFEFE",
"D	c #F4F4F4",
"E	c #A8A8A8",
"F	c #474747",
"G	c #000000",
"H	c #898989",
"I	c #191919",
"                ",
"                ",
"                ",
"        .+      ",
"    @#$%&$      ",
"   *=-;>,')     ",
"   !~{],>^/     ",
"   (_:<[[}|1    ",
"   2343567890   ",
"    abcdef=gh   ",
"    ijklmnopqr  ",
"    stuvwxy(z   ",
"    ABCDEFGGG   ",
"     H+IGG      ",
"                ",
"                "};
