/* XPM */
static char * spam_xpm[] = {
"10 10 4 1",
" 	c None",
".	c #DF0B18",
"+	c #CC0000",
"@	c #D5050C",
"  .++++.  ",
" ++....+@ ",
".+.   .++.",
"+.   .+..+",
"+.  .+. .+",
"+. .+.  .+",
"+..+.   .+",
".++.   .+.",
" ++....++ ",
"  .++++.  "};
