/* XPM */
static char * stock_mail_reply_to_all_quote_xpm[] = {
"24 24 89 1",
" 	c None",
".	c #000000",
"+	c #7B7B78",
"@	c #C7C7C3",
"#	c #F1F0EB",
"$	c #BFBFBC",
"%	c #5F5E5E",
"&	c #E3E3DF",
"*	c #F3F3EF",
"=	c #F2F2EE",
"-	c #F1F1EC",
";	c #F0EFEB",
">	c #D2D2CD",
",	c #969592",
"'	c #616060",
")	c #B5B5B4",
"!	c #F8F8F6",
"~	c #F7F7F5",
"{	c #F6F6F3",
"]	c #F5F5F2",
"^	c #F4F4F0",
"/	c #F2F1ED",
"(	c #F1F0EC",
"_	c #F0EFEA",
":	c #EFEEE9",
"<	c #4F4F4D",
"[	c #BDBCB8",
"}	c #A7A6A3",
"|	c #C6C6C4",
"1	c #7C7C7B",
"2	c #525251",
"3	c #DBDBD9",
"4	c #F5F4F1",
"5	c #F4F3F0",
"6	c #F3F2EE",
"7	c #999894",
"8	c #62625F",
"9	c #BCBCB6",
"0	c #EBE9E3",
"a	c #E0D8B0",
"b	c #838381",
"c	c #D7D6D4",
"d	c #A8A8A6",
"e	c #515150",
"f	c #7E7D7C",
"g	c #DAD9D5",
"h	c #EFEEE8",
"i	c #EEEDE7",
"j	c #EBE9E2",
"k	c #F6F5F2",
"l	c #F4F3EF",
"m	c #B5B4B1",
"n	c #9B9A97",
"o	c #646361",
"p	c #92918E",
"q	c #EEEDE8",
"r	c #EDECE6",
"s	c #B39C82",
"t	c #E9E8E1",
"u	c #E8E7DF",
"v	c #D0D0CD",
"w	c #F2F2ED",
"x	c #BFBEBA",
"y	c #BEBDB9",
"z	c #7A7A77",
"A	c #BCA488",
"B	c #626260",
"C	c #C5AC8F",
"D	c #AA947B",
"E	c #A18D75",
"F	c #98856E",
"G	c #8F7D68",
"H	c #867561",
"I	c #7D6D5B",
"J	c #746554",
"K	c #736453",
"L	c #7F6F5C",
"M	c #BEBDB8",
"N	c #989793",
"O	c #ECEAE4",
"P	c #8B7964",
"Q	c #96836D",
"R	c #EBEAE4",
"S	c #EAE9E2",
"T	c #A28D75",
"U	c #AD977E",
"V	c #E7E6DE",
"W	c #B9A186",
"X	c #959590",
"                        ",
"                        ",
"             ....       ",
"        .....+@#$.      ",
"   .....%$&*=-;>,.      ",
"  .')!~{]^*/(_:<[}..    ",
"  .|123456/#_:7890.a.   ",
"  .bcdefg/#_hi..j.aaa.  ",
"   .k4lmnopqr.s.tu.aaa. ",
"   .v*w(;xyz.As........ ",
"   ../(_:Br.CAsDEFGHIJ. ",
"  .KL..hMNO.CAsDEFGHI.  ",
"  .KLPQ..RSt.As......   ",
"   ..PQTU..uV.s....     ",
"     ..TUWC.X...   .    ",
"     ..TUWC..     .a.   ",
"   ..PQTU..   .. .aaa.  ",
"  .KLPQ..    .s.  .aaa. ",
"  .KL..     .As........ ",
"   ..      .CAsDEFGHIJ. ",
"           .CAsDEFGHI.  ",
"            .As......   ",
"             .s.        ",
"              ..        "};
