/* XPM */
static char * stock_dialog_question_xpm[] = {
"48 48 501 2",
"  	c None",
". 	c #5C2D22",
"+ 	c #572B20",
"@ 	c #572B21",
"# 	c #552C22",
"$ 	c #552D23",
"% 	c #583027",
"& 	c #583128",
"* 	c #5A352C",
"= 	c #5B362E",
"- 	c #59342B",
"; 	c #5A3228",
"> 	c #5A2F25",
", 	c #522C24",
"' 	c #53291F",
") 	c #51281E",
"! 	c #69392E",
"~ 	c #5A3127",
"{ 	c #5E362C",
"] 	c #704C43",
"^ 	c #7F574F",
"/ 	c #81564C",
"( 	c #8D594D",
"_ 	c #965F53",
": 	c #996154",
"< 	c #B26F5F",
"[ 	c #B97363",
"} 	c #B87060",
"| 	c #B56A58",
"1 	c #B0614E",
"2 	c #AE5C49",
"3 	c #AD5B48",
"4 	c #A55644",
"5 	c #8E4939",
"6 	c #8E4535",
"7 	c #8A4332",
"8 	c #75392B",
"9 	c #613024",
"0 	c #4E261C",
"a 	c #50271E",
"b 	c #4E261D",
"c 	c #653226",
"d 	c #5D3126",
"e 	c #70453C",
"f 	c #814E43",
"g 	c #9E6A5E",
"h 	c #B3796C",
"i 	c #BB7768",
"j 	c #B46857",
"k 	c #AD5C49",
"l 	c #AE5D4A",
"m 	c #A9533F",
"n 	c #AA5440",
"o 	c #A6523E",
"p 	c #A34F3C",
"q 	c #924736",
"r 	c #7E3E2F",
"s 	c #643025",
"t 	c #4D261D",
"u 	c #49241B",
"v 	c #5B3830",
"w 	c #7A4E44",
"x 	c #986458",
"y 	c #B87868",
"z 	c #C08072",
"A 	c #B76F5E",
"B 	c #A05544",
"C 	c #914C3C",
"D 	c #803F30",
"E 	c #7C3D2E",
"F 	c #7F3E2F",
"G 	c #864232",
"H 	c #8D4535",
"I 	c #944937",
"J 	c #984B39",
"K 	c #9B4C3A",
"L 	c #A5513E",
"M 	c #9D4D3A",
"N 	c #974A38",
"O 	c #73382A",
"P 	c #562A20",
"Q 	c #47231A",
"R 	c #623931",
"S 	c #6E463E",
"T 	c #9F6052",
"U 	c #B56B59",
"V 	c #AE5E4C",
"W 	c #7B3C2E",
"X 	c #986053",
"Y 	c #9A695D",
"Z 	c #A7867E",
"` 	c #B39A94",
" .	c #BBA29C",
"..	c #C1B8B7",
"+.	c #C1C1C1",
"@.	c #C0C0C0",
"#.	c #BBA19A",
"$.	c #C8ADA7",
"%.	c #DABEB7",
"&.	c #C38A7C",
"*.	c #A4503D",
"=.	c #964A38",
"-.	c #7D3D2E",
";.	c #401F18",
">.	c #613930",
",.	c #835043",
"'.	c #B56F60",
").	c #AB5844",
"!.	c #9A4C3A",
"~.	c #8E5A4E",
"{.	c #8A6C65",
"].	c #9C8D89",
"^.	c #BBBBBB",
"/.	c #CECECE",
"(.	c #E5E5E5",
"_.	c #EDEDED",
":.	c #F6F6F6",
"<.	c #F8F8F8",
"[.	c #F4F4F4",
"}.	c #F3F3F3",
"|.	c #EAE0DE",
"1.	c #C2897B",
"2.	c #954937",
"3.	c #4D261C",
"4.	c #3C1D16",
"5.	c #643A30",
"6.	c #804E42",
"7.	c #B47162",
"8.	c #B36755",
"9.	c #A4513D",
"0.	c #813F30",
"a.	c #834C3F",
"b.	c #8D6961",
"c.	c #A79F9D",
"d.	c #E0E0E0",
"e.	c #F1F1F1",
"f.	c #D9BCB6",
"g.	c #B97666",
"h.	c #A7523E",
"i.	c #442119",
"j.	c #634139",
"k.	c #AB6A5A",
"l.	c #B0604E",
"m.	c #A04F3C",
"n.	c #75392C",
"o.	c #8D716A",
"p.	c #7F7F7F",
"q.	c #EEEEEE",
"r.	c #F5F5F5",
"s.	c #F0F0F0",
"t.	c #DECBC7",
"u.	c #B87566",
"v.	c #994B39",
"w.	c #7A3B2D",
"x.	c #371B14",
"y.	c #602F24",
"z.	c #7E5951",
"A.	c #AF5E4B",
"B.	c #A2503C",
"C.	c #773A2C",
"D.	c #80726F",
"E.	c #B5B5B5",
"F.	c #FCFCFC",
"G.	c #FDFDFD",
"H.	c #F2F2F2",
"I.	c #B16452",
"J.	c #A3503D",
"K.	c #874232",
"L.	c #442219",
"M.	c #9E7971",
"N.	c #945F53",
"O.	c #8A8A8A",
"P.	c #AEAEAE",
"Q.	c #555555",
"R.	c #242424",
"S.	c #1B1B1B",
"T.	c #191919",
"U.	c #181818",
"V.	c #2C2C2C",
"W.	c #DBDBDB",
"X.	c #EBEBEB",
"Y.	c #C6968B",
"Z.	c #4C251C",
"`.	c #AB7E73",
" +	c #9D7369",
".+	c #C5C5C5",
"++	c #838383",
"@+	c #1F1F1F",
"#+	c #353535",
"$+	c #2A2A2A",
"%+	c #AAAAAA",
"&+	c #E9E9E9",
"*+	c #D4B7B0",
"=+	c #924737",
"-+	c #4F261D",
";+	c #6B443B",
">+	c #A47369",
",+	c #B89E98",
"'+	c #CCCCCC",
")+	c #A9A9A9",
"!+	c #363636",
"~+	c #2F2F2F",
"{+	c #5A5A5A",
"]+	c #727272",
"^+	c #626262",
"/+	c #3B3B3B",
"(+	c #1A1A1A",
"_+	c #292929",
":+	c #DEDEDE",
"<+	c #D5BBB5",
"[+	c #AB5642",
"}+	c #A14F3C",
"|+	c #49231B",
"1+	c #A37367",
"2+	c #783B2D",
"3+	c #B7968E",
"4+	c #CBCBCB",
"5+	c #FEFEFE",
"6+	c #666666",
"7+	c #1C1C1C",
"8+	c #CDCDCD",
"9+	c #3D3D3D",
"0+	c #1D1D1D",
"a+	c #DFDFDF",
"b+	c #E8E8E8",
"c+	c #C89B91",
"d+	c #8E4635",
"e+	c #48231B",
"f+	c #6A433B",
"g+	c #9D6B60",
"h+	c #7A3C2D",
"i+	c #A9786D",
"j+	c #5D5D5D",
"k+	c #737373",
"l+	c #5E5E5E",
"m+	c #595959",
"n+	c #D2D2D2",
"o+	c #E6E6E6",
"p+	c #C18C7F",
"q+	c #AC5845",
"r+	c #4A251B",
"s+	c #653F36",
"t+	c #88584C",
"u+	c #B16250",
"v+	c #8D5244",
"w+	c #373737",
"x+	c #171717",
"y+	c #ECECEC",
"z+	c #6F6F6F",
"A+	c #616161",
"B+	c #C2C2C2",
"C+	c #B26452",
"D+	c #3D1E17",
"E+	c #5C342B",
"F+	c #734940",
"G+	c #793B2D",
"H+	c #AFA7A5",
"I+	c #B7B7B7",
"J+	c #4B4B4B",
"K+	c #535353",
"L+	c #4E4E4E",
"M+	c #1E1E1E",
"N+	c #7C7C7C",
"O+	c #E3E3E3",
"P+	c #D6BEB8",
"Q+	c #B36654",
"R+	c #73382B",
"S+	c #361A14",
"T+	c #5A3229",
"U+	c #B66F5F",
"V+	c #A88981",
"W+	c #D9D9D9",
"X+	c #EAEAEA",
"Y+	c #9E9E9E",
"Z+	c #757575",
"`+	c #D3D3D3",
" @	c #EFEFEF",
".@	c #707070",
"+@	c #282828",
"@@	c #464646",
"#@	c #A7A7A7",
"$@	c #D0D0D0",
"%@	c #E1E1E1",
"&@	c #BF897C",
"*@	c #B56A59",
"=@	c #653125",
"-@	c #4D271E",
";@	c #A46759",
">@	c #AD5A47",
",@	c #824031",
"'@	c #9F6759",
")@	c #BFBFBF",
"!@	c #949494",
"~@	c #4C4C4C",
"{@	c #676767",
"]@	c #A3A3A3",
"^@	c #894332",
"/@	c #47211A",
"(@	c #784A3E",
"_@	c #954938",
":@	c #7D3D2F",
"<@	c #A49C9A",
"[@	c #545454",
"}@	c #4F4F4F",
"|@	c #9B9B9B",
"1@	c #D5BEB9",
"2@	c #B76E5D",
"3@	c #76392B",
"4@	c #301711",
"5@	c #593128",
"6@	c #B6705F",
"7@	c #A67F76",
"8@	c #606060",
"9@	c #303030",
"0@	c #161616",
"a@	c #343434",
"b@	c #909090",
"c@	c #BB7F71",
"d@	c #9A4C39",
"e@	c #5D2D22",
"f@	c #4A251D",
"g@	c #A2675A",
"h@	c #924837",
"i@	c #864E41",
"j@	c #A0A0A0",
"k@	c #DCDCDC",
"l@	c #A2A2A2",
"m@	c #434343",
"n@	c #A8A8A8",
"o@	c #DED1CE",
"p@	c #824030",
"q@	c #391C15",
"r@	c #4A241B",
"s@	c #6B3F35",
"t@	c #B6948C",
"u@	c #ABABAB",
"v@	c #4D4D4D",
"w@	c #808080",
"x@	c #BE8578",
"y@	c #633024",
"z@	c #1D0E0B",
"A@	c #4F2A21",
"B@	c #AF6F60",
"C@	c #8C4534",
"D@	c #8B5143",
"E@	c #C9C9C9",
"F@	c #878787",
"G@	c #DFD2CF",
"H@	c #B97261",
"I@	c #803E2F",
"J@	c #401E17",
"K@	c #46221A",
"L@	c #774D42",
"M@	c #AC5945",
"N@	c #7A3C2E",
"O@	c #B1918A",
"P@	c #E2E2E2",
"Q@	c #2E2E2E",
"R@	c #BF887B",
"S@	c #BB7666",
"T@	c #9F4E3B",
"U@	c #673226",
"V@	c #190C09",
"W@	c #4F2B23",
"X@	c #AD6A5B",
"Y@	c #894F42",
"Z@	c #BCBCBC",
"`@	c #9A9A9A",
" #	c #D7D7D7",
".#	c #DCD0CD",
"+#	c #BE7C6D",
"@#	c #401F17",
"##	c #000000",
"$#	c #492720",
"%#	c #774E44",
"&#	c #B0604D",
"*#	c #A98177",
"=#	c #C7C7C7",
"-#	c #D5D5D5",
";#	c #BE8172",
">#	c #72372A",
",#	c #160A08",
"'#	c #4F2E26",
")#	c #AD6F62",
"!#	c #A2503D",
"~#	c #9E9694",
"{#	c #494949",
"]#	c #484848",
"^#	c #CCAAA2",
"/#	c #B26553",
"(#	c #874131",
"_#	c #3B1C15",
":#	c #482820",
"<#	c #684138",
"[#	c #B46957",
"}#	c #8A4434",
"|#	c #8F5C51",
"1#	c #151515",
"2#	c #141414",
"3#	c #262626",
"4#	c #B6B6B6",
"5#	c #D4D4D4",
"6#	c #D8CCC9",
"7#	c #B66C5A",
"8#	c #643024",
"9#	c #0C0504",
"0#	c #45231B",
"a#	c #985F52",
"b#	c #987B74",
"c#	c #AFAFAF",
"d#	c #DDD7D5",
"e#	c #BE8274",
"f#	c #9C4D3A",
"g#	c #74382A",
"h#	c #26120D",
"i#	c #4F2920",
"j#	c #B06F60",
"k#	c #763A2C",
"l#	c #907B76",
"m#	c #222222",
"n#	c #B4B4B4",
"o#	c #C2948A",
"p#	c #793A2C",
"q#	c #4B241B",
"r#	c #67392E",
"s#	c #AF6959",
"t#	c #844C3F",
"u#	c #8E8786",
"v#	c #C3C3C3",
"w#	c #C59F95",
"x#	c #B66D5C",
"y#	c #854131",
"z#	c #5C2C21",
"A#	c #0F0705",
"B#	c #412018",
"C#	c #794539",
"D#	c #844C3E",
"E#	c #918A88",
"F#	c #B2B2B2",
"G#	c #C8B1AB",
"H#	c #BC7868",
"I#	c #A8533F",
"J#	c #8F4635",
"K#	c #683325",
"L#	c #220F0B",
"M#	c #432119",
"N#	c #8C4E3F",
"O#	c #8B4F40",
"P#	c #938481",
"Q#	c #B8B8B8",
"R#	c #CFCFCF",
"S#	c #B88175",
"T#	c #BF7E6F",
"U#	c #6E3528",
"V#	c #28120D",
"W#	c #8B4D3F",
"X#	c #9B776F",
"Y#	c #CEC5C3",
"Z#	c #B6796A",
"`#	c #BD7A6A",
" $	c #9B4C39",
".$	c #723729",
"+$	c #371A13",
"@$	c #402019",
"#$	c #925345",
"$$	c #9E8079",
"%$	c #B3B3B3",
"&$	c #D4CDCB",
"*$	c #BC9187",
"=$	c #A04E3B",
"-$	c #3E1E16",
";$	c #884A3B",
">$	c #A85440",
",$	c #A55B49",
"'$	c #B2857A",
")$	c #C9B1AB",
"!$	c #C6ACA7",
"~$	c #B67F72",
"{$	c #B16351",
"]$	c #6A3427",
"^$	c #3D1D16",
"/$	c #030101",
"($	c #3F1F17",
"_$	c #72382A",
":$	c #683126",
"<$	c #54291F",
"[$	c #8A4433",
"}$	c #7A3B2C",
"|$	c #52271E",
"1$	c #24100C",
"2$	c #894333",
"3$	c #A5513D",
"4$	c #914735",
"5$	c #5B2C21",
"6$	c #321811",
"7$	c #100805",
"8$	c #341913",
"9$	c #422018",
"0$	c #572A20",
"a$	c #6E3629",
"b$	c #3A1C15",
"                                                                                                ",
"                                                                                                ",
"                                                                                                ",
"                              . + @ # $ % & * = - ; > $ , @ ' )                                 ",
"                    ! ~ { ] ^ / ( _ : < [ } | 1 2 2 3 4 5 6 7 8 9 0 a b b                       ",
"              c d e f g h i j 2 2 2 k l m m m m n n n m o n n n n p q r s t u                   ",
"          c v w x y z A k B C D E E r F G G H H I J K K L n n n n n n n M N O P Q               ",
"        R S T [ U V J G E W G X Y Z `  ...+.+.+.@.+.#.$.%.&.&.n n n n n n n *.=.-.b ;.          ",
"      >.,.'.A ).!.G E ~.{.].^./.(._.:.<.<.:.:.:.:.:.[.[.[.[.[.}.|.%.1.n n n n n M 2.3.4.        ",
"    5.6.7.8.9.0.a.b.c.d.[.<.<.<.<.:.:.:.:.:.[.[.[.[.[.}.}.}.}.}.e.e.e.e.f.g.n n h.K I i.        ",
"    j.k.l.m.n.o.p.q.<.<.:.:.:.:.:.[.[.[.r.r.[.[.}.}.}.}.e.e.e.e.e.s.s.s.s.s.t.u.n L v.w.x.      ",
"  y.z.A.B.C.D.E.:.:.:.:.:.[.[.[.[.[.F.G.G.F.F.F.F.H.e.e.s.s.s.s.s.q.q.q.q.q._._.I.n J.K.L.      ",
"  @ M.2 G N.O.:.[.[.[.[.[.}.}.}.}.G.}.P.Q.R.S.T.U.V.W.s.s.q.q.q.q.q._._._._._.X.Y.n n G Z.      ",
"  > `.2 E  +.+[.[.}.}.}.}.}.e.e.}.F.++@+U.T.R.#+$+U.S.%+q._._._._._.X.X.X.X.X.&+*+n n =+-+      ",
"  ;+>+2 r ,+'+}.}.}.e.e.e.e.e.s.F.)+!+U.~+{+]+^+/+#+(+_+:+_.X.X.X.X.X.&+&+&+&+&+<+[+n }+|+      ",
"  ;+1+l 2+3+4+e.e.e.s.s.s.s.s.q.5+6+7+7+^+_._._.8+9+(+0+^+a+&+&+&+&+&+b+b+b+b+q.c+A.n d+e+      ",
"  f+g+A.h+i+4+s.s.s.s.q.q.q.q.q.5+j+7+U.k+X.X._.e.l+(+7+m+n+b+b+b+b+b+o+o+o+o+q.p+q+n K.r+      ",
"  s+t+u+F v+.+q.q.q.q._._._._._.5+{+w+x+{+&+&+y+H.z+(+S.A+B+b+o+o+o+o+o+(.(.b+X.C+n n C.D+      ",
"  E+F+C+N G+H+X._._._._.X.X.X.X.H.I+J+T.K+b+b+}./.L+x+M+N+I+o+o+(.(.(.(.(.O+&+P+Q+n n R+S+      ",
"    T+U+h.D V+W+X.X.X.X.&+&+&+&+X+y+Y+Z+`+b+ @e..@+@x+@@#@$@(.(.O+O+O+O+O+%@X.&@*@n }+=@        ",
"    -@;@>@,@'@)@&+&+&+&+b+b+b+b+b+o+o+o+o+q.[.!@~@x+0+{@]@O+O+O+O+%@%@%@%@(.&+| q+n ^@/@        ",
"    Z.(@u+_@:@<@(.b+b+b+b+o+o+o+o+o+(.(._.}.n+[@S.x+}@|@%@%@%@%@%@d.d.a+d.b+1@2@n h.3@4@        ",
"      5@6@n E 7@.+o+o+o+o+o+(.(.(.(.(.O+}.a+8@9@0@a@b@'+%@d.d.d.d.d.:+:+:+&+c@C+n d@e@          ",
"      f@g@>@h@i@j@k@(.(.(.(.O+O+O+O+O+%@s.l@m@0@T.b@n@d.d.:+:+:+:+:+k@k@O+o@*@[+n p@q@          ",
"      r@s@| L h+t@u@O+O+O+O+O+%@%@%@%@%@s.]+$+0@v@w@:+:+:+k@k@k@k@k@W.W.o+x@*@m J y@z@          ",
"        A@B@n C@D@l@E@%@%@%@%@d.d.d.d.d._.w@M+U.0@F@k@k@k@k@W.W.W.W.W.:+G@H@C+n I@J@            ",
"        K@L@M@h.N@O@j@d.d.d.d.d.:+:+:+:+k@P@z++@Q@l@W.W.W.W.W+W+W+W+W+o+R@S@n T@U@V@            ",
"          W@X@n =.Y@Y+.+:+:+:+:+k@k@k@k@k@b+Z@`@l@@.W+W+W+W+W+ # # #%@.#+#l.n F @###            ",
"          $#%#&#n E *#Y+k@k@k@k@W.W.W.W.W.b+}.'+=#8+W+ # # # # #-#W.(.;#Q+n v.>#,#              ",
"            '#)#m !#C.~#=#W.W.W.W.W+W+W+(.s.{#V.]#E.'+-#-#-#-#-# #%@^#/#[+L (#_###              ",
"            :#<#[#n }#|#j@-#W+W+W+W+ # #_.Y+1#2#3#8@4#-#5#5#5# #d.6#7#>@n I 8#9###              ",
"              0#a#q+L D b#c# # # # #-#-#&+|@2#2#U.j+4#5#n+n+n+:+d#e#2 n f#g#h#####              ",
"                i#j#n h.k#l#.+-#-#-#-#5#W.W.Q.m#/+p.n#n+n+$@k@%@o#Q+n m p#q#####                ",
"                i.r#s#n h.t#u#v#5#5#5#n+n+n+=#4#!@P.$@$@$@W.:+w#x#n n y#z#A#####                ",
"                  B#C#C+n !#D#E#+.n+n+n+$@$@.+F#.+/./.n+d.%@G#H#q+I#J#K#L#######                ",
"                    M#N#A.n o O#P#Q#R#'+E@E@'+8+/.$@W+O+k@S#T#3 m N U#V#######                  ",
"                      ;.W#2 n n H X#)+5#-#n+$@n+-#k@:+Y#Z#`#3 n  $.$+$####                      ",
"                        @$W#>@n I#d@#$$$%$n+W.W.W.&$*$j A q+n =$>#-$####                        ",
"                          @$;$>$n n m.J ,$'$)$!$~$*@{$2 [+n f#]$^$/$##                          ",
"                            ($_$f#m n n n n n n n n n n n 2.:$4@/$                              ",
"                              4.<$[$m.n n n n n n n n M }$|$1$##                                ",
"                                  4.. 2$N J.n n 3$4$I@5$6$7$                                    ",
"                                      8$9$0$a$e@i.b$h#                                          ",
"                                                                                                ",
"                                                                                                ",
"                                                                                                ",
"                                                                                                ",
"                                                                                                "};
