/* XPM */
static char *trash_xpm[] = {
"16 16 10 1",
" 	c None",
".	c #000000",
"+	c #191B2E",
"@	c #93A6D8",
"#	c #7386BC",
"$	c #3B4762",
"%	c #272A42",
"&	c #5A679D",
"*	c #C1CDF4",
"=	c #515E74",
"                ",
"   ......       ",
" +.@@#$##..     ",
".#@@@%+###&.    ",
".&@**####&=.    ",
".=&##&&==$$.    ",
" .+&==$$%+.     ",
" .=++++++=.     ",
" .=@$#$&$=....  ",
" .=@$#$&$=..... ",
" .=@$#$&$=..... ",
" .&@$#$&$=....  ",
"  .&&&=&=...    ",
"   .......      ",
"                ",
"                "};
