/* XPM */
static char * tray_nomail_xpm[] = {
"16 16 8 1",
" 	c None",
".	c #000000",
"+	c #A0A0A0",
"@	c #DCDCDC",
"#	c #808080",
"$	c #C3C3C3",
"%	c #FFFFFF",
"&	c #585858",
"                ",
"                ",
"                ",
"    ........    ",
"   .++@@@@#$.   ",
"  .+#########.  ",
" .+++$$$$$$###. ",
"....+$$$$$$#....",
".%$+.$$$$$$.##&.",
".%$+.$$$$$$.##&.",
".%$+.$$$$$$.##&.",
".%$+#......###&.",
".%$+##########&.",
".%$+##########&.",
" .$+##########. ",
"  ............  "};
