/* XPM */
static char * tray_newmarkedmail_xpm[] = {
"16 16 9 1",
" 	c None",
".	c #DE3636",
"+	c #FFFFFF",
"@	c #FF0000",
"#	c #A0A0A0",
"$	c #C3C3C3",
"%	c #808080",
"&	c #585858",
"*	c #000000",
"       ..       ",
"      .++.      ",
"     .++@+.     ",
"    .++@@@+.    ",
"   .++++@+++.   ",
"  .+++#+++#++.  ",
" .+++#+++#+++.. ",
"....++++#+++....",
".+$#.++#+++.%%&.",
".+$#.+#+++..%%&.",
".+$#.++++.$.%%&.",
".+$#%......%%%&.",
".+$#%%%%%%%%%%&.",
".+$#%%%%%%%%%%&.",
" *$#%%%%%%%%%%. ",
"  ............  "};
