/* XPM */
static char * tray_unreadmail_offline_xpm[] = {
"16 16 10 1",
" 	c None",
".	c #787878",
"+	c #DFDFDF",
"@	c #FFFFFF",
"#	c #BCBCBC",
"$	c #FF7878",
"%	c #000000",
"&	c #6666CC",
"*	c #ACACAC",
"=	c #CDCDCD",
"   ...........  ",
"  .+++++++++++. ",
" .............. ",
" .@@@@@@@@@@@@. ",
" .@####@@@@$$@. ",
" .@@@@@@@@@$$@. ",
" .@@@@@@@@@@@@. ",
"....%%++++%%....",
".@+%&%%%@@%&%#*.",
"%%%&&%@@++%&&%%%",
"&&&&&%%%@@%&&&&&",
"%%%&&%++++%&&%%%",
".@+%&%%%##%&%#*.",
".@+=%%####%%##*.",
" .+=##########. ",
"  ............  "};
