/* XPM */
static char * unread_xpm[] = {
"13 10 46 1",
" 	c None",
".	c #000036",
"+	c #000040",
"@	c #0000FF",
"#	c #C6C7FF",
"$	c #C7C7FF",
"%	c #C6C6FF",
"&	c #C7C6FF",
"*	c #C6C5FF",
"=	c #0000AF",
"-	c #C3C1FF",
";	c #C3C2FF",
">	c #C6C4FF",
",	c #7371FF",
"'	c #AEACFF",
")	c #C7C5FF",
"!	c #B1ADFF",
"~	c #5E58FF",
"{	c #0000DA",
"]	c #BBB7FF",
"^	c #B2AEFF",
"/	c #000038",
"(	c #C3C0FF",
"_	c #BBB8FF",
":	c #0000E3",
"<	c #0000F9",
"[	c #C6C3FF",
"}	c #C3BFFF",
"|	c #766AFF",
"1	c #C7C4FF",
"2	c #9289FF",
"3	c #5A4CFF",
"4	c #C0BCFF",
"5	c #C6C2FF",
"6	c #7368FF",
"7	c #0000AD",
"8	c #AEAAFF",
"9	c #5250FF",
"0	c #524FFF",
"a	c #413BFF",
"b	c #766EFF",
"c	c #9890FF",
"d	c #857EFF",
"e	c #5D54FF",
"f	c #8C86FF",
"g	c #00007E",
" .+......... ",
".@#$$%&$$%*=.",
".%@&&$-&;>@,.",
".%'@$*>)>@!~.",
".$&&@$&${]^!.",
"/($_@:&<@[}|.",
".$-@&)@1}@23.",
".&@;*)45(678.",
".@90ab6cdefg.",
" ........... "};
