/* XPM */
static char * unread_xpm[] = {
"13 10 38 1",
" 	c None",
".	c #000000",
"+	c #2828D5",
"@	c #CECFF5",
"#	c #D0D0F5",
"$	c #CECEF5",
"%	c #1B1B92",
"&	c #CCCBF4",
"*	c #CBCBF4",
"=	c #CDCDF5",
"-	c #8888E7",
";	c #BAB8F1",
">	c #CFCEF5",
",	c #BDBAF1",
"'	c #7572E3",
")	c #2222B7",
"!	c #C5C2F3",
"~	c #CBC9F4",
"{	c #C3C2F3",
"]	c #2323BE",
"^	c #2727D0",
"/	c #CECDF5",
"(	c #8881E6",
"_	c #A29CEB",
":	c #7068E1",
"<	c #C8C6F3",
"[	c #CDCBF4",
"}	c #867FE6",
"|	c #1B1B90",
"1	c #B9B7F0",
"2	c #6B6BE2",
"3	c #5E5ADF",
"4	c #8984E7",
"5	c #A6A1EC",
"6	c #9692E9",
"7	c #746EE3",
"8	c #9C99EA",
"9	c #141469",
" ........... ",
".+@##$$##$$%.",
".$+$$#&$*=+-.",
".$;+#$=>=+,'.",
".#$$+#$#)!,,.",
".~#{+]$^+/~(.",
".#&+$>+/~+_:.",
".$+*$><[~}|1.",
".+2234}56789.",
" ........... "};
