/* XPM */
static char * up_arrow_xpm[] = {
"24 24 54 1",
" 	c None",
".	c #000000",
"+	c #1D2F40",
"@	c #8DADCA",
"#	c #E6EDF3",
"$	c #84A6C5",
"%	c #2D4760",
"&	c #F4F7F9",
"*	c #B1C6DA",
"=	c #93B1CC",
"-	c #467097",
";	c #AEC4D9",
">	c #B2C7DB",
",	c #95B2CE",
"'	c #47729A",
")	c #446D93",
"!	c #2B455E",
"~	c #97B3CE",
"{	c #49749C",
"]	c #456E94",
"^	c #426A8F",
"/	c #2B445C",
"(	c #F2F6F9",
"_	c #AFC5DA",
":	c #406689",
"<	c #D4E0EB",
"[	c #B5C9DC",
"}	c #B6CADD",
"|	c #436C92",
"1	c #355572",
"2	c #345471",
"3	c #C2D3E3",
"4	c #436B90",
"5	c #2A435B",
"6	c #CDDBE8",
"7	c #ADC3D8",
"8	c #42698D",
"9	c #90AFCB",
"0	c #C1D2E2",
"a	c #ABC2D8",
"b	c #C0D1E1",
"c	c #A7BFD6",
"d	c #89AAC8",
"e	c #40678B",
"f	c #B9CCDE",
"g	c #A4BDD5",
"h	c #A3BCD4",
"i	c #81A4C4",
"j	c #41688C",
"k	c #7A9FC1",
"l	c #507FAB",
"m	c #5080AD",
"n	c #3F6588",
"o	c #2D4862",
"                        ",
"                        ",
"           .            ",
"          +@.           ",
"         .#$%.          ",
"        .&*=-%.         ",
"       .&;>,')!.        ",
"      .&>;>~{]^/.       ",
"     .(>>_>,{]^:/.      ",
"    .<[}>>>,'|1222.     ",
"   .....3;;,-45.....    ",
"       .6;7=]85.        ",
"       .3;79)85.        ",
"       .07a@|85.        ",
"       .bacd^e5.        ",
"       .fghije5.        ",
"       .klmn12o.        ",
"       .........        ",
"                        ",
"                        ",
"                        ",
"                        ",
"                        ",
"                        "};
