/* XPM */
static char * work_offline_xpm[] = {
"24 6 4 1",
" 	c None",
".	c #000000",
"+	c #D8BE6A",
"@	c #8E7D45",
"............  ..........",
"+++++++++++.  .@++++++++",
"++++++++++.  .@+++++++++",
"++++++++++.  .@+++++++++",
"@@@@@@@@@.  .@@@@@@@@@@@",
"..........  ............"};
